<?xml version="1.0" encoding="utf-8"?>
<!-- Generator: Adobe Illustrator 21.0.0, SVG Export Plug-In . SVG Version: 6.00 Build 0)  -->
<svg version="1.1" id="Lager_1" xmlns="http://www.w3.org/2000/svg" xmlns:xlink="http://www.w3.org/1999/xlink" x="0px" y="0px"
	 viewBox="0 0 200 200" style="enable-background:new 0 0 200 200;" xml:space="preserve">
<style type="text/css">
	.st0{fill:#E91E63;}
</style>
<g>
	<g>
		<path class="st0" d="M190.8,181.8c-26.6-31.7-57.5-59.2-86.8-88.2C89.4,79.2,75.1,64.3,62.1,48.3C56,41,50.6,32.9,43.2,26.7
			c-5.3-4.4-15.5-11.5-22.1-6.1c-4.1,3.3-3.3,8.5-0.5,12.4c3.7,5.2,8.3,9.8,12.4,14.7c8.5,10,16.9,20,25.4,30
			c5,5.9,13.3-2.6,8.4-8.4c-6.6-7.7-13.1-15.5-19.7-23.2c-3.2-3.7-6.4-7.5-9.5-11.2c-1.7-2-3.4-4-5.1-6c-0.5-0.6-1.2-1.8-1.8-2.2
			c-1.4-2.1-2.6-0.8-3.6,4.1c0.5,0.2,0.9,0.3,1.4,0.5c1.4,1.2,3.6,1.9,5.2,3c1.4,1,2.8,2.2,4,3.4c3,2.9,5.7,6,8.2,9.3
			c5.5,6.9,11.1,13.9,16.9,20.5c24.1,27.5,51.2,52,77.3,77.6c14.7,14.4,29,29.3,42.3,45.1C187.3,196.1,195.7,187.6,190.8,181.8
			L190.8,181.8z"/>
	</g>
</g>
<g>
	<g>
		<path class="st0" d="M29.3,19c-4.2-6.7-15.3-6.5-17.7,1.8c-2.5,8.5,5.5,20.1,10.3,26.4c6.2,8.2,13.8,14.9,21.5,21.6
			c8,7,15.4,14.2,22.5,22.1c6.9,7.6,13.9,14.7,22.3,20.6c8.4,5.9,17.5,10.8,24.7,18.2c13.4,13.7,20.9,32,35.3,44.9
			c3.8,3.4,8,6.5,12.5,8.8c4.4,2.2,9.8,2.9,13.8,5.7c3.9,2.7,8.1,4.4,12.3,1.3c4.2-3.1,4.2-8,1.2-11.9c-4.7-6-13.1,2.5-8.4,8.4
			c0.2,0.2,0.4,0.4,0.5,0.7c-0.6-1.4-1.2-2.8-1.7-4.2c0-2.3,4-1.8,2.8-4.1c-0.2-0.4-1.4-1.1-1.8-1.4c-1.5-0.9-3.1-1.5-4.8-2
			c-3.2-1-6.2-1.9-9.2-3.5c-6.2-3.4-11.3-8.3-15.8-13.6c-9.5-11.1-16.2-24.2-25.9-35.1c-10.2-11.4-24.3-17.5-35.7-27.4
			C76,86,66.5,73.2,54.6,62.8C48.1,57,41.4,51.5,35.5,45.1c-2.8-3.1-5.4-6.4-7.6-10c-1.1-1.9-2.2-3.8-3-5.8
			c-0.3-0.8-0.6-1.6-0.9-2.4c-0.2-0.5-0.4-1-0.5-1.6c-0.3-1.9-1.8-2-4.5-0.2C23.1,31.5,33.4,25.5,29.3,19L29.3,19z"/>
	</g>
</g>
<g>
	<g>
		<path class="st0" d="M17.9,188.7c24.8-18.5,46.8-40.2,67.3-63.4c10.4-11.7,20.4-23.8,30.4-35.9c9.8-11.9,20.2-23.5,27.1-37.4
			c3.9-7.8,7-13.5,15.2-17.1c7.8-3.5,14.8-7.2,21.5-12.5c-2.8,0-5.6,0-8.4,0c-0.3-1.8-0.6-1.9-0.7-0.1c-0.2,1.1-0.4,2.2-0.7,3.3
			c-0.5,2.2-1.1,4.4-1.7,6.6c-1.3,4.4-2.9,8.7-4.9,12.9c-3.8,8.3-8.6,16.2-13.9,23.6c-11.3,15.6-25.4,29.1-39.6,42.1
			c-14.6,13.3-29.7,26.1-45.2,38.2c-8,6.2-16.1,12.3-24.4,18.2c-3.7,2.7-7.5,5.4-11.5,7.4c-2,1-4.1,1.9-6.3,2.4
			c-1.1,0.3-2.1,0.5-3.2,0.5c-1.8-0.3-2.1-0.1-0.9,0.4c0.6,1.4,1.2,2.8,1.7,4.2c-0.7,1.4-0.3,1.4,1,0.1c0.5-0.3,1-0.7,1.5-1
			c1.5-1,3-2.1,4.5-3.2c3.1-2.3,6.2-4.6,9.3-7c6-4.7,11.7-9.7,17.3-15c5.6-5.3-2.9-13.7-8.4-8.4c-8.1,7.6-16.6,14.7-25.6,21.2
			c-3.6,2.6-8.1,4.7-10.3,8.7c-2.2,3.9-1,8.9,3.2,10.9c8.3,3.9,19.7-1.7,26.7-6c9.3-5.8,18.1-12.8,26.8-19.4
			c17.6-13.5,34.6-27.6,51-42.5c15.9-14.5,31.4-29.5,43.9-47.1c6.6-9.3,12-19.3,16.2-29.9c2-5,3.6-10.2,4.7-15.5
			c1-4.6,2.5-10.5-1.9-14c-2.8-2.2-5.6-2.2-8.4,0c-11.3,8.8-26.3,10.9-34.1,23.7c-3.8,6.2-6.4,12.9-10.5,18.9
			c-4.4,6.6-9.6,12.7-14.7,18.9C92.4,99,72.9,122.5,51.3,144c-12.4,12.3-25.4,24-39.4,34.4C5.8,182.9,11.7,193.2,17.9,188.7
			L17.9,188.7z"/>
	</g>
</g>
<g>
	<g>
		<path class="st0" d="M108.6,91.3c-7.7,16.5-26.3,24.2-35.3,40c-2.9,5.1,2.9,11.2,8.1,8.1c16.1-9.5,28.4-23.7,38.8-39
			c5.1-7.5,9.2-16,15.4-22.6c6.3-6.6,13.9-11.3,18.8-19.2c4.1-6.5-6.2-12.5-10.3-6c-4.5,7-11.9,11.3-17.5,17.3
			c-6,6.5-10.1,14.4-14.9,21.7c-9.7,14.7-21,28.5-36.4,37.5c2.7,2.7,5.4,5.4,8.1,8.1c8.9-15.8,27.4-23.3,35.3-40
			C122.1,90.5,111.8,84.4,108.6,91.3L108.6,91.3z"/>
	</g>
</g>
<g>
	<g>
		<path class="st0" d="M23.8,178.7c-0.4,0.2-4.9,2.9-5.2,1.9c-0.4-1.4,3-3.3,3.8-3.9c3.9-2.6,8.1-4.7,12-7.2
			c8.1-5.2,15-11.9,22.1-18.4c15.2-14.1,30.3-28.3,45.2-42.6c5.5-5.3-2.9-13.7-8.4-8.4c-10,9.6-20.1,19.2-30.3,28.7
			c-9.8,9.2-19.4,19.3-30.2,27.4c-8,6-23,10.4-25.7,21.3c-1.3,5.5,0.8,11.2,6,13.8c5.6,2.9,11.7,0.7,16.7-2.3
			C36.5,185.1,30.5,174.8,23.8,178.7L23.8,178.7z"/>
	</g>
</g>
<g>
	<g>
		<path class="st0" d="M14.5,193.5c11.3,2.9,21-4.2,29.9-10.3c9.8-6.7,17.6-15,26.2-23.1c16.5-15.6,35.1-28.9,49.6-46.5
			c4.8-5.9-3.5-14.3-8.4-8.4c-13,15.8-29.3,28.2-44.5,41.8c-7.7,6.9-14.5,14.7-22.5,21.2c-4.1,3.3-8.5,6.2-13,9
			c-4.2,2.7-9,6.1-14.2,4.8C10.3,180.1,7.1,191.6,14.5,193.5L14.5,193.5z"/>
	</g>
</g>
<g>
	<g>
		<path class="st0" d="M147.7,44.4c5.3-5.5,10.5-11.1,15.9-16.5c2.3-2.3,4.5-4.1,7.3-5.6c2.2-1.1,4.5-0.8,1.3-2.7
			c-3.2-1.9-1.9,0.3-1.2,2.6c2.2,7.3,13.7,4.2,11.5-3.2c-1.3-4.2-1.5-8.5-6.6-9.8c-4.4-1.2-9.4,1.7-13.1,4
			c-9.1,5.5-16.3,15.2-23.6,22.8C134,41.5,142.4,49.9,147.7,44.4L147.7,44.4z"/>
	</g>
</g>
<g>
	<g>
		<path class="st0" d="M164.7,27.7C153.5,36.5,144.6,48,138.9,61c-3.1,6.9,7.2,13,10.3,6c5.4-12.3,13.4-22.6,24-30.9
			C179.2,31.4,170.7,23.1,164.7,27.7L164.7,27.7z"/>
	</g>
</g>
<g>
	<g>
		<path class="st0" d="M136,71.7c-3.7,4.3-7.1,8.8-10.4,13.4c-1.8,2.6-0.5,6.6,2.1,8.1c3,1.7,6.3,0.5,8.1-2.1
			c2.7-3.8,5.5-7.5,8.5-11c2.1-2.4,2.4-6,0-8.4C142.2,69.5,138.1,69.2,136,71.7L136,71.7z"/>
	</g>
</g>
<g>
	<g>
		<path class="st0" d="M181.3,183.7c1.1-0.3,1-0.4-0.4-0.5c-0.9-0.2-1.7-0.6-2.5-1.1c-1.6-0.8-3.1-1.8-4.6-2.8
			c-3.6-2.3-7-4.9-10.2-7.7c-6.5-5.7-12.5-12-18.5-18.2c-6.1-6.3-12.1-12.6-17.9-19.2c-2.7-3-5.5-5.9-8.8-8.4c-3.3-2.5-7-4.4-10-7.3
			c-5.5-5.3-13.9,3.1-8.4,8.4c3.4,3.3,7.5,5.4,11.2,8.3c4,3,7.2,7.1,10.6,10.8c7.1,8,14.6,15.6,22.2,23.2
			c6.8,6.8,13.7,13.4,21.7,18.9c7.3,5,16,10.4,24.2,4C195.7,187.3,187.2,178.9,181.3,183.7L181.3,183.7z"/>
	</g>
</g>
<g>
	<g>
		<path class="st0" d="M124.4,81.8c-2.7,4-6.2,7.5-10.1,10.3c-2.6,1.9-3.9,5.2-2.1,8.1c1.5,2.6,5.5,4,8.1,2.1
			c5.7-4.1,10.4-8.9,14.4-14.6c1.8-2.6,0.5-6.6-2.1-8.1C129.6,77.9,126.2,79.1,124.4,81.8L124.4,81.8z"/>
	</g>
</g>
<g>
	<g>
		<path class="st0" d="M23,24.6c2.7-2.2,12.2,7.9,13.9,9.5c4.3,4.1,8.2,8.6,11.8,13.2c7.1,9,12.7,21.2,22.3,27.7
			c5.3,3.6,10.6-3.2,8.1-8.1c-3.6-7.4-9.1-13.3-16-17.9c-2,3.4-4,6.9-6,10.3c20.1,10.8,33.2,30.3,49.5,45.6c5.6,5.3,14-3.2,8.4-8.4
			C98,80.5,84.3,60.4,63.2,49.1c-6.8-3.6-12.4,6.1-6,10.3c5.2,3.4,8.9,8,11.7,13.6c2.7-2.7,5.4-5.4,8.1-8.1
			C71.4,61,67.7,53,63.8,47.6c-4.5-6.1-9.1-12.1-14.3-17.7C41.1,21,27.1,6.1,14.6,16.2C8.6,21,17.1,29.4,23,24.6L23,24.6z"/>
	</g>
</g>
<g>
	<g>
		<path class="st0" d="M107.2,84.9c-14.1-8.9-25.2-23-36.7-34.8c-6.1-6.3-12-12.8-18.3-18.7c-5.5-5.2-11.3-8.7-18.8-9.6
			c-7.6-0.9-7.5,11,0,11.9c6.8,0.8,12,7.7,16.5,12.3c5.9,6.1,11.8,12.1,17.7,18.2C78.1,75,88.2,87.1,101.2,95.2
			C107.7,99.3,113.7,89,107.2,84.9L107.2,84.9z"/>
	</g>
</g>
<g>
	<g>
		<path class="st0" d="M114.7,114.7c13.5,9.8,26.1,20.7,37.7,32.6c5.8,6,11.4,12.1,16.7,18.6c2.8,3.4,5.4,6.8,7.8,10.4
			c0.9,1.3,1.8,3.6,3,4.6c0.7,2.2,1.5,2.1,2.6-0.4c-0.7,0.3-1.4,0.4-2.2,0.3c-7.6,0.4-7.7,12.3,0,11.9c10-0.5,15.9-7.7,10.4-17.1
			c-5.8-9.7-13.2-18.6-20.8-27.1c-14.8-16.5-31.3-31.2-49.2-44.2C114.5,99.9,108.6,110.2,114.7,114.7L114.7,114.7z"/>
	</g>
</g>
</svg>
