<?xml version="1.0" encoding="utf-8"?>
<!-- Generator: Adobe Illustrator 21.0.0, SVG Export Plug-In . SVG Version: 6.00 Build 0)  -->
<svg version="1.1" id="Lager_1" xmlns="http://www.w3.org/2000/svg" xmlns:xlink="http://www.w3.org/1999/xlink" x="0px" y="0px"
	 viewBox="0 0 200 200" style="enable-background:new 0 0 200 200;" xml:space="preserve">
<style type="text/css">
	.st0{fill:#CC366F;}
	.st1{fill:#E91E63;}
</style>
<g>
	<g>
		<path d="M-30.7,86c-3.1,13.7-5.4,31.1,9.4,38.9c6.4,3.4,13.9-5.2,8.1-10.5c-7.2-6.5-6.3-16.3-4.6-24.9
			C-16.2,81.2-28.8,77.6-30.7,86L-30.7,86z"/>
	</g>
</g>
<g>
	<g>
		<path d="M-27.8,131.4c-2.4,6.6-3.5,13.4-1.9,20.2c1.1,4.7,9.3,5.2,10,0c0.8-5.8,1.4-11.5,3.5-17c1.1-3-1.3-6.6-4.2-7.4
			C-23.8,126.3-26.7,128.3-27.8,131.4L-27.8,131.4z"/>
	</g>
</g>
<g>
	<g>
		<path class="st0" d="M-49,106.1c-5.4,3.9-10,8.6-10.6,15.6c-0.6,7.2,2.5,14.4,7.8,19.1c3.2,2.9,9,0.1,7.6-4.4
			c-2.3-7.4-8.6-16.2-0.3-22.4C-39.9,110.5-44.2,102.6-49,106.1L-49,106.1z"/>
	</g>
</g>
<g>
	<g>
		<path class="st1" d="M-31.9,32.8C-48,37-54.5,61.8-51,76c2,7.8,13.6,5.9,13.8-1.9c0.2-5.6,0.3-11,1.8-16.4
			C-34,53-31.7,46.6-27,44.3C-20.5,41.1-25.2,31.1-31.9,32.8L-31.9,32.8z"/>
	</g>
</g>
<g>
	<g>
		<path class="st1" d="M-59.5,17.9c-2.5,1.1-4.4,3.4-5.5,5.9c-1.6,3.6-1.3,6.7,0.3,10.3c1.3,2.8,5.6,2.5,7,0c1-1.8,1.7-3.5,2.1-5.5
			c0.1-0.4,0.2-0.8,0.3-1.2c-0.2,0.4-0.1,0.2,0.2-0.3c0.3-0.5,0.4-0.6,0.2-0.3c-0.3,0.2-0.2,0.1,0.3-0.2c2.3-1.4,3.1-4.4,1.8-6.7
			C-54.2,17.2-57.1,16.8-59.5,17.9L-59.5,17.9z"/>
	</g>
</g>
<g>
	<g>
		<path class="st1" d="M106,188.3c-4.1-8.5-10.5-16-16.2-23.5c-5.8-7.6-11.6-15.2-17.5-22.8C61,127.2,49.6,112.4,38.2,97.6
			C33,90.9,27.3,84.1,24.6,76c-2.3-6.8-2.1-14.2,0-21c4.3-14,17.6-23,32.1-22.1c9,0.5,16.2,5.6,22.5,11.7
			c6.8,6.7,12.2,13.8,16.1,22.6c1.7,3.8,8.6,3,9.2-1.2c1.1-8.4,7.1-14.9,13.1-20.5c6.1-5.7,12.9-10.5,20.3-14.3
			c3.8-2,7.9-3.8,12.1-1.7c3.7,1.8,7.1,4.9,10.2,7.6c6.8,6.1,9.4,13.2,9,22.3c-0.7,15.3-6.5,31.2-13.4,44.9
			c-7.2,14.4-16.5,27.6-27.1,39.6c-5.9,6.8-12.9,12.8-18.3,20c-2.6,3.4-5.1,7.1-6.7,11.1c-1.8,4.4-2.4,9.3-4.5,13.5
			c-2,4,2.9,8.1,6.3,4.8c3.1-3.1,4.7-6.5,6.2-10.5c2.1-5.4,5.1-8.1,9.5-11.7c7.4-6,13.9-13.3,20-20.6c12.1-14.4,22.6-30.2,30.1-47.5
			c7-16.4,13.5-37.4,9.2-55.3c-2.3-9.7-8.8-16.3-16.6-22.1c-8.3-6.2-15.9-10-26.1-5.8c-18.7,7.6-36.6,24.1-42.8,43.5
			c3.2,0,6.5,0,9.7,0c-2.3-9-8.9-16.5-15.1-23.1C83.3,33.8,76.4,27.9,68,24.9c-15.3-5.5-33.9-0.4-44.5,12
			c-10.8,12.6-13.2,30.7-6.8,45.9c3.8,9.1,10.1,16.8,15.9,24.5c6.8,8.9,13.5,17.9,20.3,26.8c7.6,10,15.1,20,22.7,29.9
			c7.5,9.9,14.6,21.1,24,29.2C103.2,196.3,108,192.6,106,188.3L106,188.3z"/>
	</g>
</g>
<g>
	<g>
		<path class="st1" d="M106.7,193c5.5-7.1,10.5-14.5,14.9-22.4c0.8-1.4-1.1-3-2.3-1.8c-6.1,6.2-11.8,12.8-17.2,19.6
			C99.7,191.7,104.2,196.2,106.7,193L106.7,193z"/>
	</g>
</g>
<g>
	<g>
		<path class="st1" d="M128.3,156.2c2-3.6,4.3-7.1,6.7-10.5c0.6-0.9-0.8-1.7-1.5-0.9c-2.4,3.4-4.6,6.9-6.7,10.5
			C126.3,156.3,127.8,157.2,128.3,156.2L128.3,156.2z"/>
	</g>
</g>
<g>
	<g>
		<path class="st1" d="M106.7,191.8c5.1-3.8,9.1-9.1,13.2-13.9c4.3-5,8.6-10,12.8-15c3.4-4.2,5.7-8.4,8-13.3
			c2.8-5.7,7.6-10.6,10.1-16.3c1.3-2.9-2-5.9-4.6-3.5c-8.7,7.9-11,20.6-18.1,29.7c-3.9,5-7.8,10-11.8,15c-3.9,5-8.5,10.1-11.2,15.9
			C104.8,191.2,105.7,192.5,106.7,191.8L106.7,191.8z"/>
	</g>
</g>
<g>
	<g>
		<path class="st1" d="M136.9,156.6c7.2-9.4,14.7-19.1,20.1-29.6c1.6-3.1-2.8-5.7-4.7-2.7c-6.4,10-11.5,21-17.1,31.4
			C134.7,156.8,136.2,157.6,136.9,156.6L136.9,156.6z"/>
	</g>
</g>
<g>
	<g>
		<path class="st1" d="M157.1,34c-2.6,4.7-5.5,9-8.6,13.4c-1.5,2.2-3.1,4.4-4.6,6.5c-0.5,0.6-3.8,6.2-4.3,6.2
			c1.2,1.5,2.4,3.1,3.5,4.6c2-8.8,7.3-16.8,10.3-25.3c1.1-3.1-2.8-5.7-5.4-4.2c-9.2,5.4-13.8,15.7-21.2,22.9c2.3,1,4.6,1.9,7,2.9
			c-0.2-1-0.2-2-0.1-3c0.6-3.6-3.9-5.8-6-2.5c-0.9,1.4-1.5,2.8-1.9,4.5c-1,4,3.9,6.8,6.8,4c7.4-7.1,12.4-16,19.9-22.9
			c-2.1-1.2-4.1-2.4-6.2-3.6c-1.2,9-8.1,16.4-10.3,25.3c-0.6,2.5,1.1,4.4,3.5,4.6c5.2,0.5,8.2-6.2,10.7-9.7
			c4.5-6.2,8.8-12.5,14-18.2C168.7,34.6,160.3,28.4,157.1,34L157.1,34z"/>
	</g>
</g>
<g>
	<g>
		<path class="st1" d="M142.1,30.1c-1.7,1.8-3.5,3-5,5.1c-1.9,2.8-3.8,5.5-6,8.1c-3.9,4.6-8.6,8.3-12.6,12.8
			c-2.6,2.8,0.6,7.1,4.1,5.3c5.4-2.9,9.6-7.3,13.5-12c1.7-2,3.2-4.1,4.7-6.3c1.4-2.1,3.1-6.6,5.4-7.8
			C150.4,33,145.5,26.5,142.1,30.1L142.1,30.1z"/>
	</g>
</g>
<g>
	<g>
		<path class="st1" d="M137.6,25.6c-11.3,11.3-23.5,23.7-30.8,38c-2,3.9,3.1,8.3,6.3,4.8c10.8-11.8,19.6-25.3,30.2-37.2
			C146.7,27.5,141.3,21.9,137.6,25.6L137.6,25.6z"/>
	</g>
</g>
<g>
	<g>
		<path class="st1" d="M122.9,37.7c-9,8.9-16.3,19.4-22.4,30.4c-1.8,3.3,2,7.8,5.5,5.5c9.3-6.3,17.4-15.9,28.8-18.4
			c-1.4-1.1-2.8-2.1-4.1-3.2c0.2,4.6-3.5,8.2-6,11.6c-2.2,3.1-4.4,6.2-6.4,9.4c-3.9,6.1-8.9,13.2-10.5,20.4c-0.9,4,4.7,6.8,6.9,2.9
			c0.4-0.8,0.8-1.5,1.3-2.3c1.5-2.6-1.7-6.3-4.4-4.4c-0.7,0.5-1.4,1-2,1.5c1.7,1.7,3.4,3.4,5.1,5.1c2.8-3.7,4.5-8.3,6.6-12.4
			c2.1-3.9,4.3-7.7,6.6-11.4c4.2-6.7,10.8-13,9.3-21.5c-0.3-1.8-2.5-2.7-4-2.3c-12,3.1-20.7,11.7-31.1,17.8c1.8,1.8,3.6,3.6,5.5,5.5
			c5.4-10.9,12-20.9,19.5-30.5C129.1,38.9,125.5,35,122.9,37.7L122.9,37.7z"/>
	</g>
</g>
<g>
	<g>
		<path class="st1" d="M124.9,70.4c-11.5,15.3-24.1,29.6-35.9,44.6c2,0,3.9,0,5.9,0c-0.2-0.2-0.4-0.5-0.6-0.7c0.4,1,0.8,1.9,1.2,2.9
			c-0.2-4.2,3.8-9.9,5.6-13.6c2.1-4.1,4.3-8.2,6.6-12.2c4.8-8.3,9.9-16.4,15-24.6c2.6-4.1-3.2-8.2-6.5-5
			c-7.1,6.7-13.2,14.2-19.2,21.9c-2.8,3.6-5.6,7.2-8.5,10.8c-1.6,2-3.2,4-4.9,5.9c-0.8,0.9-3.8,4.4-3.7,4.4c1.4,1.4,2.8,2.8,4.2,4.2
			c0-7.9,6.2-16.6,10-23.2c4.1-7,8.1-14,12.5-20.9c2.4-3.8-3.4-7-5.9-3.4C92.7,72.8,84.9,84.3,77,95.8c2.3,1,4.6,1.9,6.9,2.9
			c3.7-13.2,9.1-26.5,16.9-37.9c1.8-2.6-2.1-5.2-4.2-3.3c-4.8,4.2-8.3,9.6-11.7,15c-3.2,5.1-6.4,12.8-11.2,16.6c1-0.3,2-0.5,3-0.8
			c-0.2,0-0.4-0.1-0.6-0.1c-3.9-0.9-5.5,4.8-1.6,6c5.4,1.6,9.9-8.8,11.9-12.4c4.2-7.2,8.2-14.3,13.9-20.5c-1.4-1.1-2.8-2.2-4.2-3.3
			C90,71.2,81.3,82.8,76.7,96.7c-1.4,4.3,4.6,6.3,6.9,2.9c7.7-11.5,15.5-23,23.1-34.7c-2-1.1-3.9-2.3-5.9-3.4
			c-4.5,7.9-9.3,15.6-13.9,23.4c-4.4,7.4-9.2,14.5-11,23c-0.5,2.2,0.6,4.6,2.9,5.2c4.8,1.3,7.6-2.6,10.5-5.8
			c3.7-4.1,7.1-8.5,10.4-12.9c7.1-9.3,14-18.6,22.4-26.7c-2.2-1.7-4.4-3.4-6.5-5c-6.1,10-12.3,20.1-17.8,30.5
			c-2.6,4.9-4.9,10-7.3,15c-1.7,3.6-4.9,8-2.2,11.9c1.4,2.1,4.6,2.9,6.5,0.8c13.2-14.6,24.8-30.9,36.3-46.8
			C133.9,70.3,127.7,66.8,124.9,70.4L124.9,70.4z"/>
	</g>
</g>
<g>
	<g>
		<path class="st1" d="M87.5,52.5c-5.1,8.9-11,17.3-17.6,25.1c2.3,1.3,4.6,2.7,6.9,4c0.4-3.1,1.3-5.7,2.7-8.6c2-4-3.3-7-5.9-3.5
			c-2.5,3.5-4.3,6.6-4.9,10.9c-0.5,3.5,4.9,5.5,7,2.9c7-8.4,13.1-17.5,18.2-27.2C96.1,52,89.9,48.3,87.5,52.5L87.5,52.5z"/>
	</g>
</g>
<g>
	<g>
		<path class="st1" d="M82.9,48C77.3,54.9,71.7,61.8,66,68.7c2.2,1.3,4.3,2.5,6.5,3.8c2.5-8.8,8.1-16.5,11.7-25
			c1.1-2.6-2.1-6-4.4-3.4c-2.9,3.4-5.4,7-8,10.6c-1.3,1.8-2.6,3.6-4,5.5c-1.4,1.9-3.2,5.6-5.3,6.6c1.6,1.3,3.3,2.5,4.9,3.8
			c2.4-8.2,5.8-16.1,8.5-24.3c0.9-2.6-2.7-3.7-4.1-1.7c-5.5,7.5-11,15-16.6,22.5c1.7,0.2,3.3,0.4,5,0.7c-0.7-2.1,3.4-8.8,4.5-11.1
			c1.8-3.8,3.5-7.7,5.5-11.5c1.3-2.4-2.2-4.4-3.7-2.1C64,46.7,61.5,50.4,59,54c-2.7,3.9-5.5,9-9.3,11.8c1.2,0.9,2.4,1.8,3.6,2.8
			c1.2-4,2.8-7.9,4.5-11.8c1.1-2.4-2-4.3-3.6-2.1c-2.7,3.9-4.4,8-5.7,12.6c-0.5,1.9,1.8,4.1,3.6,2.8c3.6-2.8,6-6.8,8.6-10.6
			c3.2-4.7,6.3-9.5,9.4-14.4c-1.2-0.7-2.4-1.4-3.7-2.1c-2.7,5-5.6,10-8.3,15.1c-1.7,3.2-4.7,7.3-3.3,11c0.9,2.2,3.6,2.7,5,0.7
			c5.3-7.6,10.5-15.3,15.8-22.9c-1.3-0.8-2.6-1.5-3.9-2.3c-4.7,7.6-8.5,15.6-10.8,24.2c-0.8,2.9,2.4,5,4.9,3.8
			c3.8-1.9,6.2-7.2,8.6-10.6c3.3-4.7,6.8-9.4,9.7-14.3c-1.7-0.7-3.4-1.4-5.1-2.1C76.2,54.6,67.9,61,65,70.4C64,74,69,77.2,71.5,74.2
			c5.7-6.8,11.4-13.7,17.1-20.5C91.9,49.7,86.2,43.9,82.9,48L82.9,48z"/>
	</g>
</g>
<g>
	<g>
		<path class="st1" d="M66.4,32.2C57.7,40.4,50.6,50,45.3,60.8c1.8,0.8,3.7,1.5,5.5,2.3c1.7-5.4,3.9-10.6,6.7-15.6
			c2.3-4.1,4.7-7.8,6.5-12.1c0.7-1.7-1.4-3.6-3.1-3.1c-5.4,1.9-8.6,7.3-11.9,11.8c-3.9,5.4-8,10.4-13,14.8c-2.5,2.2,0.7,6.1,3.5,4.5
			c4.8-2.8,8.1-6.7,11.3-11.1c3.6-5,6.7-12.1,12-15.4c-1.2-0.9-2.4-1.9-3.6-2.8c-1.1,4.9-5.5,9.3-8,13.6c-2.5,4.4-4.5,9-6.2,13.7
			c-1.1,3.2,4,5.4,5.5,2.3C55.4,53.4,62,44.1,70.2,36C72.7,33.6,68.9,29.8,66.4,32.2L66.4,32.2z"/>
	</g>
</g>
<g>
	<g>
		<path class="st1" d="M25.1,65.2c6-13.7,18-24.1,27.4-35.4c2.7-3.2-2-6.9-4.6-3.5c-2.8,3.8-5.5,7.4-8.8,10.8c-3,3-5.9,6.1-8.7,9.3
			c-5.4,5.9-11,11.9-15.3,18.6c1,0.4,2,0.8,3,1.3c0.1-0.4,5.3-0.9,6.3-1.5c1.9-1.2,3.4-3.4,5-5c4.6-4.9,10.6-11.7,17.1-13.7
			c-0.9-1.1-1.7-2.2-2.6-3.4C36.6,53.1,29.9,64,23,74.8c-1.8,2.9,2.6,6.5,4.8,3.7c2.3-2.8,4.6-5.7,7-8.5c1.4-1.7,3.7-6,5.8-6.7
			c-1.3-1.7-2.5-3.3-3.8-5c-3.2,7.1-6.3,14.2-9.5,21.3c-1.8,4,3.6,7.4,6,3.5c2.9-4.7,5.8-9.1,10.2-12.6c-1.9-1.4-3.7-2.9-5.6-4.3
			c-3,5.9-6,11.9-8.9,17.9c-1.7,3.4,3,7.8,5.7,4.4c2.8-3.5,5.5-7,8.3-10.5c-2-1.1-3.9-2.3-5.9-3.4c-1.9,7.1-4.2,14.1-7.1,20.9
			c-1.6,3.8,4.3,5.7,6.3,2.7c2.1-3.2,4.7-5.8,7.6-8.3c-1.4,0.2-2.8,0.4-4.2,0.5c-0.6-1.7-0.9-1.9-1.1-0.6c-0.2,0.8-0.5,1.7-0.7,2.5
			c-0.5,1.7-1,3.4-1.5,5.1c-1.1,3.8,4.3,5.9,6.3,2.6C50,88,59.4,77.8,69.3,67.5c2-2.1-0.7-5.9-3.2-4.1C54,72.1,44.5,84.2,36.7,96.8
			c2.1,0.9,4.2,1.8,6.3,2.6c1.4-4.6,5.3-11.4,0.2-14.9c-1.4-0.9-3.1-0.4-4.2,0.5c-3.4,2.8-6.2,6-8.7,9.7c2.1,0.9,4.2,1.8,6.3,2.7
			c2.8-6.8,5.2-13.8,7.2-20.9c0.9-3.2-3.6-6.3-5.9-3.4c-2.8,3.5-5.6,6.9-8.4,10.4c1.9,1.5,3.8,2.9,5.7,4.4c3-6,5.9-11.9,8.8-17.9
			c1.8-3.7-2.4-6.8-5.6-4.3c-4.7,3.8-8,8.9-11.1,14.1c2,1.2,4,2.3,6,3.5c3.1-7.1,6.2-14.3,9.4-21.4c1.1-2.5-0.7-5.9-3.8-5
			c-3.3,1-4.8,3.7-6.9,6.3c-3,3.9-6,7.7-8.9,11.6c1.8,1,3.5,2.1,5.3,3.1c6.6-11,13.2-22,19.5-33.1c0.9-1.6-0.6-4.2-2.6-3.4
			c-6.5,2.6-11.6,8.9-16.1,14.2c-1.1,1.4-2.2,2.8-3.3,4.2c-0.5,0.8-1.1,1.5-1.8,2.1c-1.7,1.1-3.5,1.4-5.4,1c-1.6,0.4-2.5,0.5-3.4,2
			c-0.9,1.6,1.3,3.3,2.5,2c5.6-6,10.4-12.7,15.8-18.9c2.6-3,5.2-5.9,7.9-8.8c3.3-3.5,6.7-6.1,10.6-8.9c-1.2-1.5-2.4-3.1-3.5-4.6
			c-6.4,5.6-11.7,12.1-16.7,18.9c-4.3,5.8-8.2,12.3-9.3,19.5C22.3,65.5,24.4,66.9,25.1,65.2L25.1,65.2z"/>
	</g>
</g>
<g>
	<g>
		<path class="st1" d="M68.1,63.2c-4.9,6.4-9.4,13-13.4,19.9c-3.2,5.5-9.2,13.2-8.9,19.8c0.1,2.2,2.6,3.1,4.2,1.7
			c2.7-2.4,3.6-5.8,5-9.1c1.6-3.5,3.3-7,5.1-10.4c3.6-6.8,7.6-13.4,11.9-19.8C73.6,63,69.8,61,68.1,63.2L68.1,63.2z"/>
	</g>
</g>
<g>
	<g>
		<path class="st1" d="M46.7,111.3c0,0.1,0,0.1,0,0.2c0.4-0.4,0.7-0.7,1.1-1.1c-0.1,0-0.2,0-0.2,0c0.4,0.6,0.7,1.3,1.1,1.9
			c3.5-7,7.7-13.3,12.9-19.1c2.7-3,5.6-6,8.5-8.8c2.6-2.5,5.3-4.6,6.5-8.1c0.7-1.9-1.4-3.7-3.2-3.2c-4.3,1.2-7.2,5.1-10.2,8.3
			c-3.3,3.6-6.5,7.2-9.4,11.2c-2.5,3.4-11.3,15.7-7.2,20c0.6,0.6,1.5,0.4,2-0.3c0-0.1,0.1-0.1,0.1-0.2c0.4-0.5,0.1-1.2-0.4-1.5
			c0,0-0.1-0.1-0.1-0.1C47.6,109.9,46.7,110.5,46.7,111.3L46.7,111.3z"/>
	</g>
</g>
<g>
	<g>
		<path class="st1" d="M71.4,79.6c-8.3,10-15.7,20.6-22.3,31.8c-1.6,2.7,2.4,6.1,4.5,3.5c6-7.3,11.4-17,19.5-22.1
			c-1.4-1.1-2.9-2.2-4.3-3.3c-4.2,10.2-8.6,20.4-12.9,30.6c-1.5,3.5,2.9,8.1,5.8,4.5c2.2-2.7,4.4-5.5,6.6-8.2
			c1.4-1.8,3.9-6.6,5.9-7.4c-1.6-1.6-3.2-3.2-4.7-4.7c-1.9,4.8-3.8,9.6-5.8,14.4c-1.8,4.4-3.9,8.7-4.4,13.4c-0.4,3.7,5.7,5.4,7.3,2
			c1.5-3.5,3.3-7,5.2-10.3c1.7-2.9,4.3-8.2,7.3-9.7c-0.9,0.1-1.9,0.2-2.8,0.4c0.4,0.1,0.7,0.1,1.1,0.2c-0.8-1.5-1.7-3-2.5-4.4
			c-3.3,9.2-7.2,18.1-11.7,26.8c2.2,1.3,4.4,2.6,6.6,3.9c4-8.5,9.3-16,16.1-22.4c-2.1-1.2-4.3-2.5-6.4-3.7
			c-2.7,7.9-5.7,15.6-9.2,23.1c-2.2,4.8,4.9,9.1,7.2,4.2c2-4.2,3.9-8.4,6.1-12.4c0.8-1.4,5.5-11.3,7.2-11.1
			c-1.5-1.5-2.9-2.9-4.4-4.4c0.2,1.7,0.5,3.4,0.9,5.1c0.9,4.6,7.8,3.4,7.9-1.1c0-1.4,0-2.7,0-4c-0.1-1.8-1.3-3.9-3.2-4.2
			c-6.5-1.1-9.5,4.3-12.5,9.3c-3.6,5.9-6.4,12.3-9.2,18.6c2.5,1.1,5.1,2.1,7.6,3.2c3.2-8,6.1-16.2,8.9-24.3c1.3-3.8-3.8-6.2-6.4-3.7
			c-7.2,6.9-13.1,14.9-17.3,24c-2.1,4.4,4.5,8.4,6.6,3.9c4.5-9.4,8.6-18.9,12.1-28.7c0.6-1.7-0.7-4.1-2.5-4.4c-5-0.8-7.3,2.8-10,6.5
			c-3.7,5-6.9,10.4-9.5,16c2.4,0.7,4.8,1.3,7.3,2c0.4-4.4,3.1-9.1,4.8-13.2c1.7-4.2,3.3-8.4,5-12.6c1.1-2.6-2.1-5.7-4.7-4.7
			c-3.8,1.4-5.7,4.7-8.1,7.9c-2.8,3.5-5.5,7.1-8.2,10.7c2.3,1,4.5,1.9,6.8,2.9c3.9-10.6,7.8-21.3,11.8-31.9c0.9-2.4-2.3-4.7-4.3-3.3
			c-8.3,5.6-14.5,15.4-20.6,23.1c1.5,1.2,3,2.3,4.5,3.5c5.2-11.8,11.4-23.1,18.4-33.9C72.9,79.8,71.9,79,71.4,79.6L71.4,79.6z"/>
	</g>
</g>
<g>
	<g>
		<path class="st1" d="M84.6,150.6c-0.2-0.1-0.3-0.2-0.5-0.3c0.5,0.9,1.1,1.8,1.6,2.8c0-3,2.6-7.1,3.9-9.8c1.4-3,2.9-5.9,4.6-8.7
			c3.4-5.8,7.6-11.3,12-16.4c-2.1-1.2-4.2-2.5-6.3-3.7c-5.5,14.8-11.5,29.6-15.2,45c-1.1,4.4,5,5.8,6.6,1.8
			c1.9-4.7,4.5-9.3,7.1-13.7c1.2-2.1,2.5-4.1,3.8-6.1c0.7-1,3.4-6.2,4.6-6.2c-1-1.4-2.1-2.8-3.1-4.1c-5.2,13.4-11,26.7-15,40.5
			c-1.1,3.7,4.7,6.4,6.3,2.7c4-9,9-17.4,15.1-25.1c-2.1-0.9-4.2-1.7-6.3-2.6c0,5.3-2.4,10.2-4,15.1c-1.6,4.8-3,9.8-4.1,14.7
			c-1.2,5,5.7,6.6,7.6,2.1c1.7-4.1,3.3-8.2,5.1-12.2c1.3-2.9,2.5-6.8,5.2-8.8c-1.6-1.3-3.3-2.5-4.9-3.8c-3.1,9.2-6.3,18.3-10.3,27.1
			c2,0.9,4,1.7,6.1,2.6c6.4-15.7,15.4-30.2,24.3-44.6c4.4-7.2,8.8-14.4,13.4-21.5c4.7-7.3,10.3-14.4,13.8-22.3
			c1.4-3.2-2.2-6.4-5-3.9c-6.7,6.1-11.3,14.3-16.1,22c-4.6,7.4-9.1,14.9-13.6,22.5c-8.9,14.8-17.2,29.9-23.2,46.2
			c-1.5,4.1,4.8,5.7,6.4,1.8c3.7-9.3,7.4-18.5,10.6-27.9c1-3-2.5-4.9-4.9-3.8c-3.9,1.9-5.8,5.2-7.6,9c-2.4,5.2-4.8,10.4-6.9,15.7
			c2.5,0.7,5,1.4,7.6,2.1c1.2-5.6,2.7-11.1,4.5-16.5c1.7-5.1,3.6-10,3.5-15.4c-0.1-2.9-4.2-5.3-6.3-2.6
			c-6.7,8.5-12.1,17.7-16.3,27.6c2.2,0.6,4.5,1.2,6.7,1.8c3.8-13.9,9.4-27.2,14.6-40.6c0.8-2-1.2-4.2-3.1-4.1
			c-5.6,0.2-8.5,6.7-11.3,10.9c-4,6.1-7.2,12.5-10.6,19c2.1,0.9,4.2,1.8,6.3,2.7c4.9-15.1,10.1-30,15.9-44.8
			c1.4-3.6-3.8-6.3-6.3-3.7c-6.5,6.7-11.9,14.5-15.9,23c-1.9,4-3.4,8.1-4.7,12.4c-0.8,2.8-2,6.3,1.2,8C85,158,88.1,152.8,84.6,150.6
			L84.6,150.6z"/>
	</g>
</g>
<g>
	<g>
		<path class="st1" d="M149.8,91.9c-7.4,9.2-14.5,18.6-21.2,28.2c-6.9,9.8-14.5,20.1-19.5,31c2.2,0.6,4.5,1.2,6.7,1.8
			c-0.3-11.5,5-23.2,10-33.2c4.9-9.9,10.4-19.4,14.7-29.6c1-2.4-2.2-4.4-3.6-2.1c-6.1,10.3-12.4,20.4-17.6,31.1
			c-5.2,10.6-8.1,21.4-10.7,32.9c-0.9,4.1,4.3,6.2,6.6,2.8c6.6-9.7,11.8-20.7,18-30.7c6.2-10.1,12.7-20,19.5-29.7
			C154.2,92.5,151.2,90.2,149.8,91.9L149.8,91.9z"/>
	</g>
</g>
<g>
	<g>
		<path class="st1" d="M137.9,82.5c-4.9,8.7-10,17.3-15.1,25.9c-2.4,4-4.9,8-7.4,12c-1.4,2.1-2.8,4.2-4.2,6.2
			c-0.6,0.9-3.7,5.8-4.2,5.8c-1.6,0.1-2.9,1.9-1.9,3.3c0.1,0.2,0.2,0.3,0.3,0.5c0.6,1,1.7,1.4,2.9,1.2c3.6-0.8,5.5-5.5,7.2-8.3
			c3-4.8,5.6-9.7,8.3-14.7c5.4-10.3,10.7-20.5,16.3-30.6C140.6,82.3,138.6,81.1,137.9,82.5L137.9,82.5z"/>
	</g>
</g>
<g>
	<g>
		<path class="st1" d="M113.4,115.8c6.7-13.9,15.4-26.3,24.1-39c1.3-1.9-1.7-4.2-3.2-2.4c-10.2,11.8-17.3,26.1-23.1,40.5
			C110.8,116.1,112.9,117,113.4,115.8L113.4,115.8z"/>
	</g>
</g>
<g>
	<g>
		<path class="st1" d="M162.1,42.9c-5.1,8.8-9.6,17.8-14.4,26.7c-2.3,4.3-4.7,8.6-7.2,12.9c-2.5,4.2-5.6,8.4-7.2,13
			c2.6,0.4,5.3,0.7,7.9,1.1c0-0.8,0.1-1.5,0.2-2.3c0.2-2.1-2.7-3.7-4.4-2.5c-0.6,0.4-1.3,0.9-1.9,1.3c-5,3.3,1,10.5,4.9,6.3
			c3.4-3.6,5.5-8.3,7.8-12.6c2.5-4.6,4.9-9.2,7.3-13.9c4.5-9.1,8.6-18.3,11.6-28C167.5,42.1,163.5,40.5,162.1,42.9L162.1,42.9z"/>
	</g>
</g>
<g>
	<g>
		<path class="st1" d="M144.3,86.3c4.9-4.6,9-10,12.9-15.6c4.1-5.9,8.5-11.8,11.9-18.1c0.9-1.7-1.2-3.2-2.6-2
			c-4.9,4.4-8,10.4-11.1,16.1c-3.6,6.5-7.2,12.8-12.1,18.4C142.6,86,143.6,87,144.3,86.3L144.3,86.3z"/>
	</g>
</g>
<g>
	<g>
		<path class="st1" d="M169.8,47.5c-4.8,9.4-9.5,18.8-14.4,28.2c-4.7,9-10.7,17.9-14.1,27.5c-1.2,3.5,4,6.6,6.3,3.7
			c6.6-8.1,10.9-18.4,15.1-27.9c4.3-9.7,8.2-19.4,11.3-29.6C175,46.8,171,45.1,169.8,47.5L169.8,47.5z"/>
	</g>
</g>
<g>
	<g>
		<path class="st1" d="M168.4,61.5c-7.2,17.5-18.2,33.1-27.3,49.6c-9,16.3-17,33.5-22.8,51.2c-1.4,4.3,5.5,7.4,7.5,3.1
			c8.1-17.5,14.7-35.6,23.7-52.6c8.7-16.4,18.6-32.1,25.2-49.6C176.1,59.3,169.9,57.7,168.4,61.5L168.4,61.5z"/>
	</g>
</g>
<g>
	<g>
		<path class="st1" d="M153.2,29.3c-3.4,6.1-7.2,12-10.3,18.3c-1.5,3.2,2.6,7.1,5.2,4c4.8-5.6,8.2-12,11.5-18.5
			C161.9,28.8,155.6,25.1,153.2,29.3L153.2,29.3z"/>
	</g>
</g>
<g>
	<g>
		<path class="st1" d="M150.3,28.2c-3.9,5.3-7.9,10.5-12,15.7c-1.8,2.3,1.4,4.8,3.2,2.4c4-5.4,7.8-11,11.5-16.6
			C154.1,28,151.5,26.6,150.3,28.2L150.3,28.2z"/>
	</g>
</g>
<g>
	<g>
		<path class="st1" d="M141.6,25.1c-5.1,6.1-8,13.8-13.2,19.8c-2.7,3.1,1,9.1,4.8,6.2c6.9-5.3,9.2-13.3,14.6-19.9
			C151.3,27,145.3,20.8,141.6,25.1L141.6,25.1z"/>
	</g>
</g>
<g>
	<g>
		<path class="st1" d="M133.2,28.6c-5.3,7.7-10.5,15.4-14.4,23.9c-2.5,5.4,4.6,9.6,8,4.7c5.3-7.7,10-15.7,15.3-23.3
			C145.9,28.3,136.9,23.1,133.2,28.6L133.2,28.6z"/>
	</g>
</g>
<g>
	<g>
		<path class="st1" d="M109.5,134c1.4-9.5,7.4-18.3,12.6-26.2c5.2-8,10.8-15.8,15.5-24.1c2-3.4-2.7-7.2-5.5-4.3
			c-7.3,7.7-13.7,16.1-19.1,25.2c-5.2,8.7-10.3,18-11.1,28.3C101.5,137.3,108.8,138.4,109.5,134L109.5,134z"/>
	</g>
</g>
<g>
	<g>
		<path class="st1" d="M140.7,67.4c-14.2,17.3-28.9,34.2-42.2,52.2c-2.7,3.7,3.4,7.1,6.1,3.5c13.1-17.5,25.6-35.5,39.5-52.4
			C145.9,68.4,142.6,65.1,140.7,67.4L140.7,67.4z"/>
	</g>
</g>
<g>
	<g>
		<path class="st1" d="M102.9,56.4c4.7-10.4,16.5-20.1,26.6-25.2c12.1-6.1,24.6-3.5,34.7,5.2c9.2,7.9,7.6,22.9,4.4,33.4
			c-4,13.2-12.3,24.4-19,36.3c-4.3,7.7,6.5,13.4,11.5,6.7c10.4-13.8,19.3-29.9,22.3-47.1c2.7-15.5,0.7-31.4-13.2-40.7
			c-12.9-8.7-28.6-10.4-42.9-4.1C113.9,26.8,100,39,97.2,54C96.6,57.2,101.3,59.8,102.9,56.4L102.9,56.4z"/>
	</g>
</g>
<g>
	<g>
		<path class="st1" d="M103.6,56.7c-0.3-7.3-2.7-12.5-7.5-18c-4.6-5.3-10.5-9.7-16.8-12.7c-14.1-6.7-32.5-8.8-47.1-2.3
			C18.7,29.7,10.4,48.2,9,62.2C7.4,77.6,17.5,94.5,26.8,106c5.7,7.1,13.4,12.5,19.8,18.9c6.7,6.8,12.4,14.6,19.8,20.7
			c5,4.1,12.2-0.9,9.1-7c-7.7-15.3-21.2-26.5-33.3-38.1c-6-5.8-10.1-13.2-13.8-20.5C24.5,72.2,23,65,25.9,56.6
			c2.1-6.1,5.9-15.2,11.9-18.4c6.6-3.5,16.2-3.3,23.5-2.5c7.6,0.8,15.1,3.6,21.2,8.2C88.1,47.9,93,54,97.7,59.1
			C99.7,61.3,103.8,59.6,103.6,56.7L103.6,56.7z"/>
	</g>
</g>
<g>
	<g>
		<path class="st1" d="M27.2,99.1c2.8,11,9.5,19.1,17.1,27.3c4.4,4.7,9.3,8.9,13.7,13.5c4.7,4.9,9,10.5,14.2,15
			c1.5,1.3,4.2-0.5,2.9-2.2c-3.7-4.8-8.1-9-12.3-13.4c-4.3-4.6-8-9.6-12.1-14.3c-7.5-8.5-15.5-16.9-21.1-26.9
			C28.9,96.8,26.8,97.7,27.2,99.1L27.2,99.1z"/>
	</g>
</g>
<g>
	<g>
		<path class="st1" d="M21.1,78.3c5.8-6.5,11.8-12.8,18.2-18.8c5.9-5.6,13.4-10.6,18.2-17.3c2-2.8-1.8-5.5-4.3-4.3
			C45.9,41.4,39.6,48.7,34,54.3C27.9,60.5,22,67,16.5,73.7C13.8,76.9,18.3,81.5,21.1,78.3L21.1,78.3z"/>
	</g>
</g>
<g>
	<g>
		<path class="st1" d="M72.1,32.3c-3.9,5.1-7.8,10.1-11.8,15.2c-3.4,4.3-7.7,8.6-9.7,13.7c-0.9,2.1,2.2,4.6,4.1,3.1
			c4.4-3.4,7.3-8.6,10.6-13.1c3.8-5.1,7.6-10.3,11.5-15.4C78.7,33.2,74.1,29.7,72.1,32.3L72.1,32.3z"/>
	</g>
</g>
<g>
	<g>
		<path class="st1" d="M80,37.1c-1.4,5.1-5,9.6-8,13.9c-3.1,4.4-6.1,8.8-9.2,13.2c-1.8,2.6,2.3,4.9,4.2,2.5c3.8-5,7.7-10,11.1-15.3
			c2.7-4.1,6.4-8.6,6.5-13.7C84.7,35.1,80.8,34.6,80,37.1L80,37.1z"/>
	</g>
</g>
<g>
	<g>
		<path class="st1" d="M114.9,166.8c-0.3,1.1-0.6,2.2-1,3.2c-0.3,0.7,0.9,1.3,1.3,0.5c1.3-2.7,4.8-5.1,7.1-7.1
			c2.4-2.1,5.1-4,7.7-5.9c2.4-1.8,0.1-5.8-2.4-4c-2.8,2.1-5.3,4.4-7.5,7.1c-0.9,1.1-1.8,2.2-2.6,3.4c-1.2,1.8-2,4.1-3.4,5.7
			c0.4,0.2,0.8,0.5,1.2,0.7c0.3-1,0.7-2,1.2-3C117,166.3,115.2,165.6,114.9,166.8L114.9,166.8z"/>
	</g>
</g>
<g>
	<g>
		<path class="st1" d="M124,167.2c2.4-3.2,5.3-6.1,8.1-8.9c2-2-1-5-3.1-3.1c-3.3,2.9-6.1,6.3-8.6,10
			C118.9,167.4,122.4,169.3,124,167.2L124,167.2z"/>
	</g>
</g>
</svg>
