<?xml version="1.0" encoding="utf-8"?>
<!-- Generator: Adobe Illustrator 21.0.0, SVG Export Plug-In . SVG Version: 6.00 Build 0)  -->
<svg version="1.1" id="Lager_1" xmlns="http://www.w3.org/2000/svg" xmlns:xlink="http://www.w3.org/1999/xlink" x="0px" y="0px"
	 viewBox="0 0 200 200" style="enable-background:new 0 0 200 200;" xml:space="preserve">
<style type="text/css">
	.st0{fill:#E91E63;}
	.st1{fill:#FFFFFF;}
</style>
<g>
	<g>
		<path class="st0" d="M9,69.1c9-12.4,18.8-24.5,29.7-35.2c5.4-5.3,11.1-10.2,18-13.5c7.3-3.5,15.4-5.3,23.2-6.8
			c29.3-5.4,61.9-1.2,84,20.4c12.2,11.9,16.3,27.9,24.4,42.3c2.5,4.4,9.3,1.4,8.1-3.4C188.5,42.7,165.9,18.1,136,9
			c-16.2-4.9-33.5-5.5-50.2-3.2c-16.2,2.2-32,6.4-44.8,17C26.5,34.8,15.1,51,6,67.3C4.9,69.3,7.7,70.9,9,69.1L9,69.1z"/>
	</g>
</g>
<g>
	<g>
		<path class="st0" d="M3.3,69.7c2.1,5.2,6.6,9.3,10.7,13c4.8,4.3,10.1,7.9,15.7,11.1c11.4,6.5,23.8,11,36.6,13.7
			c27.4,5.8,57.9,6,84-5c5.9-2.5,11.6-5.4,17.1-8.6c6.3-3.8,13.3-7.5,18.9-12.2c2.5-2.1,7-7,3-10c-4-3.1-12.1,3.4-15.3,5.4
			c-12.2,7.4-24.6,14.9-38.4,18.9c-13.7,4-28.2,4.6-42.4,4.1c-15.8-0.5-31.5-3.2-46.4-8.7c-6.9-2.5-13.4-5.7-19.7-9.5
			c-5.9-3.6-14.7-8.3-18.1-14.5C7.4,64.1,1.9,66.3,3.3,69.7L3.3,69.7z"/>
	</g>
</g>
<g>
	<g>
		<path class="st0" d="M12.4,71.4c24-19.7,54.3-30.8,85.1-33.4c8.3-0.7,16.8-1.1,25.1,0.2c8,1.3,15.5,4.5,22.6,8.2
			c6.9,3.6,13.8,7.5,20.4,11.7c7,4.5,12.6,9.8,18.6,15.4c4.7,4.4,13.6-1.5,9.4-7.3c-10.2-13.8-28.4-22.6-43.6-29.8
			c-7.9-3.8-16-6.9-24.6-8.3c-9-1.4-18-1.1-27-0.2C64.8,31.3,32.4,43.6,6.6,65.6C2.5,69,8.3,74.7,12.4,71.4L12.4,71.4z"/>
	</g>
</g>
<g>
	<g>
		<path class="st0" d="M67.1,38.1c-5.9,6.1-11.2,13.2-12.9,21.7c-1.7,8.8,0.2,18.2,3.3,26.5c2.7,7.2,6.7,14.3,13.4,18.5
			c6.7,4.3,18.3,6.5,25.6,2.8c2.9-1.5,2.9-6.2,0-7.7C90.7,97,83.8,98.8,78,95.5c-5.3-3-8.3-8.9-10.2-14.4
			c-2.2-6.4-4.6-13.3-3.6-20.1c1.1-6.8,4.7-12.9,8.7-18.4C75.5,39.2,70,35.2,67.1,38.1L67.1,38.1z"/>
	</g>
</g>
<g>
	<g>
		<path class="st0" d="M125.6,38.3c4.3,12.2,10.3,23.2,7.3,36.6c-1.3,5.8-3.7,11.9-7.4,16.6c-3.9,4.9-9,6-14.3,8.7
			c-2.9,1.5-3.2,6.7,0,8.1c15.9,6.9,28.6-13.5,32.3-26.1c2.3-7.7,2.8-16.3,0.9-24.2c-2-8.3-7.1-15.6-10.8-23.2
			C131.5,30.5,123.9,33.6,125.6,38.3L125.6,38.3z"/>
	</g>
</g>
<g>
	<g>
		<path class="st0" d="M98.2,50.1C86,51,79.4,69.3,86.1,78.8c8.2,11.7,27.6,6.1,31.2-6.7c3.3-11.7-9.2-30.1-22.3-22.6
			c-5.4,3-10.1,9.8-9.9,16.1c0.2,6.2,4.5,13.6,10,16.7c12.7,7.1,26.1-10.8,17.2-21.6c-4-4.9-11.3-6.7-16.4-2.4
			C91.3,62,89,69.6,92.8,74.5c3.9,5,11.7,4.1,14.9-1.3c2.9-4.9,1.7-12.5-3.6-15.1c-12.8-6.3-18.4,20.7-3.3,19.4
			c5.9-0.5,13.3-6.9,13.9-13c0.7-6.9-6.6-11.7-12.8-12.2c-6.7-0.5-14.2,3.5-15.6,10.5c-1.7,8.3,5.6,13.6,12.8,15
			c5.6,1.1,9.7-6.8,4.1-9.7c-2.5-1.3-9-4.5-2.5-5.6c1.6-0.3,3.7-0.1,3.5,1.6c0,0.2-5.2,4.2-2.5,3.6c-2.4-2.2-3.5-2.4-3.2-0.7
			c2.4,2.2,3.9,2.2,4.4,0.2c1.4,1.4,1.3,2.5-0.1,4c-3.2,3.1-6.6-4.4-5.9-7.1c0.3-1.1,2.3-4,3.4-4.4c2-0.6,3.9,1.7,4.8,3.1
			c2.1,3.3,1.8,7.6-1.7,9.7c-3.6,2.2-8.6,1.4-9.4-3.2c-0.6-3.4,1.7-10.2,5.6-10.8C104.2,57.8,103.1,49.7,98.2,50.1L98.2,50.1z"/>
	</g>
</g>
<g>
	<g>
		<path class="st0" d="M26.2,100.4C21,114.1,11.4,125.5,7,139.6c-2.9,9.5-4.7,28.3,9.7,28.8c11.7,0.4,19-12.8,20.6-22.8
			c1.2-7.3,0.6-14.7,0-22.1c-0.5-7.2-0.8-14.6-2.8-21.5c-1.7-5.7-9.8-3.3-8.8,2.4c1.9,10.3,2.9,21.2,3,31.7c0,4.9-0.4,10-2.5,14.5
			c-1.3,3-5.8,10-9.8,7.8c-3.5-1.8-1.4-10.6-0.7-13.7c1.2-5.2,3.2-10.2,5.6-15c4.4-9,9.4-17.7,12.1-27.4C34.9,97.7,28,96,26.2,100.4
			L26.2,100.4z"/>
	</g>
</g>
<g>
	<g>
		<path class="st0" d="M25.8,115.7c-2.9,6-5.3,12.2-7.7,18.5c-2.2,5.9-5.2,12.5-5,18.9c0.1,3.7,3.5,6.5,7.2,5.5
			c6.1-1.6,7.7-10.6,8.6-15.9c1-5.8,2.4-13.1-2.2-17.7c-2.2-2.2-6.7-2.7-8.8,0c-5.3,6.8-15.6,25.7-4.6,32.1
			c12.8,7.4,18.9-17.2,19.9-25.1c0.7-5.5-7.5-8.5-11-4.6c-4.4,5-8.2,13-6.3,19.7c1.4,5.1,7.8,5.3,10.5,1.4c2.5-3.7,1.8-8.6,4.9-12
			c-3.6-2.1-7.2-4.2-10.8-6.3c-0.4,2.9-1,5.7-2,8.4c-0.5,1.4-1.1,2.7-1.8,4c-0.3,0.5-0.5,1-0.8,1.5c-1.8,2.4,0.2,3.6,6,3.7
			c1-1.8,0.7-5.2,1.4-7.3c1-3,2.6-5.5,4.4-8c-3.3,0.4-6.5,0.8-9.8,1.3c-1-0.9-0.4,1.7-0.5,2.9c-0.1,1.5-0.3,3-0.5,4.5
			c-0.5,2.7-1,6.4-2.3,8.8c1.1-0.9,2.3-1.8,3.4-2.6c-0.2,0.1-0.5,0.2-0.7,0.3c2.4,1.8,4.8,3.7,7.2,5.5c-0.6-5.6,2-11.8,3.4-17.2
			c1.5-5.8,3.3-11.5,4.6-17.4C33.4,114.6,27.7,111.7,25.8,115.7L25.8,115.7z"/>
	</g>
</g>
<g>
	<g>
		<path class="st0" d="M13.3,155.8c-1.2,2.2-0.9,4.8,0.8,6.6c0.8,0.9,2,0.8,3,0.4c2.5-1.1,3.3-4.4,2.1-6.7c-0.6-1.1-2.3-1.6-3.3-0.9
			c-1.1,0.8-2,1.7-2.4,3c-0.4,1.4-0.2,2.7,0.4,4c0.6,1.3,2.5,1.7,3.7,1c1.2-0.7,1.8-2.5,1-3.7c-0.1-0.1-0.1-0.2-0.2-0.3
			c0.1,0.4,0.2,0.4,0.1,0.1c0.1,1,0-0.5,0,0.1c0,0.2,0,0.2,0,0c0.1-0.3,0.1-0.2-0.1,0.1c0.1-0.1,0.1-0.2,0.2-0.3
			c-0.1,0.1-0.2,0.3-0.3,0.4c-1.1-0.3-2.2-0.6-3.3-0.9c-0.1-0.3-0.1-0.3-0.1-0.1c0-0.3-0.1-0.4,0-0.1c0-0.1,0-0.2,0.1-0.3
			c0,0.1-0.1,0.2-0.1,0.4c0.1-0.4,0.1-0.2-0.1,0.1c0.2-0.3,0.2-0.3,0-0.1c0.1-0.1,0.3-0.2,0.5-0.3c0.8,0.2,1.6,0.4,2.4,0.6
			c0.3,0.4,0-0.1-0.1-0.2c0.3,0.6,0-0.4,0-0.1c0,0.2,0,0.2,0-0.1c-0.1,0.3-0.1,0.3,0,0.1c0.2-0.6-0.1,0.1,0.1-0.3
			c0.7-1.1,0.3-2.8-0.9-3.5C15.6,154.3,14,154.6,13.3,155.8L13.3,155.8z"/>
	</g>
</g>
<g>
	<g>
		<path class="st0" d="M77.9,116.6c-5,9.4-10.5,19.9-11.3,30.7c-0.6,7.6,1.9,17.7,11.3,17.5c8.4-0.1,13-8.8,13.6-16.2
			c0.8-10.3-3.6-23.3-9.3-31.9c-1.4-2.1-5.3-0.9-4.4,1.8c2.3,6.9,5.2,13.4,7,20.5c1.4,5.6,2.8,22.5-7.8,20.4c-8.2-1.6-4.2-17-2.6-22
			c2.2-6.7,5.4-13.1,6.2-20.1C80.8,115.9,78.6,115.4,77.9,116.6L77.9,116.6z"/>
	</g>
</g>
<g>
	<g>
		<path class="st0" d="M77,120.4c-1.4,6.9-3.2,13.7-4.4,20.7c-1,5.7-2.1,11.3,0.4,16.8c1.7,3.8,6.7,2,7.9-1
			c2.9-7.3,7.4-20.8,1.8-27.6c-1.2-1.4-4-1.8-5.5-0.7c-4.9,3.6-6.2,9.6-6.4,15.4c-0.2,4.9,0.6,13.9,6.5,15.5
			c11.8,3.2,12.6-21.8,8.2-27.8c-2.4-3.4-7.7-3.1-9,1.2c-1.8,6-5,17.1,0.2,22.2c2.3,2.3,7.2,1.5,7.8-2.1c0.3-1.6,0.4-2.9,0.4-4.5
			c0-3.8-5.1-5.1-7-1.9c-0.4,0.6-0.9,1.2-1.3,1.8c2.5,0.3,4.9,0.6,7.4,0.9c-1.7-3.3,1-10.6,2-13.9c-3,0.4-6,0.8-9,1.2
			c1.9,2.7,1.6,11.7-1,14.1c1.2-0.5,2.4-1,3.6-1.5c-0.3,0-0.6,0.1-0.9,0.1c1.2,0.5,2.4,1,3.6,1.5c-2.6-2.6-2.3-12.6,0.4-15.2
			c-2.1,0-4.3,0-6.4,0c0.7,0.7-0.6,7.3-0.9,9c-0.6,3.4-1.7,6.7-2.9,9.9c2.6-0.3,5.3-0.7,7.9-1c-2.2-4.4,0-12.1,0.7-16.7
			c0.7-5.2,1.4-10.4,1.8-15.6C83.3,117.8,77.7,117.1,77,120.4L77,120.4z"/>
	</g>
</g>
<g>
	<g>
		<path class="st0" d="M120.6,122.8c-1.1,9.1-0.3,19,3.4,27.5c2.7,6.1,10.4,10.8,15.5,4.3c8.6-11-3.6-32.2-16.1-34.2
			c-1.6-0.3-2.5,1.7-1.1,2.7c4.3,3.1,8.3,4.8,11.1,9.6c2.3,4.1,3.8,9.2,3.7,14c0,0.8,0,2.7-0.5,3.4c-2.1,0.5-4.3,1-6.4,1.5
			c-0.5-0.7-1-1.4-1.5-2.1c-1.5-2.5-2.3-5.6-3.1-8.4c-1.6-6-2-12.1-1.5-18.2C124.3,120.5,120.9,120.6,120.6,122.8L120.6,122.8z"/>
	</g>
</g>
<g>
	<g>
		<path class="st0" d="M122,124.1c0.9,9.7,1.8,20.8,7.6,29c2.2,3.1,8.5,2.5,8-2.2c-0.5-4.3-1.1-8.6-2.1-12.8c-0.7-3.2-1.3-6.8-3.9-9
			c-2.6-2.2-7.4-0.9-7.2,3c0.3,6.7,1.7,15,7,19.6c1.9,1.7,5.4,1.8,6.7-0.9c2-4.1,0.6-8.6-0.4-12.9c-0.9-4.1-1.5-9.8-5.5-12.1
			c-2.4-1.4-6.2,0.3-5.9,3.4c0.3,3.2,1.1,5.8,3,8.5c2.3,3.3,8.9,1.4,7.1-3c-1.8-4.2-3.8-7.7-7.3-10.6c-2.7-2.2-6.7-0.2-5.9,3.4
			c0.6,2.9,1.5,5.1,3.6,7.1c2.3,2.1,5.4,0,4.9-2.9c-0.4-2.1-1.2-4.1-1.8-6.1c-2,1.1-3.9,2.3-5.9,3.4c2.5,2.1,4.2,4.4,4.8,7.7
			c2.4-1,4.7-2,7.1-3c-1-1.5-1.6-2.8-1.8-4.6c-2,1.1-3.9,2.3-5.9,3.4c0.7,0.4,1.4,5.6,1.6,6.5c0.4,1.7,1.9,5.8,0.9,7.4
			c2.2-0.3,4.5-0.6,6.7-0.9c-3.6-3.2-4.4-9.1-4.6-13.6c-2.4,1-4.8,2-7.2,3c1.5,1.3,1.9,5.3,2.2,7c0.6,2.9,0.9,5.8,1.1,8.8
			c2.7-0.7,5.3-1.4,8-2.2c-5.3-7.1-6.9-17-8.8-25.5C127.4,119.9,121.6,120.5,122,124.1L122,124.1z"/>
	</g>
</g>
<g>
	<g>
		<path class="st0" d="M161.6,112.9c0.4,8.6,2.8,16.7,7.3,24c3.2,5.2,8.1,12.7,15,9c5.7-3.1,7.2-9.6,2.3-14.1
			c-3.2-2.9-7.2-5-10.7-7.5c-4.1-2.9-9.9-5.2-12.9-9.3c-0.4-0.6-1.4-0.3-1.2,0.5c1.4,4.4,2.8,9,6.6,11.9c2.2,1.7,4.6,3,7,4.3
			c1.5,0.8,3,1.5,4.5,2.3c2.3,1.2,2.6,1.2,3.2,4.1c0.5,2.4-0.2,5.7-4.1,4.1c-1.6-0.6-2.9-2.9-3.8-4.2c-1.8-2.4-3.3-5-4.7-7.7
			c-3-5.5-5.2-11.7-6.9-17.8C163,111.7,161.5,111.9,161.6,112.9L161.6,112.9z"/>
	</g>
</g>
<g>
	<g>
		<path class="st0" d="M165.1,121.3c1.4,3.6,3,7.1,4.7,10.6c1.5,3,2.8,6.3,5.8,8.2c2.4,1.5,5.7-1,4.9-3.7c-0.9-2.9-2.3-5.3-4.6-7.2
			c-2.6-2.2-6.9-0.1-5.9,3.4c1.2,4.3,5.8,11.5,11.1,8.6c1.4-0.8,2.1-2.6,1.7-4.2c-0.8-2.8-2.3-4.8-4.7-6.4c-2-1.3-4.7,0.4-4.7,2.7
			c0,3.9,1.9,6.9,5.6,8.3c2.5,0.9,4.4-1.8,3.9-3.9c-0.5-2.7-2.1-4.2-4.6-5.1c-1.3-0.5-2.2,0.7-2.4,1.8c-0.3,2.9,1.6,9.5,5.8,7.7
			c3.8-1.6,2.1-6.7-1.1-7.6c-1.3-0.4-2.7,0.4-3,1.7c-0.7,2.6-0.2,4.8,1.2,7.1c2.2,3.4,8.5,1.2,6.9-2.9c-0.7-1.7-1.4-3.1-2.9-4.3
			c-2.7-2.2-6.4-0.8-6.7,2.8c-0.1,1-0.1,1.9-0.2,2.9c2.6-0.7,5.3-1.4,7.9-2.2c-1.3-2-2.8-3.9-4.2-5.8c-1.4-2.1-2.3-4-4.6-5.2
			c-3.1-1.6-6.3,0.4-6.6,3.8c-0.4,5.2,5.3,10.6,9.5,13.1c3.2,1.8,7.3-1.2,6.3-4.8c-0.1-0.6-0.2-1.2-0.3-1.8c-2,1.1-3.9,2.3-5.9,3.4
			c0.3,0.3,0.5,0.7,0.8,1c1.7-1.7,3.4-3.4,5.1-5.1c-0.9-0.7-1.5-1.5-1.9-2.5c-0.9,1.2-1.8,2.4-2.8,3.6c1.7-1.5,1.8-3.1,0.3-4.8
			c-1.1,0.4-2.1,0.9-3.2,1.3c0.2,0.4,0.3,0.8,0.5,1.2c1.5-0.4,2.9-0.8,4.4-1.2c-1-0.5-1.6-1.3-1.9-2.4c-1.8,0.7-3.5,1.5-5.3,2.2
			c0.8,0.6,1.2,1.5,1.2,2.5c0.9-1.2,1.8-2.4,2.7-3.6c0.9-0.3-1.2-2.7-1.5-3.7c-2,1.1-3.9,2.3-5.9,3.4c1.5,1.1,2.5,2.3,3.2,4
			c1.4-1.4,2.7-2.7,4.1-4.1c-2-0.8-4.2-4.8-5.5-6.4c-1.8-2.4-3.6-4.8-5.4-7.2C166.5,119.5,164.6,119.9,165.1,121.3L165.1,121.3z"/>
	</g>
</g>
<g>
	<g>
		<path class="st0" d="M159,109.3c-0.5,9,0.6,18.1,5.5,25.8c4.1,6.5,12.3,14.8,20.7,10.6c8.3-4.1,4.7-13.3-0.7-18.1
			c-3.5-3.1-7.2-6-10.9-9c-3.3-2.7-6.1-7.2-10.5-7.6c-1.1-0.1-2.3,0.9-2.6,2c-1.2,5.2,4.6,9.7,8.3,12.6c3.1,2.5,14.4,7.8,13.1,12.1
			c-2.1,6.8-12.2-8.4-13.5-11.1c-2.6-5.6-4.2-11.9-5.5-18C162.6,106.3,159.1,107,159,109.3L159,109.3z"/>
	</g>
</g>
<g>
	<g>
		<path class="st0" d="M162.4,109.9c1.5,1.8,2.8,3.8,4,5.7c0.5,0.7,1.5,0.1,1.1-0.7c-1.2-2.2-2.7-4-4.4-5.8
			C162.7,108.6,162,109.3,162.4,109.9L162.4,109.9z"/>
	</g>
</g>
<g>
	<g>
		<path class="st0" d="M161.4,108.3c2,3.6,4.1,7,6.6,10.2c1,1.2,2.9-0.3,2.1-1.6c-2.1-3.5-4.6-6.6-7.2-9.8
			C162.2,106.2,160.8,107.3,161.4,108.3L161.4,108.3z"/>
	</g>
</g>
<g>
	<g>
		<path class="st0" d="M164.1,112.3c0-1.3-0.2-2.7-0.7-3.9c-0.5-1.2-1.6-2.3-2.6-3.1c-0.4-0.3-1-0.1-1,0.4c-0.1,2.2,0.1,4.2,0.8,6.2
			c0.2,0.6,1.1,0.3,0.9-0.2c-0.6-1.9-0.9-3.9-0.6-5.8c-0.4,0-0.7,0.1-1.1,0.1c1.4,1.8,2.7,4.3,3.3,6.5
			C163.4,112.9,164.1,112.8,164.1,112.3L164.1,112.3z"/>
	</g>
</g>
<g>
	<g>
		<path class="st0" d="M160,105.9c-0.8,1.7-1.2,3.3-1,5.1c0.2,1.4,2.6,1.1,2.5-0.3c0-1.8-0.6-3.5-0.5-5.2c-0.6,0.2-1.1,0.3-1.7,0.5
			c0.8,1.4,1.4,3,2.2,4.4c0.8,1.5,1.7,2.8,2.7,4.1c0.8,1,2.9,0.5,2.3-1c-0.7-1.7-1.4-3.2-2.4-4.7c-1-1.4-2.3-2.6-3.4-4
			c-0.5-0.6-1.6-0.1-1.5,0.6c0.2,1.7-0.3,3.5-0.2,5.2c0.8-0.1,1.7-0.2,2.5-0.3c-0.4-1.5-1-2.9-1.2-4.4
			C160.3,105.8,160.1,105.8,160,105.9L160,105.9z"/>
	</g>
</g>
<g>
	<g>
		<path class="st0" d="M158.8,162.7c0,7.6-2.3,15.2,0.8,22.4c1.9,4.4,6.8,10.3,12.4,8.4c6.2-2.1,3.4-11.8,1.8-16
			c-2.1-5.5-4.7-14.3-10.3-17.3c-1.5-0.8-3,0.5-2.7,2.1c0.7,3.5,3.3,6.2,5,9.3c0.8,1.5,6.2,12.6,3.9,14.1c-2.5,1.6-4.7-6.6-5-8.7
			c-0.7-4.8-0.3-9.7-0.9-14.5C163.4,159.6,158.8,159.4,158.8,162.7L158.8,162.7z"/>
	</g>
</g>
<g>
	<g>
		<path class="st0" d="M162.2,167.2c0.4,3.7,1,7.3,1.8,10.9c0.6,3.1,1,6.1,3.7,8c2,1.4,4.5-0.5,4.5-2.6c0.1-3-0.4-5.9-1.1-8.8
			c-0.9-3.3-5.8-2.6-5.9,0.8c-0.1,3,0.2,6,0.6,9c2-0.6,4.1-1.1,6.1-1.7c-0.6-1.9-1.1-4-2.3-5.6c-1.9-2.6-5.7-0.4-4.4,2.5
			c0.3,0.6,0.5,1.2,0.8,1.9c0.6,1.4,3,1.9,3.3,0c0.2-0.8,0.3-1.7,0.5-2.5c-1.7-0.2-3.3-0.4-5-0.7c0,2,0.6,4,0.9,6
			c0.6,4,7,2.4,6.1-1.7c-0.5-2.4-0.8-4.8-0.8-7.3c-2,0.3-3.9,0.5-5.9,0.8c0.6,2.4,0.8,4.7,0.9,7.2c1.5-0.9,3-1.7,4.5-2.6
			c-1.5-0.8-2.4-5.5-2.9-7.1c-0.8-2.4-1.5-4.7-2.2-7.1C165.1,164.9,162,165.2,162.2,167.2L162.2,167.2z"/>
	</g>
</g>
<g>
	<g>
		<path class="st0" d="M102.9,151.6c-2.3,6.9-5.5,14.4-4.4,21.9c0.7,4.9,4.8,10.1,10.3,9.6c14.9-1.5,2.8-27.1-2.8-32
			c-0.8-0.7-2.1-0.2-2.1,0.9c0,3.6,1.5,6.7,2.9,9.9c1.1,2.5,2.3,5,3.2,7.6c0.5,1.4,0.9,2.8,1.1,4.3c0.5,2.7-0.5,3.9-3.1,3.4
			c-2.2,1.1-3.5,0.4-3.8-2.1c-0.3-1.2-0.4-2.5-0.3-3.7c0-2.3,0.6-4.5,1.1-6.7c0.8-4.2,1.3-8.2,1.4-12.4
			C106.3,150.1,103.5,149.8,102.9,151.6L102.9,151.6z"/>
	</g>
</g>
<g>
	<g>
		<path class="st0" d="M104.7,159.6c-0.8,5.8-0.8,11.4,0,17.2c0.2,1.4,2,2.8,3.4,2.6c7.2-0.8,4.7-12,1.7-16c-1.5-2-4.2-2.2-5.6,0
			c-2.5,3.8-2.6,8.9,0.1,12.6c1.3,1.7,4.6,2.5,5.7,0c1.7-3.9,1.2-7.7-1.5-11c-1.2-1.5-4-1-4.8,0.6c-1.7,3.5-2.2,7.1-0.9,10.8
			c1.3,3.5,5.9,2.7,6.3-0.9c0.2-1.8,0-3.4-0.2-5.2c-0.5-3.4-5.6-2.4-5.8,0.8c-0.1,1.5-0.3,3-0.4,4.4c2.1-0.3,4.2-0.6,6.3-0.9
			c-0.8-2-1.1-3.9,0-6c-1.8,0-3.5,0-5.3,0c0.9,1.3,1.3,2.5,0.6,4c1.7-0.2,3.4-0.4,5.1-0.7c-1.3-1.7-0.8-3.7,0.4-5.3
			c-1.9,0-3.8,0-5.6,0c0.8,1.2,1.2,2.4,1.3,3.8c0.1,0.7,0.4,2.8,0,3.5c0.7-0.5,1.4-1.1,2.1-1.6c-0.2,0-0.3,0.1-0.5,0.1
			c1.5,0.8,2.9,1.7,4.4,2.5c-1.2-4.8-1.6-9.6-1.4-14.6C110.2,157.3,105.1,156.4,104.7,159.6L104.7,159.6z"/>
	</g>
</g>
<g>
	<g>
		<path class="st0" d="M54.2,161.1c-5.3,3.8-8.9,11.3-11.3,17.2c-1.7,4.3-2.7,10.5,2.3,13.1c3.8,2.1,7.9-0.7,9.2-4.4
			c2.7-7.4-0.5-15.5,0.9-23c-0.9-0.2-1.7-0.5-2.6-0.7c-1.4,7.6-3.1,15.2-4.5,22.8c1.8,0.2,3.5,0.5,5.3,0.7c-0.3-4,0.5-8.8-1.2-12.4
			c-0.5-1.1-2.3-1.4-3.1-0.4c-2.6,3.3-3.8,7.3-4.5,11.4c-0.5,3.3,4.3,6.2,6,2.5c2-4.4,4.9-12.6,0.9-16.6c-1.6-1.6-4-1-5.1,0.7
			c-2.8,4.1-5.5,10.4-3.5,15.3c1.1,2.7,5.5,4.3,7.1,0.9c2.2-5,3.5-10,4.1-15.4c0.2-2.1-2.3-3.9-4.2-3.2c-1.8,0.7-2.7,1.4-3.2,3.3
			c-0.8,3.3,4.3,5.9,5.8,2.5c-0.3,0.2-0.6,0.4-0.8,0.6c-1.4-1.4-2.7-2.7-4.1-4.1c-0.8,4.4-2.2,8.4-4.2,12.4c2.2,0,4.5,0,6.7,0
			c-1.2-2.5,1.6-7.5,2.4-9.8c-1.8,0.5-3.6,1-5.5,1.4c1.2,1-1.8,8-2.3,9.4c2.2,0.3,4.3,0.6,6.5,0.9c0.1-3.7,1-7.2,1.4-10.9
			c-1.2,0.3-2.4,0.7-3.7,1c1.2,2.6-0.3,7-0.7,9.7c-0.6,3.8,4.9,4.6,5.3,0.7c0.8-7.7,1.2-15.4,1.9-23.2c0.1-1.5-2.4-1.9-2.7-0.4
			c-0.6,3.5-0.7,7-0.9,10.5c-0.1,1.8-0.3,3.6-0.4,5.4c-0.1,1.2-0.2,2.4-0.3,3.6c0.3,3.2-0.7,3.7-3.1,1.5c-3-0.4-3.5-1.7-1.5-4.1
			c0.5-1.1,1-2.2,1.5-3.3c0.8-1.6,1.7-3.2,2.6-4.9c1.8-3.2,4.1-6.6,4.8-10.2C55.4,161.4,54.8,160.7,54.2,161.1L54.2,161.1z"/>
	</g>
</g>
<g>
	<g>
		<path class="st0" d="M55.5,114.1c-5.8,2.8-8.5,14.8-7.2,20.6c1.3,6.4,8.5,3,8.5-2.3c0-1.6-2.4-2.4-3.1-0.9c-0.8,1.8-1,2.4-0.5-0.2
			c0.3-2,0.9-4,1.5-6c0.9-3.3,3.1-6.7,3-10.1C57.5,114.1,56.4,113.6,55.5,114.1L55.5,114.1z"/>
	</g>
</g>
<g>
	<g>
		<path class="st0" d="M54.9,115.4c-0.8,3.5-1.4,6.9-1.9,10.5c-0.2,1.3-0.4,2.6-0.6,3.9c-0.1,1-0.2,2.1-0.3,3.1
			c-0.5,1.3-0.3,1.6,0.6,0.8c0.7,0.3,1.5,0.6,2.2,0.9c-0.6-0.5-1.2-1.6-1.7-2.2c-1-1.2-2.9-0.7-3.7,0.5c-3.2,5.1,4.4,10.2,7.6,4.9
			c1.6-2.6,1.5-6.7,1.5-9.6c0.1-4.4-0.3-8.6-1.1-12.8C57.4,114,55.2,114.1,54.9,115.4L54.9,115.4z"/>
	</g>
</g>
<g>
	<g>
		<path class="st1" d="M95.9,60.8c-3,2.6-4.3,7.2-2.4,10.9c2.1,4,7.8,5.3,11.2,2.1c3.2-2.9,3.9-8.5,1.8-12.2
			c-2.1-3.8-7.1-6.2-11.2-4c-4.1,2.3-4.9,8-4.1,12.2c0.9,4.9,5.3,8.5,10.2,8.3c5.2-0.2,9.1-5.2,9.8-10.1c0.7-4.7-1.4-9.3-5.3-12
			c-4.7-3.2-10.9-2.8-13.9,2.4c-3,5.1-1.8,11.8,2.5,15.7c3.4,3.1,9.6,1.1,9.4-3.9c-0.1-1.8-0.4-3.6-0.5-5.4c0.1,0.9,0.1-1.2,0,0
			c-0.1,0.1-0.1,0.2-0.2,0.3c0.8-1.2,0.1-1.2-2,0c-2.4,0-3,0.3-1.7,0.9c-0.1,0-0.2-0.1-0.3-0.2c-0.2-0.2,0.3,0.9,0.1,0.2
			c-0.1-0.3,0.2,0.4,0,0.3c-0.1,0,0.5-0.3,0.4-0.3c0.7,0,2.5,0.6,2.7,0.3c0.1-0.1,0-1.4,0-1.6c0.2-2.1-1.2-1.6-4.2,1.5c0,0,0,0,0,0
			c0,0,0.1,0.9-0.1,0.8c-0.2,0.6,0.2,0.6,1.4-0.1c0.8-0.7,1.4-0.6,1.7,0.1c0.2-0.4,0.4-2.2,0.5-2.7C102.3,60.7,98.5,58.6,95.9,60.8
			L95.9,60.8z"/>
	</g>
</g>
</svg>
