<?xml version="1.0" encoding="utf-8"?>
<!-- Generator: Adobe Illustrator 21.0.0, SVG Export Plug-In . SVG Version: 6.00 Build 0)  -->
<svg version="1.1" xmlns="http://www.w3.org/2000/svg" xmlns:xlink="http://www.w3.org/1999/xlink" x="0px" y="0px"
	 viewBox="0 0 400 400" style="enable-background:new 0 0 400 400;" xml:space="preserve">
<style type="text/css">
	.st0{fill:#FFE300;}
	.st1{fill:#ED1E79;}
</style>
<g id="tunga">
	<g>
		<g>
			<path class="st0" d="M341.4,209.1c-0.2-7.1,2.2-13.3,9.6-15.1c4.8-1.2,9.5-2.3,14.1-4.4c8.9-4.1,15.2-11.2,15.7-21.3
				c0.1-1.9-2.9-1.9-3,0c-0.6,13.3-12.7,19.2-24.1,22c-4.5,1.1-8.6,1.7-11.6,5.6c-2.9,3.7-3.7,8.6-3.6,13.1
				C338.5,211,341.5,211,341.4,209.1L341.4,209.1z"/>
		</g>
	</g>
	<g>
		<g>
			<path class="st0" d="M367.5,188.4c2.4-1.3,3.2-3.6,3.5-6.3c0.4-4.5,0.1-9.2,0.2-13.7c0-1.9-3-1.9-3,0c0,2.9-0.1,5.9-0.1,8.8
				c0,2.5,0.7,7.1-2.1,8.5C364.3,186.7,365.8,189.3,367.5,188.4L367.5,188.4z"/>
		</g>
	</g>
</g>
<g id="orm">
	<path class="st1" d="M287.6,190.6c-1.8-0.2-3.5-0.3-5.1-0.4c-13-22.1-34.2-44.8-46.1-52.4c-16.9-10.9-63.5-24-83.8-15.2
		c-26.6,11.6-43,37.8-47.8,59.6c-4.8,21.8,16.4,71.6,32.1,82.9c29,20.9,44.5,19.2,67.9,15.1c14.9-2.6,30.5-8.2,42.7-13.5
		c-3,6.8-7.6,13.3-14.7,18.5c-12.2,9-29.1,9.6-50.5,8.5c-21.4-1.1-59.2-13.1-75.4-54.8c-11.8-30.4-9.8-57.1-3.1-79.9
		c6.6-22.8,36.7-39.1,42.2-44c5.6-4.9,25.6-8,40.4-8.9s38.7,5.1,52,16.2c13.3,11.1,29.2,31.2,39.7,41c10.6,9.8,17.7,14.3,28.1,17
		s25.4-0.3,40.8-10.5c4.7-3.1,31.4-43.8,25.1-39.4c-24.2,17-38.3,29.8-48.1,29.8c-9.8,0-26.2-18-26.2-18s-38.3-47.5-49.3-55.7
		c-11-8.2-44.7-23.9-65.2-24.7c-20.4-0.8-58,11.5-74,20.5c-16.1,9-39.7,33.1-49.7,54.9c-10,21.9-11.7,103,0.7,128.7
		c23.1,48.2,57.7,64.6,91,70.5c33.4,6,89.1,1.8,112-15.7c21.6-16.6,29.6-42.5,31.6-66.2c3.1-0.4,6.4-0.9,10-2
		c18-5.1,45.7-31.7,37-50.9C332.5,181.8,317.2,193.8,287.6,190.6z M327.6,193.7c2.1,0.7,3.9,1.9,5.6,3.3c1.7,1.3-0.4,3.9-2.1,2.6
		c-1.5-1.2-3-2.2-4.8-2.8C324.2,196.1,325.6,193.1,327.6,193.7z M281.2,231.8c-1.5,1.5-4.1-0.6-2.6-2.1
		c12.4-12.5,29.7-13.1,45.2-19.6c2-0.8,3.2,2.2,1.2,3.1C310.3,219.4,293,219.9,281.2,231.8z M308.6,223.6c-1.1,0-2.1,0.1-3.2,0.4
		c-0.9,0.3-1.8,0-2.1-0.9c-0.3-0.8,0.1-1.9,0.9-2.1c1.3-0.4,2.6-0.5,4-0.6c0.9,0,1.7,0.5,1.8,1.4
		C310.2,222.6,309.5,223.5,308.6,223.6z M251.4,298.2c1.7-1.3,3.7,1.4,2,2.7c-8.4,6.3-17.9,10.6-28.3,12.3c-2.1,0.4-2.5-2.9-0.4-3.3
		C234.5,308.3,243.4,304.2,251.4,298.2z M247,291c8-8.6,11.6-18.5,14.8-29.6c0.6-2,3.6-0.7,3,1.3c-3.3,11.4-7.1,21.6-15.3,30.4
		C248.1,294.6,245.5,292.6,247,291z M260,260.4c-1.8,1.2-3.7-1.5-2-2.7c4.4-2.8,8.7-5.7,13.5-7.8c1.9-0.9,3.1,2.2,1.2,3.1
		C268.3,255.1,264.1,257.7,260,260.4z M152.8,146c2-0.7,3.2,2.4,1.2,3.1c-10.2,3.4-16.5,11.6-21.4,20.7c-1,1.9-4,0.6-3-1.3
		C135,158.6,141.8,149.7,152.8,146z M143.1,145.6c2.6-3.1,5.4-6,9.2-7.6c2-0.8,3.2,2.3,1.2,3.1c-3.3,1.3-5.6,3.9-7.9,6.6
		C144.3,149.2,141.7,147.2,143.1,145.6z M182.5,247.1c2,0.8,0.7,3.8-1.3,3c-6.1-2.4-12.5-4.3-17-9.3c-1.4-1.6,1.2-3.5,2.7-2
		C170.9,243.3,177.1,245,182.5,247.1z M171,233c3.7,2.7,7.8,4.5,12.1,6.3c2,0.8,0.7,3.9-1.3,3c-4.5-1.9-8.9-3.9-12.8-6.7
		C167.2,234.3,169.3,231.8,171,233z M179.8,252.6c0.5,0.2,1,0.5,1.5,0.8c0.1,0.1,0.2,0.1,0.3,0.2c0,0,0,0,0,0
		c0.2,0.1,0.4,0.2,0.6,0.3c0.9,0.3,1.2,1.4,0.9,2.2c-0.3,0.9-1.3,1.1-2.2,0.9c-0.5-0.2-1-0.5-1.5-0.8c-0.1-0.1-0.2-0.1-0.3-0.2
		c0,0,0,0,0,0c-0.2-0.1-0.4-0.2-0.6-0.3c-0.9-0.3-1.2-1.4-0.9-2.2C177.9,252.6,178.9,252.4,179.8,252.6z M166.9,225.9
		c-10.9-8.6-13.1-19-11.3-30.4c1.8-11.4,8.7-24.8,20.2-26.9c11.5-2.1,28.1-2.6,41.8,10.7c8.2,7.9,18.6,23.2,25.7,34.2
		c-0.3,0.4-0.6,0.9-0.9,1.3c-7.2,10.7-34.1,16.5-43,19.6C191.3,237.2,182.4,238.1,166.9,225.9z M222,172.2c1.6,1.4-0.5,4-2.1,2.6
		c-7.1-6.5-15.4-12.7-25.5-12c-2.1,0.1-2.5-3.1-0.4-3.3C205,158.8,214.1,165.1,222,172.2z M204,154.7c5.6,0.9,10.9,2.5,15.7,5.5
		c1.8,1.1-0.3,3.7-2.1,2.6c-4.3-2.7-9.2-4-14.1-4.8C201.5,157.6,201.9,154.3,204,154.7z M200.8,147c-2.9-0.4-5.8-0.7-8.7-1
		c-1.7-0.1-6.6-1-7.6-0.4c-1.8,1.2-3.7-1.5-2-2.7c2-1.3,5.5-0.6,7.6-0.4c3.7,0.3,7.4,0.7,11,1.2C203.4,144,203,147.3,200.8,147z
		 M198.4,149.8c2.1,0.2,1.7,3.5-0.5,3.3c-10.9-0.9-20.9,0.2-30,6.6c-1.7,1.2-3.7-1.4-2-2.7C175.7,150.1,186.7,148.7,198.4,149.8z
		 M186.2,158.6c-0.9,0.3-1.8,0-2.1-0.9c-0.3-0.8,0.1-1.9,0.9-2.1c1.6-0.5,3.2-0.9,4.9-0.8c0.9,0,1.5,1.1,1.4,1.9
		c-0.1,1-1,1.4-1.9,1.4C188.3,158,187.3,158.3,186.2,158.6z M183.7,164.6c-1.6,0.3-3,1-4.6,1.3c-0.9,0.2-1.7-0.6-1.8-1.4
		c-0.1-0.9,0.6-1.7,1.4-1.8c1.6-0.3,3-1,4.6-1.3c0.9-0.2,1.7,0.6,1.8,1.4C185.3,163.7,184.6,164.4,183.7,164.6z M177,161.3
		c-1.7,1-3.5,1.9-5.4,2.6c-2,0.8-3.2-2.3-1.2-3.1c1.9-0.7,3.6-1.7,5.4-2.6c0.8-0.4,1.8,0.2,2.1,0.9
		C178.3,160.1,177.8,160.9,177,161.3z M164.1,169.6c-6.1,6.3-12.4,12.4-14.7,21.2c-0.5,2-3.8,1.6-3.3-0.5c2.5-9.4,8.7-16,15.4-22.8
		C163,166,165.6,168.1,164.1,169.6z M155.8,190.6c-0.8,1.7-1.4,3.4-1.9,5.2c-0.3,0.9-1.4,1.2-2.2,0.9c-0.9-0.4-1.1-1.3-0.9-2.2
		c0.5-1.8,1.1-3.5,1.9-5.2C153.7,187.4,156.7,188.7,155.8,190.6z M145,199.2c-0.8,0.1-1.8-0.5-1.8-1.4c0-1.3,0.2-2.5,0.6-3.8
		c0.3-0.9,1.4-1.2,2.2-0.9c0.9,0.4,1.1,1.3,0.9,2.2c-0.2,0.6-0.4,1.4-0.3,2.1C146.5,198.2,146,199.1,145,199.2z M154.7,169.7
		c-2.3,1.1-3.6,3.4-4.9,5.5c-1.1,1.8-3.7-0.3-2.6-2.1c1.7-2.6,3.4-5.1,6.3-6.5C155.4,165.7,156.6,168.8,154.7,169.7z M142.2,201.4
		c0,12.7,3.4,24.9,11,35.2c1.3,1.7-1.4,3.7-2.7,2c-7.9-10.7-11.6-23.5-11.6-36.7C138.9,199.7,142.2,199.3,142.2,201.4z M155.3,228.8
		c-4.1-8.3-8.7-17-7.5-26.5c0.3-2.1,3.5-1.7,3.3,0.5c-1.1,8.9,3.5,17.1,7.3,24.8C159.3,229.5,156.3,230.7,155.3,228.8z M225.1,166.8
		c0.6-0.7,1.6-0.8,2.3-0.3c1,0.7,2.1,1.2,3.3,1.6c0.9,0.3,1.2,1.4,0.9,2.2c-0.4,0.9-1.3,1.1-2.2,0.9c-1.5-0.5-2.8-1.2-4-2.1
		C224.6,168.6,224.6,167.5,225.1,166.8z M239.1,189.5c3.3,5.3,6.3,10.8,8.7,16.6c0.8,2-2.3,3.2-3.1,1.2c-2.2-5.5-5-10.8-8.2-15.8
		C235.3,189.6,238,187.7,239.1,189.5z M236.6,174.5c-1.7-1.3,0.4-3.9,2.1-2.6c2.5,2,4.7,4.4,6.3,7.2c1,1.8-1.6,3.8-2.7,2
		C240.9,178.5,238.9,176.4,236.6,174.5z M196,244.9c19-3.5,32.9-17.5,49.6-26c1.9-1,3.1,2.1,1.2,3.1c-17.1,8.7-31,22.6-50.4,26.2
		C194.3,248.6,193.9,245.3,196,244.9z M254.2,212.1c-1.7,0.9-3.2,2-4.8,3.2c-1.7,1.3-3.7-1.4-2-2.7c1.5-1.1,3.1-2.3,4.8-3.2
		c0.8-0.4,1.7-0.4,2.3,0.3C255.1,210.5,255,211.7,254.2,212.1z M254.6,216.3c0.5,0.7,0.4,1.9-0.3,2.3c-1.2,0.7-2.3,1.5-3.4,2.5
		c-0.7,0.6-1.8,0.3-2.3-0.3c-0.6-0.7-0.3-1.7,0.3-2.3c1.1-0.9,2.2-1.8,3.4-2.5C253.1,215.5,254,215.5,254.6,216.3z M225.2,240.7
		c8-6.8,15.4-14.4,26.1-16.4c2.1-0.4,2.5,2.9,0.4,3.3c-10,1.9-17.1,9.5-24.5,15.8C225.5,244.8,223.6,242.1,225.2,240.7z
		 M249.9,188.5c-1.4-1.6,1.3-3.6,2.7-2c3.6,4.3,7,8.8,10.4,13.4c1.3,1.7-1.4,3.7-2.7,2C257,197.3,253.5,192.8,249.9,188.5z
		 M252.5,182.9c-0.9,0.4-1.7-0.1-2.1-0.9c-0.8-1.5-1.7-3-2.5-4.5c-0.4-0.8,0.2-1.8,0.9-2.1c0.9-0.4,1.7,0.1,2.1,0.9l2.5,4.5
		C253.9,181.6,253.2,182.6,252.5,182.9z M254.9,205.3c0.9,1.9-2.2,3.1-3.1,1.2c-3-6.3-5.8-12.8-9.7-18.6c-1.2-1.7,1.5-3.7,2.7-2
		C248.9,192,251.7,198.7,254.9,205.3z M245.4,170.5c-2.1-2.3-3.9-4.7-6-6.9c-1.4-1.6,1.2-3.5,2.7-2c2.1,2.3,3.9,4.7,6,6.9
		C249.5,170.2,246.8,172.1,245.4,170.5z M238.3,182.4c1.5,1.5-1.2,3.5-2.7,2c-1.3-1.4-2.6-2.8-3.9-4.2c-1-1-2.4-2.5-3.9-2.5
		c-2.1,0-2.5-3.2-0.4-3.3C232.2,174.3,235.4,179.3,238.3,182.4z M233.9,168c-9.1-5.8-16.9-13.6-27.1-17.5c-2-0.8-0.7-3.8,1.3-3
		c10.5,4,18.5,12,27.9,18C237.8,166.6,235.7,169.1,233.9,168z M207.8,143.7c-10.9-7.4-24.2-8.4-36.3-3.4c-2,0.8-3.2-2.3-1.2-3.1
		c13.2-5.5,27.7-4.2,39.6,3.8C211.6,142.4,209.5,144.9,207.8,143.7z M173.5,143.2c2.1-0.2,2.5,3,0.4,3.3c-3.2,0.4-6.2,1.4-9.1,2.9
		c-1.9,1-3.1-2.1-1.2-3.1C166.7,144.7,170.1,143.6,173.5,143.2z M159.4,159.5c-10.6,6.2-15.8,16.6-19.3,27.9c-0.6,2-3.6,0.7-3-1.3
		c3.6-11.9,9.3-22.9,20.3-29.3C159.2,155.7,161.2,158.4,159.4,159.5z M140.2,196.7c-0.2,0.9-0.9,1.5-1.9,1.4c-0.8-0.1-1.6-1-1.4-1.9
		c0.4-1.4,0.5-2.9,0.9-4.3c0.2-0.9,0.9-1.5,1.9-1.4c0.8,0.1,1.6,1,1.4,1.9C140.7,193.8,140.6,195.3,140.2,196.7z M139.9,165.3
		c1.9-3.5,4.3-6.6,7.1-9.5c1.5-1.5,4.1,0.6,2.6,2.1c-2.6,2.6-4.9,5.5-6.6,8.7C141.9,168.5,138.9,167.2,139.9,165.3z M130.8,177.1
		c1.1-1.7,2.1-3.4,2.9-5.2c0.9-1.9,4-0.6,3,1.3c-1,2.1-2.1,4.1-3.4,6C132.2,181,129.6,178.9,130.8,177.1z M133.9,189.1
		c-1.1,8.6,2.2,16.8,3.4,25.2c0.3,2.1-3,2.5-3.3,0.4c-1.2-8.8-4.5-17.1-3.4-26.1C130.9,186.6,134.1,187,133.9,189.1z M135.4,220.2
		c2.2,3.6,4.3,7.3,6.8,10.8c1.2,1.7-1.4,3.7-2.7,2c-2.5-3.5-4.5-7.2-6.8-10.8C131.6,220.3,134.3,218.4,135.4,220.2z M141.9,243.7
		c3.6,3.9,7.7,7.3,12.1,10.2c1.8,1.2-0.3,3.7-2.1,2.6c-4.7-3.1-8.9-6.6-12.7-10.8C137.9,244,140.5,242.1,141.9,243.7z M154.8,247.3
		c-1.4-1.6,1.3-3.5,2.7-2c5.8,6.5,12.6,11.2,20.8,14.3c2,0.7,0.7,3.8-1.3,3C168.2,259.4,161,254.2,154.8,247.3z M177.4,264.2
		c2.2,0.3,4.4,0.9,6.4,1.9c1.9,0.9,0.6,4-1.3,3c-1.8-0.9-3.6-1.4-5.6-1.6C174.9,267.2,175.3,263.9,177.4,264.2z M188,253.5
		c-0.9,0.2-1.8,0-2.1-0.9c-0.3-0.8,0.1-1.9,0.9-2.1c1.7-0.5,3.3-0.5,5,0c0.9,0.2,1.5,0.9,1.4,1.9c-0.1,0.8-1,1.6-1.9,1.4
		C190.3,253.4,189.1,253.2,188,253.5z M189.2,256.6c2.1-0.1,4.3-0.3,6.4-0.8c0.9-0.2,1.8,0.6,1.8,1.4c0.1,1-0.6,1.6-1.4,1.8
		c-2.1,0.5-4.2,0.7-6.4,0.8C187.4,260,187,256.7,189.2,256.6z M190.5,265.6c4.5-1.1,8.7-3,13-4.6c2-0.7,3.2,2.4,1.2,3.1
		c-4.6,1.6-9.1,3.6-13.8,4.8C188.9,269.4,188.5,266.2,190.5,265.6z M200.5,255.7c-2.1,0-2.5-3.3-0.4-3.3c5.7,0,10.7-1.7,15.2-5.3
		c1.6-1.3,3.6,1.3,2,2.7C212.5,253.7,206.8,255.7,200.5,255.7z M212.6,262.3c2.5-1.8,5.4-2.9,8.5-3.2c2.1-0.2,2.5,3,0.4,3.3
		c-2.5,0.3-4.9,1.1-6.9,2.6C212.8,266.2,210.9,263.5,212.6,262.3z M222.6,256.1c-1.9,0.9-3.1-2.2-1.2-3.1
		c11.9-5.5,20.5-16.3,33-20.8c2-0.7,3.2,2.4,1.2,3.1C243.1,239.8,234.5,250.6,222.6,256.1z M258.7,225.7c-1.7,1.3-3.6-1.3-2-2.7
		c8.6-6.8,15.3-16.1,25.3-21c1.9-0.9,3.1,2.1,1.2,3.1C273.6,209.8,267,219,258.7,225.7z M292.6,212.4c-2,0.6-3.3-2.5-1.2-3.1
		c6.7-1.9,13.5-3.1,20-5.6c2-0.8,3.2,2.3,1.2,3.1C306.1,209.3,299.3,210.5,292.6,212.4z M306.1,212.7c-2.3,1.2-4.9,1.9-7.2,3.3
		c-1.8,1.2-3.7-1.5-2-2.7c2.5-1.6,5.3-2.4,7.9-3.7C306.7,208.6,308,211.7,306.1,212.7z M288.8,218.2c-2.7,0.7-5.3,1.9-7.3,3.8
		c-1.6,1.4-3.5-1.2-2-2.7c2.5-2.3,5.6-3.6,8.9-4.4c0.9-0.2,1.8,0.6,1.8,1.4C290.4,217.3,289.7,218,288.8,218.2z M292.7,204.6
		c-2.7,1.5-5.2,3.4-7.9,4.9c-1.8,1-3.8-1.6-2-2.7c2.7-1.5,5.2-3.4,7.9-4.9C292.6,201,294.6,203.6,292.7,204.6z M261.5,228.7
		c1.3-0.5,2.3-1.5,3.3-2.6c0.6-0.7,1.6-0.8,2.3-0.3c0.7,0.5,0.9,1.7,0.3,2.3c-1.4,1.5-2.7,2.8-4.6,3.6
		C260.7,232.5,259.5,229.5,261.5,228.7z M269.1,223c2.8-3.4,5.6-6.7,9.2-9.2c1.7-1.2,3.7,1.4,2,2.7c-3.4,2.4-6,5.4-8.6,8.6
		C270.3,226.7,267.8,224.6,269.1,223z M269.9,242.2c1.6-2.7,3.4-5,5.7-7.2c1.5-1.5,4.1,0.6,2.6,2.1c-2,1.9-3.8,4.1-5.2,6.4
		C271.8,245.3,268.8,244,269.9,242.2z M268.8,261.1c0.6-2,3.8-1.6,3.3,0.5c-2.2,7.8-3.1,15.9-7.3,23c-1.1,1.8-4.1,0.5-3-1.3
		C265.8,276.4,266.7,268.6,268.8,261.1z M273.8,252.1c1.9-1.6,3.5-3.4,4.8-5.5c1.2-1.8,3.7,0.3,2.6,2.1c-1.5,2.3-3.3,4.3-5.4,6.1
		C274.2,256.1,272.2,253.4,273.8,252.1z M282,236.2c1-1.9,2.3-3.6,4.1-5c1.7-1.3,3.6,1.4,2,2.7c-1.3,1-2.3,2.2-3,3.6
		C284,239.3,281,238,282,236.2z M281,240.5c-1,1.9-2.4,3.7-3.6,5.5c-1.2,1.7-3.8-0.3-2.6-2.1c1.1-1.6,2.3-3.1,3.2-4.7
		C279,237.4,282.1,238.7,281,240.5z M257.5,298.9c3.1-1.7,5.8-4,8.6-6.1c1.7-1.2,3.7,1.4,2,2.7c-2.9,2-5.6,4.3-8.6,6.1
		C257.7,302.6,255.7,299.9,257.5,298.9z M269.2,287.1c4.9-8.8,9.1-18.1,9.4-28.3c0.1-2.1,3.3-1.6,3.3,0.5
		c-0.3,10.5-4.6,20.2-9.6,29.2C271.2,290.2,268.2,288.9,269.2,287.1z M292.2,226.5c1.3-1.4,2.9-2.3,4.5-3.2c0.8-0.4,1.8,0.2,2.1,0.9
		c0.4,0.9-0.1,1.7-0.9,2.1c-1.1,0.6-2.3,1.3-3.2,2.2c-0.6,0.6-1.6,0.9-2.3,0.3C291.8,228.3,291.5,227.1,292.2,226.5z M317.2,210
		c-1.5,0.3-2.9,1-4.3,1.6c-2,0.8-3.2-2.3-1.2-3.1c1.7-0.6,3.3-1.4,5.1-1.8c0.9-0.2,1.7,0.6,1.8,1.4
		C318.7,209.1,318.1,209.9,317.2,210z M319.5,204.7c-0.8,0.4-1.9-0.2-2.1-0.9c-0.3-0.9,0.1-1.7,0.9-2.1c2.2-1.2,4.6-2,7-2.9
		c2-0.8,3.2,2.3,1.2,3.1C324.1,202.8,321.7,203.5,319.5,204.7z M322.8,197.9L299,203c-2.1,0.4-2.5-2.8-0.4-3.3l23.8-5.1
		C324.5,194.2,324.9,197.5,322.8,197.9z M306.4,194c1.9-0.7,3.8-1.4,5.8-1.6c2.1-0.2,2.5,3,0.4,3.3c-1.7,0.2-3.4,0.8-5,1.4
		C305.6,197.8,304.4,194.8,306.4,194z M293,195.4c2.1-1.2,4.3-2.3,6.6-3c2-0.6,3.2,2.4,1.2,3.1c-2.3,0.8-4.5,1.9-6.6,3
		c-0.8,0.4-1.9-0.2-2.1-0.9C291.7,196.7,292.2,195.9,293,195.4z M287.6,194.2c2.1-0.2,2.5,3.1,0.4,3.3c-12,0.9-20.7,10-27.6,19.1
		c-1.3,1.7-3.9-0.4-2.6-2.1C265.2,204.8,274.7,195.1,287.6,194.2z M264.7,173.2c5.1,5.1,10.3,10.5,12.8,17.4c0.7,2-2.3,3.2-3.1,1.2
		c-2.3-6.4-7.1-11.4-11.8-16.1C261.1,174.3,263.2,171.7,264.7,173.2z M256.9,167.4c0.4-0.9,1.3-1.1,2.2-0.9c1.3,0.4,2.3,1.4,3.2,2.4
		c0.6,0.7,0.3,1.8-0.3,2.3c-0.8,0.6-1.7,0.3-2.3-0.3c-0.3-0.4-0.5-0.6-0.9-0.9c-0.1-0.1-0.1-0.1-0.2-0.2c0,0,0,0-0.1,0
		c-0.2-0.1-0.4-0.2-0.7-0.3C257,169.3,256.6,168.1,256.9,167.4z M253.9,172c6.3,6.7,11.7,14.2,15.5,22.6c0.9,1.9-2.2,3.2-3.1,1.2
		c-3.7-8.2-9-15.4-15.1-21.9C249.8,172.4,252.5,170.5,253.9,172z M248.3,156c2.1,2.2,4.2,4.5,6,6.9c1.3,1.7-1.4,3.7-2.7,2
		c-1.9-2.4-3.9-4.7-6-6.9C244.2,156.4,246.9,154.5,248.3,156z M240.4,145.9c1.8,1.2,3.7,2.3,5.5,3.5c1.8,1.2-0.3,3.8-2.1,2.6
		c-1.8-1.2-3.7-2.3-5.5-3.5C236.5,147.3,238.6,144.7,240.4,145.9z M239.5,153.3c1.7,1.3-0.4,3.8-2.1,2.6c-3.7-2.8-7.5-5.4-11.7-7.3
		c-1.9-0.9-0.6-3.9,1.3-3C231.5,147.5,235.6,150.3,239.5,153.3z M223.5,135.9c3.5,1,7,2.1,10.4,3.6c1.9,0.9,0.6,3.9-1.3,3
		c-3.4-1.5-6.9-2.6-10.4-3.6C220.2,138.3,221.5,135.3,223.5,135.9z M214,142.9c5,2.2,9.1,5.6,13.3,9.1c1.6,1.4-0.4,4-2.1,2.6
		c-3.9-3.3-7.7-6.6-12.5-8.7C210.8,145.1,212.1,142,214,142.9z M192.5,129.2c7.5-0.2,14.6,1.3,21.4,4.4c1.9,0.9,0.6,3.9-1.3,3
		c-6.3-2.8-12.8-4.3-19.7-4.1C190.8,132.6,190.4,129.3,192.5,129.2z M181,125.3l5.2-0.2c2.1-0.1,2.5,3.2,0.4,3.3l-5.2,0.2
		C179.3,128.7,178.9,125.4,181,125.3z M172.1,132.5c-4.4,1.6-8.5,3.8-12.4,6.4c-1.8,1.2-3.7-1.5-2-2.7c4.2-2.7,8.5-5.1,13.2-6.8
		C172.8,128.7,174.1,131.8,172.1,132.5z M157.5,127c4.6-2.8,9.6-2.8,14.8-3.1c2.1-0.1,2.5,3.1,0.4,3.3c-4.5,0.3-9.2,0.1-13.2,2.5
		C157.6,130.8,155.7,128.1,157.5,127z M124.4,160.6c6.5-13.5,16.7-24.8,30.8-30.6c2-0.8,3.2,2.3,1.2,3.1
		c-13.3,5.4-22.8,16.1-29,28.8C126.5,163.8,123.5,162.5,124.4,160.6z M128.1,167.7c-0.9,1.7-1.7,3.3-2.6,5c-1,1.9-4,0.6-3-1.3
		c0.9-1.7,1.7-3.3,2.6-5C126,164.5,129.1,165.8,128.1,167.7z M119.8,159.5c0.3-0.9,1.4-1.2,2.2-0.9c0.9,0.4,1.1,1.3,0.9,2.2
		c-0.3,1.1-0.9,2-1.3,3.1c-0.3,0.9-1.4,1.2-2.2,0.9c-0.9-0.4-1.1-1.3-0.9-2.2C118.9,161.5,119.5,160.5,119.8,159.5z M115.5,169.5
		c1-1.9,4-0.6,3,1.3c-4.8,9.5-6,19.5-4.3,30c0.3,2.1-2.9,2.5-3.3,0.4C109.2,190.2,110.5,179.5,115.5,169.5z M112,212.6
		c-0.8,0.3-1.9-0.1-2.1-0.9c-0.5-2.1-1.1-4.1-1.6-6.2c-0.2-0.9,0-1.8,0.9-2.1c0.8-0.3,1.9,0.1,2.1,0.9c0.5,2.1,1.1,4.1,1.6,6.2
		C113.2,211.3,112.9,212.3,112,212.6z M123.3,236.6c-4.2-9.3-8.9-18.5-8-28.9c0.2-2.1,3.5-1.7,3.3,0.5c-0.9,9.8,3.9,18.6,7.8,27.2
		C127.2,237.3,124.1,238.6,123.3,236.6z M130.5,231.3c-8.6-16.1-9.8-34.1-8.7-52c0.1-2.1,3.4-1.7,3.3,0.5
		c-1.1,17.4,0.2,34.7,8.5,50.4C134.6,232,131.5,233.2,130.5,231.3z M155.6,267.3c-11.4-4-21.2-10.3-26.4-21.5
		c-0.9-1.9,2.2-3.1,3.1-1.2c4.8,10.5,14.1,16,24.6,19.7C158.9,265,157.6,268,155.6,267.3z M166.8,264c-1.3-1-2.6-2.2-4-3
		c-1.9-1-0.6-4,1.3-3c1.8,0.9,3.2,2.2,4.8,3.4C170.5,262.7,168.5,265.3,166.8,264z M187.8,276.2c-7.2-0.4-14.3-1.4-21.1-3.9
		c-2-0.7-0.7-3.7,1.3-3c6.6,2.4,13.3,3.2,20.3,3.6C190.4,273,189.9,276.3,187.8,276.2z M229.5,269.6c-10.3,3.4-20.3,7.3-31.1,8.9
		c-2.1,0.3-2.5-3-0.4-3.3c10.5-1.6,20.3-5.4,30.2-8.7C230.3,265.9,231.5,268.9,229.5,269.6z M233.1,252.8
		c11-8.7,24.8-12.5,36.3-20.4c1.8-1.2,3.7,1.5,2,2.7c-11.5,7.8-25.3,11.6-36.3,20.4C233.4,256.8,231.5,254.1,233.1,252.8z
		 M240.5,264.5c-1.8,1.2-3.7-1.5-2-2.7c9-5.9,17.6-12.6,27-17.9c1.8-1,3.8,1.6,2,2.7C258,251.9,249.5,258.6,240.5,264.5z
		 M233.8,293.7c7.6-5.6,13.5-12.3,17.3-21.1c0.9-1.9,3.9-0.6,3,1.3c-4,9.2-10.3,16.5-18.3,22.4C234.1,297.6,232.1,295,233.8,293.7z
		 M226.2,302.4c2.1-0.2,2.5,3.1,0.4,3.3c-2.4,0.2-4.8,0.6-7,1.7c-1.9,1-3.1-2.1-1.2-3.1C220.8,303.1,223.6,302.7,226.2,302.4z
		 M217,316.4l-5.7,1.8c-2,0.6-3.3-2.4-1.2-3.1l5.7-1.8C217.8,312.7,219,315.8,217,316.4z M212.4,296.7c3.6-0.2,7.1-0.8,10.5-1.9
		c2-0.6,3.3,2.4,1.2,3.1c-3.7,1.1-7.4,1.9-11.3,2.1C210.7,300,210.3,296.8,212.4,296.7z M181.6,303.6c9.8,0.6,19.6,0.1,29.3,0.1
		c2.1,0,2.5,3.3,0.4,3.3c-10.1,0.1-20.1,0.5-30.2-0.1C179,306.8,179.5,303.5,181.6,303.6z M120.3,271.5
		c13.1,9.8,24.3,21.9,39.2,29.1c1.9,0.9,0.6,4-1.3,3c-15.2-7.4-26.6-19.5-40-29.5C116.5,272.8,118.6,270.2,120.3,271.5z M137.4,298
		c-1.3-1.9-2.8-3.6-4.7-5c-1.7-1.2,0.3-3.8,2.1-2.6c2.1,1.5,3.8,3.5,5.3,5.6C141.3,297.7,138.6,299.7,137.4,298z M116.4,277.2
		c0.8-0.6,1.7-0.3,2.3,0.3c1.4,1.5,2.6,3.1,4,4.6c0.6,0.7,0.3,1.8-0.3,2.3c-0.8,0.6-1.7,0.3-2.3-0.3c-1.4-1.5-2.6-3.1-4-4.6
		C115.4,278.9,115.7,277.7,116.4,277.2z M112.4,286c6.9,8.7,12.2,17.8,22.2,23.3c1.8,1,0.6,4.1-1.3,3c-10.6-5.9-16.2-15.1-23.5-24.4
		C108.4,286.3,111.1,284.4,112.4,286z M108.6,281.1c-7.1-4-12.3-9.8-16.6-16.6c-1.1-1.8,1.5-3.8,2.7-2c4,6.3,8.7,11.9,15.3,15.6
		C111.7,279.1,110.4,282.2,108.6,281.1z M88.2,260.8c1.9,11.6,9.9,19.9,18.7,26.9c1.7,1.3-0.4,3.9-2.1,2.6
		c-9.6-7.6-17.9-16.6-20-29.1C84.6,259.1,87.9,258.7,88.2,260.8z M89.7,249c0.8-0.1,1.8,0.5,1.8,1.4c0,0.1,0,0.3,0,0.4
		c0,0,0,0.2,0,0.2c0.1,0.2,0.1,0.4,0.2,0.6c0.2,0.5,0.4,0.9,0.7,1.3c0.4,0.8-0.2,1.8-0.9,2.1c-0.9,0.4-1.7-0.1-2.1-0.9
		c-0.6-1.1-1.1-2.2-1.1-3.4C88.3,250,88.8,249.2,89.7,249z M110.6,271.1c-0.7,0.5-1.9,0.4-2.3-0.3c-1.1-2.1-2.5-4-4-5.8
		c-0.6-0.7-0.3-1.8,0.3-2.3c0.8-0.6,1.7-0.3,2.3,0.3c1.6,1.7,2.9,3.7,4,5.8C111.4,269.6,111.4,270.5,110.6,271.1z M102.4,238.7
		c2.5,7.7,6.4,14.8,10.2,21.9c1,1.9-2.1,3.1-3.1,1.2c-3.9-7.1-7.7-14.2-10.2-21.9C98.7,238,101.8,236.7,102.4,238.7z M97.1,215.8
		c0.2,2.2,0.3,4.4,0.1,6.6c-0.2,2.1-3.5,1.7-3.3-0.5c0.2-1.9,0.1-3.8-0.1-5.7C93.6,214.1,96.9,213.7,97.1,215.8z M91.6,228.7
		c2.5,9.4,5,18.7,8.5,27.7c0.8,2-2.3,3.2-3.1,1.2c-3.5-9-6.1-18.3-8.5-27.7C88,227.9,91.1,226.7,91.6,228.7z M69.1,167.4
		c0,2.1-3.3,1.6-3.3-0.5c0.1-8.4,0.5-16.7,3.2-24.7c0.7-2,3.7-0.7,3,1.3C69.5,151.2,69.2,159.3,69.1,167.4z M132.9,97.5
		c1.8-1.1,3.8,1.5,2,2.7c-9.1,5.7-18.6,11.3-26.9,18.2c-9,7.5-15.8,16.7-21,27.2c-0.9,1.9-4,0.6-3-1.3c5-10.1,11.4-19.1,19.8-26.7
		C112.6,109.8,122.9,103.8,132.9,97.5z M112,98.3c7.7-5.1,15.7-9.3,24.5-12.1c2-0.6,3.2,2.4,1.2,3.1C129.2,92,121.4,96,114,101
		C112.2,102.1,110.2,99.5,112,98.3z M128.3,110.1c-1.8,2.1-3.7,4.2-5.8,6c-1.6,1.4-3.6-1.3-2-2.7c1.9-1.6,3.6-3.4,5.2-5.4
		c0.4-0.5,1-0.7,1.6-0.6c0.1,0,0.3,0,0.4,0.1c0.8,0.2,1.1,0.8,1,1.4C128.7,109.3,128.6,109.7,128.3,110.1z M87.9,217.9
		c0.5,2-2.5,3.3-3.1,1.2c-3.8-14.5,0.1-27.4,4.2-41.3c0.6-2,3.6-0.7,3,1.3C88.3,192.1,84.3,204.3,87.9,217.9z M81.2,220.1
		c-0.8,0.3-1.9-0.1-2.1-0.9c-0.5-1.8-0.9-3.7-2-5.2c-1.2-1.7,1.4-3.7,2.7-2c1.3,1.8,1.8,3.9,2.4,6C82.4,218.8,82.1,219.7,81.2,220.1
		z M94.5,165c-0.3,2.1-3.6,1.6-3.3-0.5c2.4-16.3,8-32.2,21.4-42.6c1.7-1.3,3.6,1.3,2,2.7C101.9,134.5,96.8,149.7,94.5,165z
		 M83.4,175.6c-0.3,2.1-3.5,1.7-3.3-0.5c1-8.1-0.1-16.5,3.6-24.1c0.9-1.9,4-0.6,3,1.3C83.2,159.6,84.3,167.8,83.4,175.6z
		 M80.5,182.8c-0.6,2.2-1,4.5-1.2,6.8c-0.3,2.1-3.5,1.7-3.3-0.5c0.3-2.6,0.8-5.1,1.5-7.7C78,179.5,81.1,180.8,80.5,182.8z
		 M90.8,143.7c1.2-2.8,2.4-5.7,4-8.4c1-1.8,4.1-0.5,3,1.3c-1.5,2.7-2.7,5.5-4,8.4C93,147,89.9,145.7,90.8,143.7z M74.3,171.2
		c-0.5,7-2.8,13.7-3.7,20.7c-0.3,2.1-3.6,1.7-3.3-0.5c1-7,3.2-13.7,3.7-20.7C71.2,168.6,74.5,169.1,74.3,171.2z M83,133.8
		c1-1.9,2.2-3.7,3.2-5.6c0.9-1.9,4-0.6,3,1.3c-1,1.9-2.2,3.7-3.2,5.6C85.1,137,82,135.7,83,133.8z M94.9,119.7
		c1.3-1.7,2.8-3.2,4.1-4.9c1.3-1.7,3.9,0.4,2.6,2.1c-1.3,1.7-2.8,3.2-4.1,4.9C96.1,123.4,93.5,121.3,94.9,119.7z M105.8,107.2
		c-9.3,5.7-16.7,13.2-22.9,22.2c-1.2,1.8-3.8-0.3-2.6-2.1c6.3-9.2,13.9-16.9,23.5-22.8C105.7,103.4,107.7,106.1,105.8,107.2z
		 M78.4,138.2c1.1-1.8,3.7,0.3,2.6,2.1c-3.9,6.2-5.5,13.3-7.5,20.3c-0.6,2-3.6,0.7-3-1.3C72.5,151.9,74.3,144.7,78.4,138.2z
		 M64.5,194.8c0.8,8.9,1.4,17.9,3.1,26.7c0.4,2.1-2.9,2.5-3.3,0.4c-1.8-8.8-2.3-17.8-3.1-26.7C61,193.1,64.3,192.7,64.5,194.8z
		 M74.2,197.4c0.2-0.9,0.9-1.6,1.9-1.4c0.8,0.1,1.6,1,1.4,1.9c-0.5,1.9-0.7,3.8-0.6,5.7c0.1,2.1-3.2,2.5-3.3,0.4
		C73.5,201.8,73.6,199.6,74.2,197.4z M74.7,212.7c1.3,11.5,6.3,21.7,11.7,31.7c1,1.9-2.1,3.1-3.1,1.2c-5.6-10.3-10.6-20.7-11.9-32.5
		C71.2,211,74.5,210.6,74.7,212.7z M69.4,230.3c1.8,5.8,3,11.8,5.2,17.6c0.8,2-2.3,3.2-3.1,1.2c-2.2-5.7-3.4-11.7-5.2-17.6
		C65.7,229.5,68.7,228.2,69.4,230.3z M67.2,248.3c1.1,6.4,4.4,12,7.2,17.8c0.9,1.9-2.1,3.1-3.1,1.2c-2.9-6.1-6.3-11.9-7.4-18.6
		C63.6,246.6,66.8,246.2,67.2,248.3z M74.8,258.8c-0.7-1.2-1.3-2.4-2-3.6c-0.4-0.8,0.2-1.8,0.9-2.1c0.9-0.4,1.7,0.1,2.1,0.9
		c0.7,1.2,1.3,2.4,2,3.6c0.4,0.8-0.2,1.8-0.9,2.1C76,260.1,75.2,259.6,74.8,258.8z M79,250.7c-0.4-0.8,0.2-1.9,0.9-2.1
		c0.9-0.3,1.7,0.1,2.1,0.9c1.2,2.2,2.3,4.4,3.2,6.7c0.8,2-2.3,3.2-3.1,1.2C81.4,255,80.2,252.8,79,250.7z M84.3,232.5
		c-0.6-1.6-1.4-3.2-2-4.8c-0.8-2,2.3-3.2,3.1-1.2c0.6,1.6,1.4,3.2,2,4.8C88.2,233.3,85.1,234.5,84.3,232.5z M92.9,210.7
		c0.2,0.9-0.6,1.8-1.4,1.8c-1,0.1-1.6-0.6-1.8-1.4c-0.5-2.1-0.7-4.2-0.6-6.3c0.2-2.1,3.4-1.7,3.3,0.5
		C92.1,207.1,92.4,208.9,92.9,210.7z M94.6,190.7c-0.2,2.2-0.2,4.5-0.4,6.7c-0.2,2.1-3.5,1.7-3.3-0.5c0.2-2.2,0.2-4.5,0.4-6.7
		C91.6,188.1,94.9,188.6,94.6,190.7z M119.8,129.4c-2.9,2.4-5.5,5.1-7.8,8c-1.3,1.7-3.9-0.4-2.6-2.1c2.5-3.2,5.4-6,8.5-8.6
		C119.5,125.4,121.4,128,119.8,129.4z M146.3,112.2c-3,1.4-5.9,3-8.5,5.2c-1.6,1.4-3.6-1.3-2-2.7c2.7-2.4,5.9-4.1,9.2-5.6
		C147,108.3,148.2,111.3,146.3,112.2z M154.9,101.2c-11.1,4.3-22.6,10.5-29.5,20.5c-1.2,1.8-3.8-0.3-2.6-2.1
		c7.2-10.5,19.3-17,30.9-21.5C155.6,97.3,156.8,100.4,154.9,101.2z M140,93.9c2.3-1.3,4.6-2.5,7.1-3.3c2-0.7,3.2,2.4,1.2,3.1
		c-2.5,0.8-4.8,2-7.1,3.3c-0.8,0.4-1.9-0.2-2.1-0.9C138.7,95.1,139.2,94.3,140,93.9z M182.7,83.9c2.1,0,1.6,3.3-0.5,3.3
		c-8.3-0.1-16.4,1.4-24.1,4.7c-2,0.8-3.2-2.2-1.2-3.1C165.2,85.3,173.7,83.8,182.7,83.9z M173.5,79.6c2-0.7,3.9-1,6-0.9
		c2.1,0.2,1.7,3.4-0.5,3.3c-1.5-0.1-2.9,0.2-4.4,0.7C172.8,83.4,171.5,80.4,173.5,79.6z M183.2,88.3c2.1-0.2,2.5,3,0.4,3.3
		c-3.9,0.4-7.6,1.5-11.4,2.4c-2.1,0.5-2.5-2.8-0.4-3.3C175.6,89.9,179.3,88.8,183.2,88.3z M165,95.1c-1.5,0.6-2.9,1.3-4.2,2.3
		c-1.7,1.3-3.7-1.4-2-2.7c1.5-1.1,3.2-2,4.9-2.7C165.8,91.3,167,94.4,165,95.1z M160,108.2c-1.5,0-3,0.6-4.4,0.9
		c-2.1,0.4-2.5-2.9-0.4-3.3c1.8-0.3,3.4-0.9,5.3-0.9c0.9,0,1.5,1.1,1.4,1.9C161.8,107.7,160.9,108.2,160,108.2z M202.6,101.7
		c-12.8-3.5-25.2-2.5-38,0.2c-2.1,0.4-2.5-2.8-0.4-3.3c13.1-2.8,25.9-3.8,38.9-0.2C205.1,99,204.6,102.2,202.6,101.7z M195.2,90.3
		c2.7-0.1,5.3,0,7.9,0.6c2,0.5,1.6,3.8-0.5,3.3c-2.3-0.6-4.6-0.7-7-0.6C193.5,93.7,193.1,90.4,195.2,90.3z M207.6,86.5
		c-4.9-0.9-9.8-2.2-14.8-1c-2.1,0.5-2.4-2.8-0.4-3.3c5.2-1.3,10.4,0,15.6,1C210.1,83.6,209.7,86.9,207.6,86.5z M212.9,87.7
		c0.4-0.9,1.3-1.1,2.2-0.9l6,1.7c0.9,0.2,1.2,1.4,0.9,2.2c-0.4,0.9-1.3,1.1-2.2,0.9l-6-1.7C212.9,89.6,212.6,88.4,212.9,87.7z
		 M214.9,92.7c11.4,3.4,22.5,7.3,32.6,13.6c1.8,1.1-0.3,3.7-2.1,2.6c-9.8-6.2-20.8-9.9-31.8-13.2C211.6,95.1,212.9,92.1,214.9,92.7z
		 M238.3,95.1c2.2,0.7,4.1,2,6,3.4c1.7,1.3-0.4,3.9-2.1,2.6c-1.6-1.2-3.2-2.3-5.2-2.9C235,97.5,236.3,94.5,238.3,95.1z M252.5,114.5
		c1.9,0.9,0.6,3.9-1.3,3c-2.8-1.3-4.8-3.6-7.3-5.3c-1.8-1.2,0.3-3.7,2.1-2.6C248.2,111.2,250,113.4,252.5,114.5z M216.4,105.8
		c-1.3-1-2.6-1.7-4.3-1.9c-2.1-0.2-1.7-3.5,0.5-3.3c2.2,0.3,4.1,1.3,5.9,2.6C220.1,104.5,218,107,216.4,105.8z M253,130.9
		c-7.1-8.5-14.6-16.5-24.2-22.2c-1.8-1.1-0.5-4.1,1.3-3c10.2,6,18,14.3,25.6,23.3C257,130.6,254.3,132.5,253,130.9z M260.3,119.8
		c3.4,9.9,8.9,18.6,16.1,26.2c1.5,1.5-1.2,3.5-2.7,2c-7.4-7.7-13.1-16.8-16.5-26.9C256.6,119,259.6,117.7,260.3,119.8z M262.6,143.8
		c-1.3-1.9-2.7-3.8-4-5.8c-1.2-1.7,1.4-3.7,2.7-2c1.3,1.9,2.7,3.8,4,5.8C266.4,143.6,263.8,145.6,262.6,143.8z M277.4,161
		c-1.6-2.8-3.7-4.9-6.2-6.8c-1.7-1.2,0.3-3.8,2.1-2.6c2.8,2,5.2,4.4,6.8,7.4C281.1,160.8,278.5,162.8,277.4,161z M282.4,150.9
		c2,1.7,4.2,3.2,6.2,4.9c1.6,1.3-0.4,3.9-2.1,2.6c-2-1.7-4.2-3.2-6.2-4.9C278.7,152.1,280.8,149.5,282.4,150.9z M296.6,172.6
		c-4.5-2-8.8-4.5-12.5-7.8c-1.6-1.4,0.5-4,2.1-2.6c3.5,3.1,7.5,5.4,11.7,7.3C299.9,170.5,298.6,173.5,296.6,172.6z M293.8,163.1
		c-1.6-1.4,0.5-4,2.1-2.6c3.6,3.3,7.6,6,12.3,7.5c2,0.6,0.7,3.7-1.3,3C301.9,169.5,297.6,166.6,293.8,163.1z M330.8,174.5
		c-0.5,0.5-0.9,0.8-1.5,1.1c-0.3,0.2-0.7,0.3-1,0.4c-0.8,0.4-1.8-0.2-2.1-0.9c-0.4-0.9,0.1-1.7,0.9-2.1c0.2-0.1,0.5-0.2,0.7-0.3
		c0,0,0.3-0.1,0.3-0.1c0.1-0.1,0.3-0.2,0.1,0c0.7-0.7,1.5-0.8,2.3-0.3C331.2,172.6,331.4,173.9,330.8,174.5z M346.3,164.9
		c-2.4,1.6-4.6,3.4-7.1,4.8c-1.8,1-3.8-1.6-2-2.7c2.5-1.4,4.8-3.2,7.1-4.8C346.1,161,348.1,163.7,346.3,164.9z M353.8,158.3
		c-0.6,0.7-1.1,1.5-1.8,2.2c-0.6,0.7-1.6,0.8-2.3,0.3c-0.7-0.5-0.8-1.7-0.3-2.3c0.6-0.7,1.1-1.5,1.8-2.2c0.6-0.7,1.6-0.8,2.3-0.3
		C354.2,156.5,354.4,157.6,353.8,158.3z M359,143.4c1.6-1.4,3.6,1.3,2,2.7c-12.5,10.4-23.7,21.8-39.6,26.6c-2,0.6-3.3-2.4-1.2-3.1
		C335.8,164.8,346.8,153.6,359,143.4z M318.3,163.5c1.1-0.5,2.4-0.2,3.5-0.3c0.9-0.1,1.7,0.6,1.8,1.4c0.1,0.9-0.6,1.7-1.4,1.8
		c-0.5,0.1-1.1,0.1-1.6,0.1c-0.3,0-0.5,0-0.8,0c-0.1,0-0.2,0-0.3,0c-0.8,0.4-1.8-0.1-2.1-0.9C317.1,164.8,317.5,163.9,318.3,163.5z
		 M322,174.5c2.1-0.4,2.5,2.9,0.4,3.3c-5.1,0.9-10.1,1.1-15-0.8c-2-0.8-0.7-3.8,1.3-3C313.1,175.6,317.5,175.2,322,174.5z
		 M303.2,155.2c2.8,2.5,5.8,4.6,9,6.6c1.8,1.1-0.3,3.7-2.1,2.6c-3.2-2-6.2-4.1-9-6.6C299.5,156.4,301.6,153.8,303.2,155.2z
		 M297.8,146.6c1.6,1.2,3.1,2.4,4.7,3.7c1.7,1.3-0.4,3.9-2.1,2.6c-1.6-1.2-3.1-2.4-4.7-3.7C294.1,147.9,296.2,145.3,297.8,146.6z
		 M290.5,154.7c-14-11.1-20.5-27.7-31.3-41.4c-1.3-1.7,1.3-3.6,2.7-2c10.5,13.5,17,30,30.7,40.8C294.3,153.4,292.2,156,290.5,154.7z
		 M284.2,130.2c1.9,4.7,5.4,8.2,8.1,12.4c1.2,1.8-1.5,3.7-2.7,2c-2.9-4.4-6.6-8.2-8.5-13.1C280.4,129.4,283.4,128.2,284.2,130.2z
		 M262.3,104.4c3.3,1.5,4.8,4.7,7.1,7.4c1.4,1.6-1.3,3.6-2.7,2c-1.8-2.1-3.1-5.1-5.7-6.3C259.1,106.6,260.4,103.5,262.3,104.4z
		 M255.6,111.7c-0.8,0.6-1.7,0.3-2.3-0.3c-0.7-0.9-1.6-1.7-2.3-2.6c-0.6-0.7-0.3-1.8,0.3-2.3c0.8-0.6,1.7-0.3,2.3,0.3
		c0.7,0.9,1.6,1.7,2.3,2.6C256.5,110.1,256.3,111.2,255.6,111.7z M255.8,101.3c1.5,1.5-0.6,4.1-2.1,2.6
		c-6.6-6.6-16.4-14.4-26.3-13.4c-2.1,0.2-2.5-3.1-0.4-3.3C238,86.1,248.6,94,255.8,101.3z M217.9,73.6c3.3,2.3,7.2,3.7,10.3,6.5
		c1.6,1.4-0.5,4-2.1,2.6c-3.1-2.7-7-4.1-10.3-6.5C214.1,75,216.1,72.4,217.9,73.6z M219.2,81.9c2,0.8,0.6,3.9-1.3,3
		c-11.1-4.7-22.3-7.3-34.4-6.7c-2.1,0.1-2.5-3.2-0.4-3.3C195.8,74.3,207.6,76.9,219.2,81.9z M171.1,67.7c11-3.1,21.7-2.5,32.6,0.6
		c2,0.6,0.7,3.6-1.3,3c-10-2.8-20-3.4-30.1-0.5C170.3,71.3,169.1,68.2,171.1,67.7z M158.8,71.2c1.5,0,3.1-0.2,4.6-0.2
		c0.9,0,1.5,1.1,1.4,1.9c-0.1,1-1,1.4-1.9,1.4c-1.5,0-3.1,0.2-4.6,0.2c-0.9,0-1.5-1.1-1.4-1.9C157.1,71.6,158,71.2,158.8,71.2z
		 M168,75.7c2.1-0.5,2.5,2.8,0.4,3.3c-5.8,1.3-12,2.8-16.7,6.6c-1.7,1.3-3.6-1.3-2-2.7C154.9,78.8,161.6,77.1,168,75.7z M139.4,76.2
		c3.8-1.6,7.6-2.9,11.5-4.1c2-0.6,3.3,2.4,1.2,3.1c-3.9,1.2-7.8,2.5-11.5,4.1C138.7,80.1,137.4,77,139.4,76.2z M121.2,80.8
		c4.3-1.8,8.3-4.5,13.1-4.2c2.1,0.1,1.7,3.4-0.5,3.3c-4-0.3-7.8,2.5-11.4,4C120.5,84.7,119.3,81.6,121.2,80.8z M94.7,101.7
		c6.2-6.3,12.4-12.5,19.7-17.6c1.7-1.2,3.7,1.4,2,2.7c-7,4.9-13.1,10.9-19.1,17C95.9,105.2,93.3,103.2,94.7,101.7z M70.5,135.2
		c4.5-9.3,9.1-18.3,15.8-26.2c1.4-1.6,4,0.4,2.6,2.1c-6.5,7.7-11,16.5-15.3,25.5C72.7,138.4,69.6,137.1,70.5,135.2z M61.5,140.6
		c1.2-2.6,2.6-5.1,3.4-7.8c0.6-2,3.7-0.7,3,1.3c-0.8,2.7-2.3,5.2-3.4,7.8C63.7,143.8,60.7,142.5,61.5,140.6z M63.1,150.6
		c-3.3,10.3-1.5,21-0.7,31.6c0.2,2.1-3.1,2.5-3.3,0.4c-0.8-11.2-2.5-22.3,1-33.3C60.7,147.3,63.8,148.6,63.1,150.6z M54.6,190.6
		c0.1-1.5,0.2-3-0.1-4.6c-0.4-2.1,2.9-2.5,3.3-0.4c0.3,1.8,0.2,3.6,0.1,5.4C57.7,193.2,54.4,192.7,54.6,190.6z M58.6,237.5
		c-1.6-12-2.2-24.3-5.3-36.1c-0.5-2,2.5-3.3,3.1-1.2c3.1,12.1,3.8,24.6,5.5,36.9C62.2,239.2,58.9,239.6,58.6,237.5z M74.8,280.1
		c-6.5-9.3-13.4-18.3-17.7-29c-0.8-2,2.3-3.2,3.1-1.2c4.2,10.4,10.9,19.1,17.2,28.2C78.7,279.9,76,281.9,74.8,280.1z M79.6,267.6
		c-0.5-2.1,2.8-2.5,3.3-0.4c2.4,10.9,9.4,19,18.8,24.6c1.8,1.1-0.3,3.7-2.1,2.6C89.4,288.3,82.2,279.4,79.6,267.6z M108.5,312.6
		C98.4,306.8,90.1,299,81.8,291c-1.5-1.5,0.5-4.1,2.1-2.6c8.1,7.9,16.2,15.6,26,21.2C111.7,310.6,110.4,313.7,108.5,312.6z
		 M111.7,306c-2.7-2.1-5.2-4.5-7.5-7c-1.4-1.5,1.2-3.5,2.7-2c2.1,2.3,4.5,4.4,6.9,6.4C115.5,304.7,113.4,307.3,111.7,306z
		 M128.9,325.4c-4.9-2.6-9.8-4.8-13.7-8.9c-1.5-1.5,1.2-3.5,2.7-2c3.4,3.6,8.1,5.5,12.4,7.8C132,323.4,130.7,326.5,128.9,325.4z
		 M145,331.1l-7.7-2.3c-2-0.6-0.7-3.6,1.3-3l7.7,2.3C148.3,328.7,147,331.7,145,331.1z M162.7,329c-15.9-2.2-35-7-44.4-21.3
		c-1.2-1.8,1.5-3.7,2.7-2c8.9,13.5,27.1,17.9,42.2,20C165.2,326,164.8,329.3,162.7,329z M143.9,312.8c1.9,1,3.7,2.2,5.6,3.2
		c1.9,0.9,0.6,4-1.3,3c-1.9-1-3.7-2.2-5.6-3.2C140.7,314.9,142,311.9,143.9,312.8z M158.2,317.4c0.3-0.7,1.4-1.3,2.2-0.9
		c1.3,0.8,2.6,1.5,4,1.9c0.9,0.3,1.2,1.4,0.9,2.2c-0.4,0.9-1.3,1.1-2.2,0.9c-1.4-0.4-2.7-1.2-4-1.9
		C158.3,319.1,157.8,318.3,158.2,317.4z M169,317.1c-17.5-1.8-33.1-10.4-45-23.2c-1.4-1.6,1.2-3.5,2.7-2
		c11.3,12.2,26.2,20.2,42.8,21.9C171.6,314,171.1,317.3,169,317.1z M163.9,305.3c2.4,0.1,4.8,0.8,7.2,0.9c2.1,0.1,1.7,3.4-0.5,3.3
		c-2.4-0.1-4.8-0.8-7.2-0.9C161.3,308.5,161.8,305.2,163.9,305.3z M175.2,300c-4.3-0.6-8.7-1.4-12.9-2.6c-2-0.6-0.7-3.6,1.3-3
		c3.9,1.1,8,1.8,12,2.4C177.7,297,177.3,300.3,175.2,300z M179.4,308.7c9.4,3.1,18.8,3.1,28.4,0.6c2-0.5,3.3,2.5,1.2,3.1
		c-10.4,2.8-20.6,2.8-30.9-0.6C176.1,311.1,177.4,308,179.4,308.7z M176.8,320c9.5,1.9,19,0.7,28.4-0.8c2.1-0.3,2.5,3,0.4,3.3
		c-9.7,1.5-19.6,2.7-29.3,0.7C174.3,322.8,174.8,319.6,176.8,320z M230.1,329.1c-15.4,2.9-30.3,7.2-46.2,5.6
		c-2.1-0.2-1.7-3.5,0.5-3.3c15.5,1.6,30.2-2.7,45.3-5.6C231.8,325.4,232.2,328.7,230.1,329.1z M260.8,317.7
		c-5.3,2.1-10.2,5-15.9,5.9c-2.1,0.3-2.5-2.9-0.4-3.3c5.4-0.9,10-3.8,15-5.7C261.5,313.9,262.7,316.9,260.8,317.7z M274.9,299.7
		c-14.9,12.9-32.8,20.2-52.1,23.2c-2.1,0.3-2.5-3-0.4-3.3c18.9-2.8,36.1-10,50.6-22.5C274.6,295.7,276.5,298.4,274.9,299.7z
		 M281.1,285.1c-1.3,1.7-3.9-0.4-2.6-2.1c5.8-7.6,8.4-16.1,9.6-25.5c0.3-2.1,3.5-1.7,3.3,0.5C290.1,268,287.3,277,281.1,285.1z
		 M310.2,229.1c-3.1,5.3-8.7,9.2-14.9,9.7c-0.8,0.1-3.6-0.8-2.7-2.2c3.5-5.7,7.3-10.8,14.7-10.7c1.7,0,2.6,0.9,2.6,1.9
		C310.3,228,310.5,228.5,310.2,229.1z M323.1,219.9c-2.9,1-6,1.5-9,2.2c-2.1,0.5-2.5-2.8-0.4-3.3c2.7-0.6,5.5-1.1,8.2-2
		C323.9,216.2,325.1,219.2,323.1,219.9z M333.9,214c-1.7,1.5-3.5,2.8-5.8,3.1c-2.1,0.2-2.5-3-0.4-3.3c1.7-0.2,3-1.3,4.2-2.4
		c0.7-0.6,1.8-0.3,2.3,0.3C334.8,212.4,334.6,213.4,333.9,214z M337,204.3c-4.1,0.5-8.1,1.5-12,3.2c-2,0.8-3.2-2.2-1.2-3.1
		c4.1-1.7,8.4-2.8,12.8-3.4c0.4-0.1,0.7,0,1,0.2c0.8,0.3,1,1.1,0.8,1.7C338.3,203.6,337.8,204.2,337,204.3z"/>
</g>
<g id="Lager_3">
	<g>
		<g>
			<path class="st1" d="M319.1,277.3c-1.5,5-1,10.5,1.9,14.9c1.4,2.1,4.3,4.9,6.6,2.1c3.1-3.8-3.7-8.9-5.7-11
				c-5.9-6.2-11.7-12.4-17.6-18.6c-0.2,0.6-0.3,1.3-0.5,1.9c7.5-1.5,6.1,7.7,5.1,11.3c-0.5,1.7-1.2,3.3-1.7,5.1
				c-0.8,3-1,5.8-0.1,8.8c1.7,5.6,6.2,9.6,11.4,11.9c0.8,0.4,2-0.2,1.7-1.3c-1.7-4.9-4.1-9.4-7.2-13.5c-2.2-3-6.3-8.7-10.1-9.6
				c-1.8-0.4-3.3,0.1-3.7,2c-0.4,2,1.7,5.2,2.2,6.8c1.2,3.5,1.8,7.2,2.1,10.9c0.1,1.4,2.3,1.5,2.2,0c-0.2-3.2-3.7-12.9-8.7-9.7
				c-4.8,3,2.7,10.6,5.5,12c0.4,0.2,1,0.2,1.4-0.2c4.2-4.8-4.7-8.9-7.3-2.4c-1.5,3.9-0.2,9.2,1.5,12.8c0.9,1.9,3.7,7.9,6.7,7.3
				c6.9-1.4-5.7-17.2-8.2-19c-2.4-1.8-5.4-2-6.9,0.9c-0.9,1.6-0.6,3.5-0.2,5.2c1.3,5,1.8,8.9-2.4,12.7c-1,0.9,0.3,2.3,1.4,1.8
				c5.2-2.5,1.5-13.6-3.1-11.2c-2.9,1.5-1.5,6-0.9,8.2c1.7,6.2,4.3,12,7.5,17.6c0.5,0.9,2.2,0.6,2.1-0.6
				c-0.4-6.5-3.5-15.8-10.2-18.4c-4.2-1.6-9.6,2.3-6.6,6.6c0.8,1.2,2.8,0.1,1.9-1.1c2-0.6,4-1.3,6-1.9c0.4,0.4,0.7,0.7,1.1,1.1
				c1.2,0.9,2.3,3,3,4.4c1.5,3,2.3,6.1,2.5,9.4c0.7-0.2,1.4-0.4,2.1-0.6c-2.3-4.1-4.3-8.3-5.9-12.7c-0.5-1.5-1.4-3.6-1.6-5.1
				c-0.8-7.7,5.5,0.3,1,2.5c0.5,0.6,0.9,1.2,1.4,1.8c2.5-2.2,4.1-5,4.3-8.3c0.1-1.7-1.7-5.4-1.3-6.5c1.5-0.9,3-1.8,4.6-2.8
				c0.4,0.4,0.8,0.8,1.1,1.3c1.3,0.9,2.5,3.2,3.4,4.5c0.6,0.9,4.6,7,3.1,7.8c-1.2,0.6-4.7-8.3-4.8-8.4c-0.4-1.4-0.8-3-0.7-4.4
				c-0.3-2.2,1.1-3.7,4.1-4.6c-0.6-0.5-1.3-1-1.9-1.5c-0.5-0.6-2.7-3.3-2.3-4.2c2.2-4.8,5.2,5.4,5.2,5.9c0.8,0,1.5,0,2.2,0
				c-0.2-3-0.6-6-1.4-9c-0.3-1.1-1.9-3.8-1.7-5c0.5-3.4,1.9-1.9,3.3-0.6c5.5,5.1,9.6,11.5,12.1,18.6c0.6-0.4,1.1-0.8,1.7-1.3
				c-4.6-2-8.8-5.6-10.3-10.6c-1.8-5.9,1.9-10.7,2.7-16.3c0.8-5.6-2.4-11.7-8.7-10.4c-0.9,0.2-1,1.3-0.5,1.9
				c5.4,5.7,10.8,11.4,16.2,17.2c1.2,1.3,3.3,2.8,4.1,4.3c0.5,0.5,0.9,1,1.4,1.4c-0.8,2.3-1.6,2.5-2.2,0.6c-2.5-2.8-1.9-8.8-1-12
				C321.6,276.5,319.5,275.9,319.1,277.3L319.1,277.3z"/>
		</g>
	</g>
	<g>
		<g>
			<path class="st1" d="M266.9,338.8c5.7,2.8,11.4-4.5,8.3-9.8c-3.6-6.1-10.5,2.2-10,6.7c0.6,5.6,8.5,5.1,7.2,0.5
				c-2.3-7.9-12.1,5.5-13.6,6.2c0.6,0.3,1.1,0.6,1.7,1c0.3-2.5,0.7-5,1-7.5c0.2-1.3-1.8-1.4-2.2-0.3c-0.7,2.1-1.6,4.1-2.7,6
				c-0.7,1.2-1.1,2.9-2.2,1c-1-1.6,0.6-2.1-1.2-3.3c-3.2-2.2-5.5,2-6.3,4.4c-0.4,1.4,1.7,2,2.2,0.6c2.1-1.4,3-1.6,2.7-0.4
				c0,0.3,0,0.7,0,1c0.3,0.4,0.2,1.1,0.6,1.5c0.5,0.6,1.4,0.9,2.2,0.8c3.6-0.7,5.9-8.2,6.9-11.1c-0.7-0.1-1.5-0.2-2.2-0.3
				c-0.3,2.5-0.7,5-1,7.5c-0.1,0.9,1,1.3,1.7,1c1.8-0.9,2.8-2.1,4.1-3.6c1.6-1.9,2.4-3.4,3.3-5.8c0.2-3.6,2.4-4.6,6.3-3.1
				c0.1,3.1-1.7,4.7-5.6,5C266.7,336.2,265.6,338.2,266.9,338.8L266.9,338.8z"/>
		</g>
	</g>
	<g>
		<g>
			<path class="st1" d="M246.4,370.5c0-7.1,0.9-14.9-0.1-21.9c-0.5-3.5-2.4-6.6-6.3-5.4c-1.4,0.4-0.8,2.6,0.6,2.2
				c4.8-1.4,3.5,11.1,3.5,13.3c0,4,0,7.9,0,11.9C244.1,371.9,246.4,371.9,246.4,370.5L246.4,370.5z"/>
		</g>
	</g>
	<g>
		<g>
			<path class="st1" d="M241.5,337.2c-1.4,0.5-1.7,2.4-0.4,3.2c1.3,0.7,2.4-1.2,1.1-1.9c0.5,0.3,0.2,0.8-0.2,1
				c0.6-0.2,1-0.8,0.8-1.4C242.7,337.4,242,337,241.5,337.2L241.5,337.2z"/>
		</g>
	</g>
	<g>
		<g>
			<path class="st1" d="M224.6,354.9c-1.5,0.6-3,1.1-4.4,1.7c0.4,0.4,0.8,0.8,1.1,1.1c-0.1-2.9,0.8-4.7,1.5-7.4
				c0.2-0.9,0.4-1.3,0.3-2c-0.1-1.4-0.8-2.7-2.3-3c-3.9-0.7-8.2,6.4-9.7,8.9c0.7,0.2,1.4,0.4,2.1,0.6c0.1-2,3.5-8.9-1.7-8.7
				c-1.6,0.1-2.7,1.5-3.5,2.6c-2.2,3.2-3.8,6.4-6.6,9.3c-1,1,0.6,2.6,1.6,1.6c2.2-2.3,4.1-4.6,5.6-7.4c0.4-0.6,2.2-5.3,2.9-0.5
				c0,0.3-0.6,2.6-0.7,3.1c-0.1,1.1,1.5,1.5,2.1,0.6c0.8-1.3,6.5-9.9,7.1-4.5c0.1,0.7-0.9,2.6-1,3.4c-0.2,1.2-0.2,2.3-0.1,3.5
				c0,0.6,0.5,1.2,1.1,1.1c2.5-0.1,4.1-0.8,6-2.4C227.3,355.6,225.7,354,224.6,354.9L224.6,354.9z"/>
		</g>
	</g>
	<g>
		<g>
			<path class="st1" d="M200.4,351.9c-3.6,0.4-7.8,2.2-9.4,5.7c-0.5,1.1-0.7,2.6,0.2,3.5c1.2,1.2,3,0,4.2-0.7
				c2.7-1.6,6.2-5.3,5.7-8.7c-0.6-4.2-6.9-4.7-10.1-4c-1.4,0.3-0.8,2.5,0.6,2.2c2.2-0.5,7.8-0.4,7.1,3.1c-0.3,1.9-2.1,3.7-3.5,4.8
				c-0.3,0.2-2.3,1.7-2.5,1.4c-0.3-0.3,1.5-2.1,1.7-2.3c1.7-1.5,3.7-2.4,6-2.7C201.8,354,201.8,351.7,200.4,351.9L200.4,351.9z"/>
		</g>
	</g>
	<g>
		<g>
			<path class="st1" d="M170.4,356c1.9-0.9,8.8-5.6,5.6-8.5c-3-2.7-7.5,3.9-8.6,5.7c0.7,0.3,1.4,0.6,2.1,0.9
				c0.6-2.4,3.2-8.3-0.9-9.2c-4.2-1-7.8,6.7-9,9.4c0.7,0.3,1.4,0.6,2.1,0.9c0.6-2.6-0.7-4.9-3.3-5.6c-3.3-0.9-6.2,1.7-8.3,3.8
				c0.6,0.5,1.2,0.9,1.8,1.4c1.4-2.8,8.8-10.1,1.4-11.5c-3.6-0.7-15.6,3.1-13.9,8.4c1.6,5,6.8-0.8,7.3-3.5c1-6-5.2-9.1-10.2-6.9
				c-1.3,0.6-0.2,2.5,1.1,1.9c5.2-0.5,7.4,0.8,6.5,3.8c-0.5,1.5-0.2,1.7,1.2,0.5c1.8-0.3,3.5-2,5.4-1.7c1.6-0.7,2.2,0,1.6,2.1
				c0.8,1.4,0.5,2.5-0.7,3.3c-0.4,0.9-1.3,1.7-1.7,2.6c-0.6,1.1,0.8,2.3,1.8,1.4c0.6-0.7,1.3-1.3,2-1.8c1.7-1.8,3.6-1.3,5.8,1.4
				c-0.3,1.2,1.5,2.1,2.1,0.9c0.8-1.8,2-4.8,3.6-6c3.4-2.6,2.7,1.9,2.1,4.1c-0.3,1.3,1.4,1.9,2.1,0.9c0.8-1.2,2.1-3.7,3.2-3.2
				c1.1,0.6-2.9,2.7-3.3,2.9C168,354.7,169.1,356.7,170.4,356L170.4,356z"/>
		</g>
	</g>
	<g>
		<g>
			<path class="st1" d="M38.8,243.7c1.7,2.4,5.2,2.7,6.8-0.1c2.3-4-1.7-7.6-4.6-9.8c-0.4,0.6-0.8,1.3-1.1,1.9
				c5.4,2.4,9.1,6.7,10.7,12.4c0.5-0.5,0.9-0.9,1.4-1.4c-6.2-2.2-4.1-11.6-5.4-16.7c-1-4-3.1-7.5-5.8-10.6c-0.5-0.6-1.4-0.3-1.8,0.2
				c-3,4.1,1.9,12.2,7.1,10.7c7.1-2.1-2.4-10.7-5.2-12c-0.9-0.4-1.8,0.3-1.7,1.3c0.3,1.8,2.3,2.4,3.6,1.1c2.6-2.8-1.8-8.2-3.6-9.9
				c-0.4,0.6-0.7,1.3-1.1,1.9c2,0.8,6.2,4.5,7.8,0.8c1.5-3.3-4.2-8.5-6.2-10.3c-0.5,0.6-0.9,1.2-1.4,1.8c2.3,1.7,7.2,3.7,8.3-0.5
				c1-4-4.5-8.5-7.2-10.4c-0.4,0.6-0.8,1.3-1.1,1.9c1.9,1.2,4.1,0.6,5.3-1.4c1.9-3-0.5-6-2.4-8.3c-0.9-1.1-2.5,0.5-1.6,1.6
				c2,2.4,6.9,5.2,8.1,0.4c1.1-4.5-4.6-9.8-7.7-12c-0.9-0.6-2.1,0.6-1.5,1.5c1.4,2.2,5.4,6.8,8.5,4.9c2.4-1.5,0.7-4.7-0.7-6.3
				c-0.9-1.1-2.5,0.5-1.6,1.6c-0.1,2.4-0.7,2.9-1.9,1.5c-1.1-0.7-1.9-1.6-2.5-2.8c-0.5,0.5-1,1-1.5,1.5c2.1,1.4,3.7,3,5,5.1
				c0.6,0.9,1.1,1.9,1.4,2.9c-1.9,1.6-3.3,1.6-4.1,0c-0.5,0.5-1.1,1.1-1.6,1.6c2.5,1.8,2.4,3.8-0.2,6.1c-1.3-0.8-2.3,1.1-1.1,1.9
				c1.4,1,3.6,2.4,4.2,4.1c1.3,1,1.1,1.8-0.6,2.5c-0.8,1.6-1.6,1.8-2.5,0.5c-1-0.8-2.3,0.9-1.4,1.8c1,0.9,5,4.2,4.7,5.5
				c-0.7,2.8-2.7,0.8-4.1,0.3c-1.1-0.4-1.9,1.1-1.1,1.9c2,1.9,3.2,3.8,3.8,6.7c-0.6,0.4-1.1,0.8-1.7,1.3c1.7,0.8,4.1,2,5,3.9
				c1.5,1.2,0.9,2.4-1.5,3.4c-2.5-1.5-3.2-3.8-2.3-6.7c-0.6,0.1-1.2,0.2-1.8,0.2c2.6,3,4.6,6.4,5.4,10.4c0.7,3.1,0.3,6.2,0.8,9.3
				c0.6,3.8,2.3,6.9,6,8.2c0.8,0.3,1.6-0.6,1.4-1.4c-1.7-6.3-5.8-11.1-11.7-13.7c-1.3-0.6-2.3,1.1-1.1,1.9c1.1,0.6,2,1.4,2.8,2.4
				c1.7,1.4,1.1,2.9-1.8,4.4C39.9,241.4,37.9,242.6,38.8,243.7L38.8,243.7z"/>
		</g>
	</g>
	<g>
		<g>
			<path class="st1" d="M43.5,149c-1,4,0.4,7.5,3.9,9.7c0.8,0.5,1.6-0.2,1.7-1c0.6-4.5-0.7-8.4-3.6-11.8c-0.8-1-2.5,0.3-1.8,1.4
				c1.6,2.3,5.4,5.5,7.7,2c2.3-3.4-2-9.3-4.2-11.6c-0.5,0.6-0.9,1.2-1.4,1.8c1.8,1.3,3.3,1.3,5.2,0.3c0.3-0.2,0.6-0.6,0.6-1
				c-0.1-2-0.3-4-0.4-6c-0.1-1.2-1.9-1.6-2.2-0.3c-1.3,5.9,6.7,6.5,8.4,1.2c1.2-3.7-1.1-8.2-2.6-11.5c-1.7-3.8-3.8-7-7.2-9.4
				c-0.7-0.5-1.8,0.1-1.7,1c0.6,5.5,3.7,14.6,10.1,15.7c7.7,1.3,4.9-10.7,3.5-14.5c-0.5-1.3-2.7-0.8-2.2,0.6c0.8,2.3,2.9,6,6.1,4.2
				c3.3-1.9,0.7-7.5-0.5-9.9c-0.6-1.1-2.5-0.3-2.1,0.9c0.9,2.8,3.4,7.3,7.1,5.1c1.3-0.8,1.7-2,1.7-3.5c-0.1-4.3-3.2-6.6-0.4-11.1
				c-0.7-0.2-1.4-0.4-2.1-0.6c-0.1,3.1,2,10.7,6.7,7.1c4.6-3.5-2.5-9-5.8-9.7c-0.9-0.2-1.8,0.8-1.3,1.7c1.4,2.3,4.3,2.9,6.6,1.4
				c3.7-2.3,2.7-7.3,1.8-10.8c-0.3-1-2-1.1-2.2,0c-0.5,2.7,1.7,4.8,4.5,4.4c4.3-0.5,4.4-5.9,4-9.2c-0.2-1.4-2.3-1.5-2.2,0
				c0.1,3.2,1.4,8,4.9,9.2c2.4,0.8,3.7-0.8,4.2-3.1c2-8.5-3.2-17.6-9.7-22.6c-0.6-0.5-1.8,0.2-1.7,1C78,79.1,89.3,83.9,88.6,93
				c-0.1,1.4,2.1,1.4,2.2,0c0.7-9.6-10.6-13.8-11.7-22.8c-0.6,0.3-1.1,0.6-1.7,1c3.8,2.9,6.6,6.8,8,11.4c0.5,1.7,1.4,4.3,0.9,6.1
				c-1.6,6-4.8,0.9-4.9-3c-0.8,0-1.5,0-2.2,0c0.1,0.9,0.2,1.8,0.2,2.6c0.4,2.8-1,3.7-4.3,2.7c-0.7,0-1.4,0-2.2,0
				c0.3,1,0.6,2.1,0.6,3.1c0.9,2.7-0.8,4.2-4.9,4.6c-0.4,0.6-0.8,1.1-1.3,1.7c1.5,0.2,2.8,0.8,3.9,1.9c-1.8,0.6-2.5,0.1-2-1.5
				c0-1.1-1.5-1.5-2.1-0.6c-1.2,2-1.9,4-1.7,6.3c0.1,1,0.4,1.9,0.7,2.9c0.3,0.7,0.5,1.3,0.8,2c-2.5,2.2-3.8,1.8-4-1.2
				c-0.7,0.3-1.4,0.6-2.1,0.9c0.8,1.3,1.2,2.6,1.4,4.1c0.8,2.3-0.1,2.3-2.9-0.2c-0.7,0.2-1.4,0.4-2.2,0.6c0.7,1.8,1.6,4.2,1.5,6.1
				c-0.1,2.7-2.9,5.6-5.8,3.4c-3.1-2.4-4.6-7.6-5-11.3c-0.6,0.3-1.1,0.6-1.7,1c3.3,2.3,5.2,5.7,6.7,9.4c0.5,1.3,1.2,2.7,1.5,4.1
				c0.1,0.5,0.3,1,0.4,1.4c1.1,4.4-0.3,5.6-4,3.5c-0.7-0.1-1.5-0.2-2.2-0.3c0.1,0.9,1.3,7.1-1.9,4.8c-1.1-0.8-2.2,0.9-1.4,1.8
				c1.1,1,2,2.2,2.6,3.5c2.1,2.8,1.2,3.9-2.7,3.3c-0.6,0.5-1.2,0.9-1.8,1.4c2.6,3,3.5,6.4,3,10.2c0.6-0.3,1.1-0.6,1.7-1
				c-2.6-1.6-3.6-4.3-2.9-7.2C46,148.2,43.9,147.6,43.5,149L43.5,149z"/>
		</g>
	</g>
	<g>
		<g>
			<path class="st1" d="M87.9,76.7c0.8,3.3,0.6,6.6-0.6,9.9c0.7,0.2,1.4,0.4,2.2,0.6c0.2-0.7,3-0.1,3.8-0.3c0.9-0.2,1.7-0.7,2.4-1.4
				c1.3-1.4,1.8-3.4,1.1-5.2c-0.5-1.3-2.7-0.7-2.2,0.6c0.4,1.1,0.3,2.2-0.5,3c-1.1,1.2-2.3,0.6-3.7,0.6c-1.5,0-2.7,0.6-3.1,2
				c-0.4,1.4,1.7,1.9,2.2,0.6c1.3-3.6,1.5-7.4,0.6-11.1C89.8,74.7,87.6,75.3,87.9,76.7L87.9,76.7z"/>
		</g>
	</g>
	<g>
		<g>
			<path class="st1" d="M104.8,338c2.7,4.1,9.1,5.5,13.2,2.5c3.5-2.6,3.2-8.8-1.5-9.8c-1.4-0.3-2,1.9-0.6,2.2
				c1.5,0.3,2.3,1.7,2.3,3.2c-0.1,1.8-1.5,3-3.1,3.5c-2.9,0.9-6.6-0.1-8.3-2.7C105.9,335.6,104,336.7,104.8,338L104.8,338z"/>
		</g>
	</g>
	<g>
		<g>
			<path class="st1" d="M112.1,329.2c-3.8,1.1-7.7,2.1-11.5,3.2c0.3,0.7,0.6,1.4,0.9,2.1c1.9-1.1,4.1-3.1,2.6-5.5
				c-1.7-2.6-6.8-1.6-9.4-1.2c0.3,0.7,0.6,1.4,0.9,2.1c2-1.2,6-1.5,6.3-4.6c0.2-2.3-2-3-3.8-3.6c-4.1-1.2-12.8-1-11.3,5.3
				c0.1,0.6,0.8,0.9,1.4,0.8c3-0.7,9.5-3.4,8.2-7.6c-0.5-1.6-2.1-2.4-3.6-2.5c-1.4-0.2-2.6,0.4-4,0.6c-3.7,0.5-6.9-0.5-9.8-2.8
				c-0.5,0.6-0.9,1.2-1.4,1.8c2.5,1.7,12.9,3.9,12.4-2c-0.5-5.1-10.5-1.8-12.9-0.5c-1.3,0.7-0.2,2.5,1.1,1.9c2.5-1.1,5.8-3,5.3-6.2
				c-0.5-2.9-3.7-3.9-6.2-4.2c-4.4-0.4-23.3,2.2-21,9.3c0.1,0.4,0.6,0.9,1.1,0.8c5.9-0.5,13.6-2.7,16.6-8.4c2.1-3.9,0.5-9-4.2-9.7
				c-1.4-0.2-2,2-0.6,2.2c5.4,0.8,3,6.8,0.8,9c-1.3,1.3-3.3,2.2-5,2.9c-0.6,0.3-3.9,1.9-4.6,1.5c-2.1-1.3,3.7-2.8,3.9-2.9
				c3.2-1.2,6.7-2,10.1-2.3c1.1-0.1,5.2-0.4,5.7,0.6c-0.2,1.4-0.4,2.9-0.7,4.3c-0.7,0.5-1.5,0.8-2.3,1.1c0.4,0.6,0.8,1.3,1.1,1.9
				c0.9-0.5,7.7-3.4,8.7-1.6c-1.1,0.7-2.3,1.3-3.4,2c-1.8,0-3.4-0.6-4.7-1.8c-1-0.7-2.4,1-1.4,1.8c2.2,1.8,4.5,3.1,7.3,3.5
				c1.5,0.2,3.3-0.4,4.7-0.1c8.5,1.8,0.8,4.6-1.9,5.2c0.5,0.3,0.9,0.5,1.4,0.8c-0.8-3.3,7.3-4.1,8.5-2.6c2,2.5-1.9,3.3-3.1,4
				c-1.2,0.7-0.3,2.2,0.9,2.1c1.3-0.2,2.5-0.3,3.8-0.3c1.5-0.2,1.9,0.7,1.2,2.8c-1.1,0.7-0.4,2.4,0.9,2.1c3.8-1.1,7.7-2.1,11.5-3.2
				C114,331,113.5,328.8,112.1,329.2L112.1,329.2z"/>
		</g>
	</g>
	<g>
		<g>
			<path class="st1" d="M49.1,126.6c-2-2.5,2.1-5.2,3.7-6.3c1.6-1.1,3-2.2,3.9-4c0.6-1.3-1.3-2.4-1.9-1.1c-1.5,3-5,3.8-7,6.4
				c-1.5,2.1-2,4.5-0.3,6.6C48.4,129.3,50,127.7,49.1,126.6L49.1,126.6z"/>
		</g>
	</g>
	<g>
		<g>
			<path class="st1" d="M70,298.6c-2.9,0.2-5.8,0.4-8.8,0.4c0.4,0.4,0.8,0.8,1.1,1.1c0.2-2.4,7.7-2.3,5.2-6.3
				c-0.7-1.2-1.9-1.2-3.1-1.2c-0.9,0-2.4,0.7-3.3,0.5c-3.9-0.9,2.1-2.4,3.2-2.7c-0.2-0.7-0.4-1.4-0.6-2.2c-1.9,0.6-3.7,1-5.7,1
				c-1.9,0-6.3-1.8-3.2-3.8c1.2-0.8,3.3-0.6,4.2-2.1c1.8-3-2.1-4.4-4.2-4.6c-1.4-0.1-1.4,2.1,0,2.2c1.5,1.2,1.6,1.8,0.1,2
				c-0.4,0.1-0.8,0.3-1.2,0.4c-0.9,0.4-1.8,0.8-2.3,1.6c-0.8,1.1-0.8,2.3-0.3,3.5c2.2,4.4,9.5,3.1,13.1,1.9c1.4-0.5,0.8-2.6-0.6-2.2
				c-1.9,0.5-11.5,4-6.5,6.9c0.7,0.4,1.4,0.4,2.2,0.5c0.8,0,5-1.2,4.1,0.8c-0.1,0.2-2.1,0.9-2.4,1.2c-0.9,0.8-0.9,1.5-1.1,2.6
				c-0.1,0.6,0.6,1.1,1.1,1.1c2.9,0,5.8-0.1,8.8-0.4C71.5,300.7,71.5,298.5,70,298.6L70,298.6z"/>
		</g>
	</g>
	<g>
		<g>
			<path class="st1" d="M42.1,272.5c0.3,4.6,6.3,10,10.7,6.1c2-1.7,1.1-4.1-0.7-5.5c-2.5-2-6-2.3-9.1-1.8c0.4,0.6,0.7,1.3,1.1,1.9
				c2.1-2.5,5.1-4,8.4-3.9c0.9,0,1.7,0.1,2.5,0.4c0.2,2.5-0.2,2.9-1.2,1.2c-0.9-1.2-1.5-2.7-2.2-4c-2-3.9-5-7.6-9.8-6.5
				c-1.4,0.3-0.8,2.5,0.6,2.2c6.7-1.5,7.1,8.7,11.3,11.5c2,1.4,5.5,0.9,5.8-2c0.3-3.4-4-4.8-6.6-4.9c-4-0.2-7.8,1.5-10.5,4.6
				c-0.8,0.9,0,2.1,1.1,1.9c1.3-0.2,2.4-0.3,3.7,0c0.6,0.1,1.2,0.2,1.7,0.5c1.6,0.3,1.7,1.5,0.5,3.5c-2.6,0.8-5-3.1-5.1-5
				C44.3,271,42,271,42.1,272.5L42.1,272.5z"/>
		</g>
	</g>
	<g>
		<g>
			<path class="st1" d="M94.4,63.5c2.2,5.3,4.5,10.6,7.4,15.6c0.5,0.9,2.2,0.6,2.1-0.6c-0.5-7.6-3.5-14.4-8.9-19.9
				c-0.8-0.9-2.1,0-1.9,1.1c1.3,6.7,3.9,12.8,8,18.3c0.6,0.8,2.2,0.7,2.1-0.6c-0.4-4.9-1.4-9.6-3.3-14.2c-0.9-2.3-2.3-6.9-5.4-7.1
				c-7.4-0.5,1.6,13.5,3,15.2c0.9,1.1,2.5-0.5,1.6-1.6c-1.7-2.1-3.1-4.4-4.1-6.9c-0.5-1.3-1.6-2.5,0.1-2.6c1.7-0.1,2.1,2.1,2.7,3.6
				c1.7,4.3,2.8,8.9,3.2,13.6c0.7-0.2,1.4-0.4,2.1-0.6c-4-5.3-6.6-11.3-7.8-17.8c-0.6,0.4-1.3,0.7-1.9,1.1c4.9,5,7.7,11.3,8.2,18.3
				c0.7-0.2,1.4-0.4,2.1-0.6c-2.8-4.8-5-9.9-7.2-15.1C96,61.5,93.9,62.1,94.4,63.5L94.4,63.5z"/>
		</g>
	</g>
	<g>
		<g>
			<path class="st1" d="M103.5,81.6c0.4-0.2,0.7-0.4,1.1-0.6c0.1,0.1,0.3,0.3,0.4,0.4c-0.2,0.4-0.4,0.7-0.6,1.1c1.4,0,1.4-2.2,0-2.2
				c-1.3,0-2.1,1.6-1.1,2.6c0.9,0.9,2.6,0.1,2.5-1.2c0-0.6-0.5-1.1-1.1-1.1C104.1,80.5,103.5,81,103.5,81.6L103.5,81.6z"/>
		</g>
	</g>
	<g>
		<g>
			<path class="st1" d="M114.7,55.8c1.9-1,3-0.7,3.2,0.7c0.4,0.8,0.6,1.7,0.5,2.7c0.1,1.3,0,2.7,0,4c0,2.9-0.1,5.8-0.2,8.7
				c-0.1,1.9,2.9,1.9,3,0c0.1-4,0.3-8.1,0.2-12.1c0-2.3-0.3-4.8-2-6.6c-2.8-2.9-7.6-1.6-7.7,2.6C111.6,57.7,114.6,57.7,114.7,55.8
				L114.7,55.8z"/>
		</g>
	</g>
	<g>
		<g>
			<path class="st1" d="M117.9,65.7c1.5-2.8,5.6-2.5,8.1-3.8c2.3-1.1,4.3-3.1,4-5.8c-0.2-1.9-3.2-1.9-3,0c0.3,3.2-4.3,3.7-6.5,4.4
				c-2.2,0.6-4.1,1.7-5.2,3.7C114.4,65.9,117,67.4,117.9,65.7L117.9,65.7z"/>
		</g>
	</g>
	<g>
		<g>
			<path class="st1" d="M126.5,47.1c2.4,5.7-0.7,12.1,1.8,17.8c1,2.2,4.1,4.1,5.5,1c0.8-1.7-1.8-3.3-2.6-1.5
				c-0.3-0.9-0.5-1.8-0.7-2.7c-0.2-1.1-0.2-2.2-0.2-3.3c0-1.7,0.2-3.3,0.2-5c0-2.8-0.3-5.3-1.4-7.9
				C128.3,43.8,125.7,45.3,126.5,47.1L126.5,47.1z"/>
		</g>
	</g>
	<g>
		<g>
			<path class="st1" d="M138.2,53.4c-2,2.4-5.9,10.5,0,10.8c5.8,0.3,5.7-7.6,3.7-11c-0.6-0.9-2-1-2.6,0c-2.4,4.4,3,7,6.5,4.6
				c3.9-2.7,9.4-12.4,6-16.9c-0.5-0.6-1.3-1-2.1-0.5c-2.8,1.8-3,5.4-3.4,8.5c-0.4,3-1.4,8.1,0.4,10.9c1,1.6,3.1,2.6,5,1.8
				c4.4-2,4.1-8.3,9.7-9.5c-0.3-1-0.5-1.9-0.8-2.9c-2.8,0.9-5.2,3.1-5,6.3c0.2,2.2,1.9,4.1,4.3,3.3c3.2-1.1,4.6-6.6,5.6-9.3
				c1.4-4,3.7-9.4,1.5-13.4c-0.4-0.7-1.4-0.9-2.1-0.5c-7.2,4.3-3,26.9,6.6,20.3c1.6-1.1,0.1-3.7-1.5-2.6c-5.1,3.5-5.3-6.5-5.4-8.3
				c0-2.2-0.5-5.5,1.8-6.8c-0.7-0.2-1.4-0.4-2.1-0.5c1.4,2.6-0.4,6.9-1.3,9.5c-0.4,1.1-0.7,2.2-1.2,3.2c-0.5,1.2-1,2.4-1.6,3.5
				c-0.8,1.6-0.5,1,1-1.7c1.8-0.6,1.1-3.3-0.8-2.9c-4,0.9-6.3,3.8-8.4,7.1c-0.7,1.1-1.3,3.1-3.2,1.4c-0.6-0.6-0.2-3.7-0.1-4.4
				c0.1-2.2,0.1-8.8,2.3-10.2c-0.7-0.2-1.4-0.4-2.1-0.5c1.6,2.1-0.6,6.2-1.5,8c-0.4,0.8-0.8,1.5-1.3,2.2c-0.8,2.2-2.2,2.9-4.5,2.2
				c-0.9,0-1.7,0-2.6,0c1.9,2.1,2,3.3,0.1,3.7c-2,1-1.7,0.1,0.9-2.8C141.6,54.1,139.5,51.9,138.2,53.4L138.2,53.4z"/>
		</g>
	</g>
	<g>
		<g>
			<path class="st1" d="M189,47.7c-3.9-2.5-10.8,0.2-7.8,5.5c2.9,5.3,9-0.3,9.9-4c0.2-0.9-0.4-2-1.4-1.9c-2.5,0.2-4,2.6-2.1,4.7
				c1,1.2,2.3,1.3,3.8,1.1c1.4-0.2,3.2-1.6,4.6-1.4c2.3,0.3,1.6,2.2,0.8,3.9c-0.8,1.5,1.1,3,2.4,1.8c2.6-2.5,5.4-4,8.9-5
				c-0.6-0.3-1.2-0.7-1.8-1c0.5,2.7-2.9,6.1-0.5,8.4c1.6,1.5,3.7,0.7,5.3-0.3c1.7-1,0.1-3.6-1.5-2.6c-2.2,1.3-0.3-2.2-0.2-2.9
				c0.2-1.3,0-2.2-0.2-3.5c-0.2-0.8-1.1-1.2-1.8-1c-4,1.1-7.3,2.9-10.3,5.7c0.8,0.6,1.6,1.2,2.4,1.8c1.2-2.2,4.4-5.1,2.2-7.8
				c-2.6-3.2-8.7,0.7-11.8,1c-0.5-0.6-1-1.3-1.4-1.9c0.2,1.2,0,1.8-0.7,1.9C189.1,51.3,190.6,48.7,189,47.7L189,47.7z"/>
		</g>
	</g>
	<g>
		<g>
			<path class="st1" d="M225.8,39.4c-2.9,4.9-5.7,9.8-8.6,14.7c-1,1.7,1.6,3.2,2.6,1.5c2.9-4.9,5.7-9.8,8.6-14.7
				C229.3,39.2,226.7,37.7,225.8,39.4L225.8,39.4z"/>
		</g>
	</g>
	<g>
		<g>
			<path class="st1" d="M216.6,61.8c-0.1-0.2-0.2-0.4-0.2-0.7c-0.3-0.8-1-1.3-1.8-1c-0.7,0.2-1.3,1.1-1,1.8c0.1,0.2,0.2,0.4,0.2,0.7
				c0.3,0.8,1,1.3,1.8,1C216.3,63.4,216.9,62.5,216.6,61.8L216.6,61.8z"/>
		</g>
	</g>
	<g>
		<g>
			<path class="st1" d="M217.7,53.4c-0.9,1-1.5,1.9-2.1,3.1c-0.8,1.5,1.1,3,2.4,1.8c5.8-5.2,10.5-11.3,14.1-18.3
				c0.4-0.9,0.1-1.9-0.9-2.2c-2.2-0.6-3.8,0.5-5.1,2.2c-2.3,3.1-4,7-5.9,10.4c-0.9,1.7,1.6,3.2,2.6,1.5c1-1.7,5.4-11.9,7.6-11.3
				c-0.3-0.7-0.6-1.5-0.9-2.2c-3.5,6.7-8,12.6-13.6,17.6c0.8,0.6,1.6,1.2,2.4,1.8c0.4-0.9,0.9-1.8,1.6-2.5
				C221.1,54.1,219,52,217.7,53.4L217.7,53.4z"/>
		</g>
	</g>
	<g>
		<g>
			<path class="st1" d="M217.8,57.5c1.5-3.2,3.2-6.3,5-9.4c0.9-1.5,1.9-3,2.9-4.5c0.9-1.2,2.7-2.9,3.2-4.3c-0.6,1.8,2.3,2.6,2.9,0.8
				c1.4-4.1-3.7-4.3-5.8-2c-4.5,5-7.9,11.7-10.7,17.7C214.4,57.7,217,59.3,217.8,57.5L217.8,57.5z"/>
		</g>
	</g>
	<g>
		<g>
			<path class="st1" d="M214.5,60.1c-1.6,0.6-2.6,2.2-2.2,3.9c0.2,0.7,1.1,1.3,1.8,1c1.7-0.7,3-1.7,4-3.3c0.6-1-0.2-2.2-1.3-2.3
				c-1.4-0.1-3.1,0.8-2.7,2.5c0.3,1.4,2.1,2.2,3.2,1.1c1.4-1.4-0.8-3.5-2.1-2.1c0,0-0.1,0.1-0.1,0.1c0.2-0.1,0.4-0.3,0.7-0.4
				c0.8,0,1.2,0.3,1.3,0.8c-0.1,0.3-0.1,0.5-0.2,0.8c-0.1,0.3-0.6,0.2,0,0.3c-0.4-0.8-0.9-1.5-1.3-2.3c-0.5,0.8-1.3,1.5-2.2,1.9
				c0.6,0.3,1.2,0.7,1.8,1c0,0.2,0-0.2,0,0c0,0.1,0.1-0.2,0-0.1c0,0,0.1-0.2,0.1-0.1c0.2-0.2,0.1-0.1,0,0c0.8-0.3,1.3-1,1-1.8
				C216.2,60.4,215.3,59.8,214.5,60.1L214.5,60.1z"/>
		</g>
	</g>
	<g>
		<g>
			<path class="st1" d="M37.6,182.9c-1.8-2.8-4.2-5-7.1-6.5c-1.7-0.9-3.2,1.7-1.5,2.6c2.5,1.3,4.5,3.1,6.1,5.4
				C36.1,186,38.7,184.5,37.6,182.9L37.6,182.9z"/>
		</g>
	</g>
	<g>
		<g>
			<path class="st1" d="M61.6,304.9c3.7-0.8,5.5,4.1,7.1,6.5c1.3,2.1,2.9,3.7,5.2,4.5c1.8,0.6,2.6-2.3,0.8-2.9
				c-3.3-1.1-4.4-5.3-6.4-7.8c-1.9-2.4-4.4-3.9-7.5-3.2C58.9,302.4,59.7,305.3,61.6,304.9L61.6,304.9z"/>
		</g>
	</g>
	<g>
		<g>
			<path class="st1" d="M231.4,58.7c1.2-0.6,1.9-0.2,2.2,1.1c-0.6,0.3-1.2,0.5-1.7,0.8c-1.3,0.6-2.4,1.3-3.4,2.2
				c-1,1-2.6,2.8-2.2,4.3c1.1,4.3,10.7-0.1,12.9-0.7c-0.4-0.9-0.8-1.8-1.2-2.7c-1.9,1.5-9.4,5.7-5.3,8.6c1.7,1.2,4.1,0,5.7-0.6
				c3.7-1.4,6.8-3.6,11-3.1c1.9,0.2,1.9-2.8,0-3c-2.6-0.3-4.8,0.2-7.2,1.2c-1.3,0.5-2.5,1.2-3.8,1.7c-5.5,2.4,0.2-1.5,1.2-2.2
				c1.3-1,0.6-3.2-1.2-2.7c-2,0.5-4,1.3-6.1,1.6c-1.8,0.2-2.8,0.1,0-1.5c1.5-0.9,3.8-1.2,4.7-3c2.1-3.8-2.8-5.3-5.6-5
				C229.5,55.9,229.5,58.9,231.4,58.7L231.4,58.7z"/>
		</g>
	</g>
	<g>
		<g>
			<path class="st1" d="M248.8,70.3c-3.2,0.2-5.5,1.5-7.4,4c-0.5,0.7,0,2.1,0.9,2.2c3.6,0.6,6.7-0.3,9.5-2.7
				c-0.8-0.6-1.6-1.2-2.4-1.8c-0.9,1.9-4.9,4.1-2.2,6.6c0.9,0.8,2.1,0.7,3.2,0.5c2.6-0.5,5.3-1.2,7.9-1.8c-0.6-0.3-1.2-0.7-1.8-1
				c0-0.1-2.8,1.4-3.1,1.7c-0.8,0.9-1.1,2.2-0.7,3.3c0.8,2.1,3.4,2.4,4.8,0.9c1.4-1.4-0.8-3.5-2.1-2.1c1-1,2.6-0.7,3.5-1.8
				c0.7-0.9,0.8-1.8,0.5-2.8c-0.2-0.8-1-1.2-1.8-1c-1.1,0.3-2.3,0.5-3.4,0.8c-1,0.2-2.9,1.1-3.9,0.9c-0.9-0.2-0.3-0.1,0.5-0.8
				c0.6-0.6,1-1,1.3-1.8c0.7-1.5-1-3-2.4-1.8c-1.9,1.6-4.1,2.3-6.6,1.9c0.3,0.7,0.6,1.5,0.9,2.2c1.2-1.6,2.8-2.4,4.8-2.6
				C250.7,73.2,250.7,70.2,248.8,70.3L248.8,70.3z"/>
		</g>
	</g>
	<g>
		<g>
			<path class="st1" d="M264.2,73.2c1.9,0,1.9-3,0-3C262.3,70.2,262.3,73.2,264.2,73.2L264.2,73.2z"/>
		</g>
	</g>
	<g>
		<g>
			<path class="st1" d="M277.1,73.5c-2.5,1.9-5,3.7-7.8,5.3c-2.1,1.2-4.7,2.1-6.6,3.7c-2.4,2-3.2,6,0,7.7c1.7,0.9,3.2-1.7,1.5-2.6
				c0-0.8-0.1-1.6-0.1-2.4c0.4-0.3,0.8-0.6,1.2-0.9c0.7-0.4,1.5-0.8,2.2-1.1c1.5-0.7,2.9-1.5,4.3-2.4c2.6-1.6,5.1-3.3,7.4-5.2
				C280.7,74.4,278.6,72.3,277.1,73.5L277.1,73.5z"/>
		</g>
	</g>
	<g>
		<g>
			<path class="st1" d="M262.4,81.6c2.1,0.2,3.9,1.7,4.6,3.6c0.6,1.8,3.5,1,2.9-0.8c-1.1-3.3-4-5.5-7.4-5.8
				C260.5,78.5,260.5,81.5,262.4,81.6L262.4,81.6z"/>
		</g>
	</g>
	<g>
		<g>
			<path class="st1" d="M288.7,79.6c-5.8,3.9-11.6,7.8-16,13.4c-1,1.3,0.2,3.2,1.8,2.4c7-3.6,13.2-8.6,18.3-14.6
				c0.8-0.9,0.4-2.7-1.1-2.6c-2,0.1-3.6,0.8-5,2.4c-1.3,1.4,0.8,3.6,2.1,2.1c0.7-1,1.6-1.5,2.8-1.5c-0.4-0.9-0.7-1.7-1.1-2.6
				c-4.9,5.9-10.8,10.6-17.7,14.2c0.6,0.8,1.2,1.6,1.8,2.4c4.2-5.4,9.8-9.2,15.4-12.9C291.8,81.1,290.3,78.5,288.7,79.6L288.7,79.6z
				"/>
		</g>
	</g>
	<g>
		<g>
			<path class="st1" d="M266,98.8c0.6,1.1,2,1.2,2.9,0.5c1-0.7,1.1-2,0.3-2.9c-0.5-0.6-1.6-0.5-2.1,0c-0.6,0.6-0.5,1.5,0,2.1
				c-0.4-0.6-0.4-1.1,0-1.5c-0.1,0.1-0.1,0.1,0,0c0.5-0.3,1.1-0.2,1.5,0.4c-0.4-0.7-1.3-0.9-2.1-0.5C265.8,97.2,265.6,98.1,266,98.8
				L266,98.8z"/>
		</g>
	</g>
	<g>
		<g>
			<path class="st1" d="M284.4,106.8c3.1-0.3,5.3-1.3,7.6-3.4c0.9-0.8,0.4-2.2-0.7-2.5c-2.2-0.8-3.7-0.3-5.8,0.8
				c-3.5,1.8-6.7,3.9-10.2,5.7c0.8,0.4,1.5,0.9,2.3,1.3c1.1,10,22.1-0.1,26.1-2.5c1.2-0.7,0.8-2.9-0.8-2.8
				c-7.5,0.3-13.8,3.6-18.4,9.5c-1.2,1.5,1.4,3,2.6,1.5c3.9-5,9.5-7.8,15.8-8.1c-0.3-0.9-0.5-1.9-0.8-2.8c-3.6,2.2-7.5,3.9-11.6,5
				c-1.8,0.4-4.2,1.1-6,1c-2.7-0.1-3-1.4-4.8-2.8c-2-1.5-5.5-1.6-5.1,1.8c0.1,1.2,1.2,1.8,2.3,1.3c2.9-1.4,10.6-7.2,13.7-6.2
				c-0.2-0.8-0.4-1.7-0.7-2.5c-1.4,1.6-3.3,2.4-5.5,2.5C282.5,104,282.5,107,284.4,106.8L284.4,106.8z"/>
		</g>
	</g>
	<g>
		<g>
			<path class="st1" d="M288.6,109c1.7,1,3.6,1.7,5.6,2c1.9,0.3,2.7-2.6,0.8-2.9c-1.7-0.3-3.3-0.9-4.8-1.7
				C288.5,105.4,287,108,288.6,109L288.6,109z"/>
		</g>
	</g>
	<g>
		<g>
			<path class="st1" d="M294.3,99.9c1.9,0,1.9-3,0-3C292.3,96.9,292.3,99.9,294.3,99.9L294.3,99.9z"/>
		</g>
	</g>
	<g>
		<g>
			<path class="st1" d="M300.6,113c-1.7-1.9-4.4-1.6-6.4-0.2c-1.2,0.9-1.9,2.1-2.5,3.3c-0.4,0.7-0.7,1.4-1.1,2.1
				c-0.4,0.5-2.7,2.7-3.3,1c-0.6-1.8-3.5-1-2.9,0.8c0.9,2.6,3.7,3.3,6.2,2.2c1.4-0.6,2.3-1.8,3-3.1c0.7-1.2,2.8-6.2,4.9-3.9
				C299.8,116.6,301.9,114.4,300.6,113L300.6,113z"/>
		</g>
	</g>
	<g>
		<g>
			<path class="st1" d="M313.8,118.4c-4.7,6-10,11.4-15.9,16.2c0.8,0.6,1.6,1.2,2.4,1.8c1.4-2.2,3.4-7.1,0.9-9.4
				c-2.3-2.1-4.7,0.6-5.7,2.6c-1.4,2.7-0.8,5.8,2.1,7.2c5,2.4,9.3-3.4,14.3-1.4c0.1-1,0.3-2,0.4-2.9c-4,0.1-6.9,1.7-9.3,4.9
				c-0.8,1,0.3,2.2,1.3,2.3c3.9,0.4,7.1-0.9,9.7-3.7c1.2-1.3-0.3-3.2-1.8-2.4c-1.7,0.9-3.4,2.5-2.3,4.5c1.7,3,6.1,0.1,8.5,0.2
				c-0.5-0.4-1-0.7-1.4-1.1c0.6,1.6-3.2,4.9-4.3,6c-1.3,1.4,0.7,3.4,2.1,2.1c0.7-0.7,5.6-5.3,5.9-2.4c0.1,0.7-1.5,2.4-1.6,3.4
				c-0.1,1.4,0.5,2.8,1.9,3.2c2.2,0.7,6.5-1.9,8.2-3.2c2.2-1.8,3.2-3.9,3.6-6.7c0.1-0.9-1.1-1.8-1.9-1.4c-3.2,1.3-7.6,4.2-6.6,8.3
				c0.7,2.8,3.5,3.6,5.9,2.4c1.7-0.9,0.2-3.4-1.5-2.6c-1.2-2.9-0.2-4.6,3-5.3c-0.6-0.5-1.3-1-1.9-1.4c0.2-1.3-5.7,9.6-7.3,6.3
				c-0.3-0.7,1.3-2.2,1.5-2.9c0.3-1.4,0.1-2.7-1.1-3.6c-3.2-2.5-8,1.7-10.1,3.7c0.7,0.7,1.4,1.4,2.1,2.1c2-2,6.2-5.7,5-8.9
				c-0.2-0.6-0.7-1.1-1.4-1.1c-1.5-0.1-3.4,0.2-4.7,0.9c-0.6-0.8-1.2-1.6-1.8-2.4c-2.1,2.3-4.5,3.2-7.6,2.8c0.4,0.8,0.9,1.5,1.3,2.3
				c1.8-2.3,3.9-3.3,6.7-3.4c1.8-0.1,1.9-2.3,0.4-2.9c-2.2-0.9-4.1-0.7-6.4,0c-1,0.3-3.3,1.8-4.1,1.6c-1.3-1.2-2.6-2.4-3.8-3.6
				c0.9,1.6,0.6,3-0.7,4.4c-0.9,1.6,1.1,2.8,2.4,1.8c6.2-5,11.6-10.5,16.4-16.8C317.6,118.4,315,116.9,313.8,118.4L313.8,118.4z"/>
		</g>
	</g>
	<g>
		<g>
			<path class="st1" d="M342.6,132.6c-2.2,0.4-2.9,3-1.9,4.8c0.7,1.4,2.5,2,2.9,3.6c0.4,1.6-0.7,3.2-2.2,3.6
				c-1.9,0.5-1.1,3.4,0.8,2.9c2.4-0.7,4-2.7,4.4-5.1c0.1-1.1,0-2.3-0.5-3.3c-0.3-0.5-2.9-3.5-2.6-3.6
				C345.3,135.1,344.5,132.2,342.6,132.6L342.6,132.6z"/>
		</g>
	</g>
	<g>
		<g>
			<path class="st1" d="M354.2,131.5c-2-0.2-4,1.1-4.7,3.1c-0.6,2,0.3,4.1,2,5.2c0.6,0.4,1.3,0.2,1.8-0.2c1.8-1.5,2.5-3.9,2-6.2
				c-0.4-1.9-3.3-1.1-2.9,0.8c0.3,1.3-0.2,2.5-1.2,3.3c0.6-0.1,1.2-0.2,1.8-0.2c-1.5-1-0.5-2.9,1.1-2.7
				C356.1,134.7,356.1,131.7,354.2,131.5L354.2,131.5z"/>
		</g>
	</g>
	<g>
		<g>
			<path class="st1" d="M359.7,124.8c-1.7,0.5-3.1,1.7-3.6,3.4c-0.5,1.8,0.3,3.7,1.9,4.7c3.3,1.9,6.9-2.6,4.2-5.3
				c-1.4-1.4-3.5,0.7-2.1,2.1c0.4,0.4-0.4,0.9-0.9,0.3c-0.8-1,0.4-2,1.3-2.3C362.4,127.2,361.6,124.3,359.7,124.8L359.7,124.8z"/>
		</g>
	</g>
	<g>
		<g>
			<path class="st1" d="M364.6,121.8c-0.1,2.1,0.1,4.1,0.5,6.1c0.3,1.4,2.7,1.5,2.9,0c0.3-2,1-3.9,2.2-5.5c-0.5,0.1-1,0.3-1.5,0.4
				c0.5,0.1,0.9,1.4,1.2,1.8c0.4,0.5,1,0.9,1.7,1.1c1.6,0.4,2.9-0.5,3-2.1c0.2-1.9-2.8-1.9-3,0c0.4-0.2,0.6-0.5,0.6-0.8
				c-0.1,0-0.2-0.1-0.2-0.2c-0.1-0.4-0.4-0.8-0.6-1.1c-0.5-0.8-1.1-1.3-2-1.5c-0.5-0.1-1.1,0-1.5,0.4c-1.6,2-2.6,4.2-3,6.8
				c1,0,1.9,0,2.9,0c-0.3-1.8-0.4-3.5-0.4-5.3C367.6,119.9,364.6,119.9,364.6,121.8L364.6,121.8z"/>
		</g>
	</g>
	<g>
		<g>
			<path class="st0" d="M301.2,234.6c0.9-0.4,1.9-0.6,2.1-1.6c0.2-0.7-0.1-1.5-0.6-2c-1-0.9-2.7-0.9-3.6,0.1
				c-2.4,2.9,3.6,5.7,4.5,1.9c0.4-1.6-0.8-3.2-2.4-3.5c-1.6-0.3-3,0.9-3.4,2.3c-1,3.6,3.6,5.5,6.2,3.5c2.7-2.2,2.8-7.7-1.3-8.1
				c-3.9-0.4-5.7,3.7-5.2,7c0.3,1.8,1.6,3,3.4,2.9c1.7-0.1,3.3-1.4,4.4-2.7c1.1-1.3,2-3,1.6-4.7c-0.5-1.7-2.2-2.5-3.8-2.6
				c-2-0.1-4.2,0.4-5.7,1.8c-1.3,1.3-1.8,3.4-1,5.1c0.8,1.8,2.9,2.6,4.8,2c2-0.6,3.3-2.5,3.6-4.5c0.3-1.9-2.5-2.7-2.9-0.8
				c-0.2,1-0.9,3-2.3,2.4c-1.5-0.6,0-2.3,0.8-2.7c0.7-0.3,3.2-0.9,3.6,0c0.4,1-1.5,2.7-2.2,3.2c-0.5,0.4-1,0.7-1.3,0.2
				c-0.2-0.4,0-1.5,0.1-1.9c0.2-0.7,1.2-2.4,2.2-1.5c0.9,0.8-0.3,3.2-1.5,2.9c-0.5-0.1-0.5-0.2-0.4-0.6c0,0,0-0.2-0.1-0.1
				c0.2-0.2,0.3-0.4,0.5-0.6c-0.1,1.8-0.4,1.9-0.9,0.4c0.2-0.3,0.5-0.6,0.7-0.9c-0.5,0.2-0.9,0.4-1.4,0.6
				C297.9,232.8,299.4,235.4,301.2,234.6L301.2,234.6z"/>
		</g>
	</g>
</g>
</svg>
