<?xml version="1.0" encoding="utf-8"?>
<!-- Generator: Adobe Illustrator 21.0.0, SVG Export Plug-In . SVG Version: 6.00 Build 0)  -->
<svg version="1.1" xmlns="http://www.w3.org/2000/svg" xmlns:xlink="http://www.w3.org/1999/xlink" x="0px" y="0px"
	 viewBox="0 0 400 400" style="enable-background:new 0 0 400 400;" xml:space="preserve">
<style type="text/css">
	.st0{fill:#FFE300;}
	.st1{fill:#ED1E79;}
</style>
<g id="tunga">
	<g>
		<g>
			<path class="st0" d="M334.6,149.8c1.8-3,4.1-6,7.4-7.6c3.8-1.9,7.3-0.6,11,0.7c4.4,1.5,8.9,2.6,13.5,3
				c9.3,0.8,17.6-2.2,22.9-10.1c1.1-1.6-1.5-3.1-2.6-1.5c-7.3,10.7-20.3,9.7-31.3,6.3c-4.6-1.4-8.6-3.4-13.5-1.6
				c-4.5,1.6-7.7,5.4-10.1,9.4C331,150,333.6,151.5,334.6,149.8L334.6,149.8z"/>
		</g>
	</g>
	<g>
		<g>
			<path class="st0" d="M364.4,146.2c3,0.2,5-1.8,6.6-4c2.5-3.6,4.7-7.4,7-11.1c1-1.6-1.6-3.1-2.6-1.5c-1.6,2.5-3.2,5-4.7,7.5
				c-1.4,2.2-3.1,6.4-6.2,6.1C362.4,143,362.5,146.1,364.4,146.2L364.4,146.2z"/>
		</g>
	</g>
</g>
<g id="orm">
	<path class="st1" d="M280.1,152.7c-1.8,0.3-3.4,0.7-5,1.1c-18.7-17.6-45.4-33.4-59-37.4c-19.3-5.7-67.7-5.3-84.8,8.9
		c-22.3,18.6-30.7,48.4-29.2,70.7c1.5,22.3,35.8,64.2,54,70.6c33.7,11.9,48.1,5.9,69.4-4.5c13.6-6.6,27-16.4,37.2-24.9
		c-1,7.4-3.6,14.9-8.9,21.9c-9.2,12.1-25.3,17.4-46.1,22.3c-20.8,4.9-60.5,4-87.7-31.5c-19.9-25.9-25.3-52-25.4-75.8
		c0-23.8,24.3-47.8,28.3-54c4-6.2,22.4-14.9,36.3-19.8c13.9-5,38.6-5.9,54.4,1c15.9,6.9,36.8,21.8,49.6,28.3
		c12.9,6.4,21,8.7,31.7,8.4c10.7-0.3,24.3-7.4,36.2-21.5c3.7-4.3,17.8-50.8,13.1-44.9c-18.5,23.1-28.4,39.4-37.9,42.1
		c-9.4,2.8-30.2-9.9-30.2-9.9S226.1,68.7,213.2,64c-12.9-4.7-49.6-10.4-69.5-5.5c-19.8,5-52.5,27.2-65.3,40.4
		c-12.9,13.2-28.8,42.9-32.3,66.7C42.6,189.4,63.7,267.7,82.8,289c35.7,39.8,73.4,45.8,107.1,42.2c33.7-3.6,86.1-23.2,103.1-46.4
		c16.1-22,16.5-49.1,11.8-72.4c2.9-1.2,5.9-2.7,9-4.7c15.9-9.9,35-43.2,21.3-59.2C320.8,131.6,309.4,147.5,280.1,152.7z
		 M319.3,144.5c2.2,0,4.3,0.8,6.3,1.6c2,0.8,0.7,3.8-1.3,3.1c-1.8-0.7-3.5-1.3-5.4-1.4C316.8,147.7,317.2,144.4,319.3,144.5z
		 M285.5,194.1c-1,1.8-4.1,0.6-3.1-1.3c8.4-15.5,24.9-20.9,37.9-31.5c1.7-1.3,3.7,1.3,2,2.6C309.9,174,293.5,179.3,285.5,194.1z
		 M309.5,178.5c-1,0.3-2,0.7-2.9,1.3c-0.8,0.5-1.7,0.5-2.3-0.3c-0.5-0.7-0.5-1.8,0.3-2.3c1.2-0.7,2.4-1.2,3.7-1.7
		c0.8-0.3,1.8,0,2.2,0.9C310.7,177.1,310.4,178.2,309.5,178.5z M275.5,266.2c1.3-1.7,3.9,0.3,2.6,2c-6.3,8.4-14.3,15.2-23.8,19.8
		c-1.9,0.9-3.2-2.1-1.3-3C262,280.5,269.5,274.2,275.5,266.2z M269.2,260.5c5.3-10.5,5.9-21,5.9-32.6c0-2.1,3.3-1.7,3.3,0.4
		c0,11.8-0.7,22.7-6.2,33.4C271.3,263.6,268.2,262.4,269.2,260.5z M273.1,227.5c-1.4,1.6-4-0.4-2.6-2c3.4-4,6.8-7.9,10.7-11.3
		c1.6-1.4,3.6,1.2,2,2.6C279.6,220,276.4,223.7,273.1,227.5z M138.2,147.6c1.7-1.2,3.8,1.4,2,2.6c-8.8,6.1-12.6,15.7-14.8,25.9
		c-0.5,2.1-3.7,1.7-3.3-0.4C124.6,164.7,128.7,154.2,138.2,147.6z M128.7,149.9c1.6-3.7,3.5-7.3,6.7-9.8c1.7-1.3,3.7,1.3,2,2.6
		c-2.8,2.2-4.3,5.4-5.7,8.5C130.9,153.1,127.9,151.8,128.7,149.9z M195,236.4c2.1,0.2,1.7,3.5-0.4,3.3c-6.5-0.6-13.2-0.7-19-4.2
		c-1.8-1.1,0.2-3.7,2-2.6C182.8,236,189.2,235.9,195,236.4z M180,226c4.3,1.5,8.8,2.1,13.3,2.6c2.1,0.2,1.7,3.5-0.4,3.3
		c-4.8-0.5-9.6-1.2-14.2-2.9C176.8,228.4,178,225.3,180,226z M193.9,242.4c0.6,0,1.1,0.2,1.7,0.3c0.1,0,0.2,0.1,0.4,0.1
		c0,0,0,0,0.1,0c0.2,0,0.4,0.1,0.7,0.1c0.9,0,1.5,1,1.4,1.8c-0.1,0.9-1,1.5-1.8,1.4c-0.6,0-1.1-0.2-1.7-0.3c-0.1,0-0.2-0.1-0.4-0.1
		c0,0,0,0-0.1,0c-0.2,0-0.4-0.1-0.7-0.1c-0.9,0-1.5-1-1.4-1.8C192.1,242.9,193.1,242.4,193.9,242.4z M174.1,220.3
		c-12.9-5.2-17.8-14.6-19.3-26s1.4-26.3,11.9-31.5c10.5-5.2,26.2-10.4,43.1-1.5c10,5.3,24.3,17,34.2,25.6c-0.2,0.5-0.3,1-0.5,1.5
		c-3.9,12.3-28.2,25.4-35.8,30.8C200.7,224.4,192.4,227.8,174.1,220.3z M211.9,153.4c1.9,0.9,0.7,4-1.3,3.1
		c-8.6-4.2-18.3-7.8-27.9-4.4c-2,0.7-3.3-2.3-1.3-3C191.9,145.3,202.4,148.8,211.9,153.4z M189.8,141.6c5.6-0.7,11.2-0.7,16.6,0.8
		c2,0.6,0.8,3.6-1.3,3.1c-4.9-1.4-9.9-1.3-14.9-0.6C188.2,145.1,187.7,141.8,189.8,141.6z M184.6,135.1c-2.9,0.4-5.7,0.9-8.6,1.5
		c-1.6,0.3-6.7,0.9-7.4,1.7c-1.4,1.6-4-0.4-2.6-2c1.5-1.8,5.1-2.1,7.2-2.5c3.6-0.8,7.3-1.4,10.9-2
		C186.2,131.5,186.7,134.8,184.6,135.1z M183,138.4c2.1-0.4,2.6,2.9,0.5,3.3c-10.7,2.1-20,6.1-27,14.8c-1.3,1.7-4-0.3-2.6-2
		C161.4,145.1,171.5,140.7,183,138.4z M173.8,150.4c-0.7,0.5-1.7,0.5-2.3-0.3c-0.5-0.7-0.5-1.8,0.3-2.3c1.4-0.9,2.8-1.7,4.4-2.2
		c0.9-0.2,1.8,0.6,1.9,1.4c0.1,1-0.5,1.6-1.4,1.9C175.7,149.1,174.7,149.8,173.8,150.4z M173.1,156.8c-1.4,0.7-2.6,1.8-4,2.6
		c-0.8,0.4-1.8-0.1-2.2-0.9c-0.4-0.9,0.1-1.8,0.9-2.2c1.4-0.7,2.6-1.8,4-2.6c0.8-0.4,1.8,0.1,2.2,0.9
		C174.3,155.5,173.9,156.4,173.1,156.8z M165.8,155.5c-1.4,1.4-2.8,2.8-4.4,4c-1.7,1.3-3.7-1.3-2-2.6c1.6-1.2,3-2.6,4.4-4
		c0.6-0.6,1.8-0.4,2.3,0.3C166.6,153.9,166.4,154.9,165.8,155.5z M155.6,167.1c-4.1,7.7-8.4,15.4-8.1,24.4c0.1,2.1-3.2,2.6-3.3,0.5
		c-0.3-9.7,3.9-17.8,8.4-26.2C153.6,164,156.6,165.2,155.6,167.1z M153.5,189.6c-0.3,1.8-0.4,3.7-0.4,5.5c0,0.9-1,1.5-1.8,1.4
		c-1-0.1-1.4-0.9-1.4-1.8c0-1.8,0-3.7,0.4-5.5C150.6,187.1,153.9,187.5,153.5,189.6z M145.6,200.8c-0.8,0.3-1.9,0-2.2-0.9
		c-0.4-1.3-0.5-2.5-0.5-3.8c0-0.9,1-1.5,1.8-1.4c1,0.1,1.4,0.9,1.4,1.8c0,0.6,0,1.4,0.2,2.1C146.7,199.5,146.5,200.4,145.6,200.8z
		 M146.7,169.8c-1.9,1.7-2.5,4.3-3.2,6.7c-0.6,2-3.6,0.8-3.1-1.3c0.9-3,1.8-5.9,4.2-8C146.2,165.8,148.3,168.4,146.7,169.8z
		 M143.5,203.8c3.5,12.2,10.2,22.9,20.4,30.7c1.7,1.3-0.3,3.9-2,2.6c-10.6-8.1-17.8-19.3-21.4-32
		C139.9,203.1,142.9,201.8,143.5,203.8z M163.8,226.4c-6.2-6.8-13.1-13.8-14.6-23.3c-0.3-2.1,2.9-2.6,3.3-0.5
		c1.4,8.8,8.2,15.4,14,21.8C167.8,225.9,165.2,227.9,163.8,226.4z M213.5,147.3c0.4-0.9,1.3-1.2,2.2-0.9c1.2,0.4,2.4,0.6,3.6,0.6
		c0.9,0,1.5,1,1.4,1.8c-0.1,1-0.9,1.5-1.8,1.4c-1.5,0-3-0.4-4.5-0.8C213.5,149.2,213.1,148.1,213.5,147.3z M233.2,165.2
		c4.7,4.1,9.1,8.6,13,13.5c1.3,1.7-1.3,3.7-2.6,2c-3.7-4.7-7.9-9-12.4-12.9C229.6,166.4,231.6,163.8,233.2,165.2z M226.6,151.5
		c-2-0.8-0.7-3.9,1.3-3.1c3,1.2,5.8,2.9,8.1,5.2c1.5,1.5-0.5,4.1-2,2.6C231.8,154.2,229.4,152.6,226.6,151.5z M207.4,230.4
		c17.2-8.7,26.7-26,40.3-38.8c1.5-1.5,3.6,1.2,2,2.6c-13.9,13.1-23.5,30.4-41.1,39.3C206.8,234.4,205.5,231.4,207.4,230.4z
		 M254.1,182.7c-1.3,1.4-2.5,2.9-3.7,4.4c-1.3,1.7-3.9-0.3-2.6-2c1.1-1.5,2.3-3,3.7-4.4c0.6-0.6,1.5-0.9,2.3-0.3
		C254.4,180.9,254.7,182.1,254.1,182.7z M255.6,186.6c0.6,0.5,0.9,1.7,0.3,2.3c-1,1-1.8,2.1-2.6,3.3c-0.5,0.7-1.6,0.8-2.3,0.3
		c-0.7-0.6-0.8-1.6-0.3-2.3c0.8-1.2,1.6-2.3,2.6-3.3C253.9,186.3,254.8,186,255.6,186.6z M234.2,218.3c5.7-8.7,10.8-18.2,20.5-23.1
		c1.9-1,3.2,2.1,1.3,3c-9.1,4.6-13.8,13.9-19.1,22C235.7,222.1,233,220.1,234.2,218.3z M243.3,161.2c-1.8-1.2,0.2-3.8,2-2.6
		c4.7,3.1,9.2,6.5,13.8,9.9c1.7,1.3-0.3,3.9-2,2.6C252.6,167.7,248,164.3,243.3,161.2z M244.2,155.1c-0.8,0.6-1.7,0.3-2.3-0.3
		c-1.2-1.2-2.4-2.4-3.7-3.7c-0.6-0.6-0.4-1.8,0.3-2.3c0.8-0.6,1.7-0.3,2.3,0.3l3.7,3.7C245.2,153.5,244.9,154.6,244.2,155.1z
		 M252.8,175.9c1.4,1.6-1.2,3.6-2.6,2c-4.7-5.2-9.1-10.7-14.6-15.1c-1.6-1.3,0.4-4,2-2.6C243.3,164.9,247.9,170.5,252.8,175.9z
		 M234,145.2c-2.6-1.6-5.1-3.4-7.7-5c-1.8-1.1,0.2-3.7,2-2.6c2.6,1.6,5.1,3.4,7.7,5C237.8,143.7,235.8,146.3,234,145.2z
		 M230.5,158.6c1.8,1.1-0.2,3.7-2,2.6c-1.6-1-3.2-2-4.9-2.9c-1.2-0.6-3-1.7-4.4-1.3c-2,0.6-3.3-2.4-1.3-3
		C222.3,152.6,226.8,156.4,230.5,158.6z M222.2,146c-10.3-3-20.1-8.4-30.9-9.2c-2.1-0.2-1.7-3.4,0.4-3.3c11.2,0.9,21.2,6.3,31.8,9.5
		C225.5,143.6,224.3,146.6,222.2,146z M190.3,130.1c-12.5-4-25.6-1.3-35.8,6.9c-1.7,1.3-3.7-1.3-2-2.6c11.2-9,25.4-11.8,39.1-7.4
		C193.6,127.7,192.3,130.7,190.3,130.1z M157.3,139.1c2-0.8,3.3,2.2,1.3,3c-2.9,1.2-5.6,3.1-7.9,5.3c-1.5,1.5-3.5-1.1-2-2.6
		C151.1,142.4,154.1,140.4,157.3,139.1z M148.3,158.7c-8.4,8.9-10.6,20.4-10.7,32.2c0,2.1-3.3,1.7-3.3-0.4
		c0.1-12.4,2.5-24.5,11.3-33.8C147.1,155.2,149.7,157.1,148.3,158.7z M140.3,199.8c0,0.9-0.4,1.7-1.4,1.9c-0.8,0.1-1.9-0.5-1.9-1.4
		c0-1.5-0.3-2.9-0.4-4.4c0-0.9,0.4-1.7,1.4-1.9c0.8-0.1,1.9,0.5,1.9,1.4C140,196.9,140.3,198.3,140.3,199.8z M131.2,169.8
		c0.8-3.9,2.2-7.6,4.1-11.1c1-1.8,4.1-0.6,3.1,1.3c-1.8,3.2-3.2,6.6-3.9,10.2C134,172.2,130.7,171.8,131.2,169.8z M125.8,183.6
		c0.6-1.9,1-3.8,1.4-5.8c0.4-2.1,3.6-1.7,3.3,0.4c-0.4,2.3-0.9,4.5-1.6,6.7C128.2,186.9,125.1,185.7,125.8,183.6z M132.1,194.3
		c1.4,8.6,6.8,15.5,10.3,23.2c0.9,1.9-2.2,3.2-3,1.3c-3.6-8.1-9.2-15.1-10.6-24.1C128.5,192.7,131.7,192.2,132.1,194.3z
		 M142.3,223.7c3.2,2.8,6.2,5.8,9.5,8.4c1.7,1.3-0.3,3.9-2,2.6c-3.3-2.6-6.4-5.6-9.5-8.4C138.7,224.9,140.7,222.3,142.3,223.7z
		 M155.1,244.4c4.5,2.8,9.4,4.8,14.5,6.4c2,0.6,0.8,3.7-1.3,3.1c-5.4-1.7-10.4-3.9-15.2-6.8C151.3,245.9,153.3,243.3,155.1,244.4z
		 M168.5,244.3c-1.8-1.1,0.2-3.7,2-2.6c7.4,4.6,15.2,7.3,24,7.9c2.1,0.2,1.7,3.4-0.4,3.3C184.7,252.2,176.4,249.2,168.5,244.3z
		 M194.9,254.2c2.2-0.3,4.5-0.4,6.7,0c2.1,0.4,1.7,3.7-0.4,3.3c-1.9-0.4-3.8-0.3-5.8,0C193.3,257.8,192.8,254.5,194.9,254.2z
		 M202.1,241c-0.8,0.5-1.7,0.5-2.3-0.3c-0.5-0.7-0.5-1.8,0.3-2.3c1.5-0.9,3.1-1.4,4.8-1.4c0.9,0,1.7,0.4,1.9,1.4
		c0.1,0.8-0.5,1.9-1.4,1.9C204.2,240.2,203,240.3,202.1,241z M204.1,243.6c2-0.7,4-1.5,5.9-2.6c0.8-0.5,1.9,0.1,2.2,0.9
		c0.4,0.9-0.1,1.7-0.9,2.2c-1.9,1.1-3.8,1.9-5.9,2.6C203.4,247.3,202,244.3,204.1,243.6z M207.9,251.9c4-2.3,7.5-5.4,11.2-8
		c1.7-1.2,3.8,1.4,2,2.6c-4,2.9-7.7,6-11.9,8.5C207.4,256,206.1,253,207.9,251.9z M214.7,239.5c-2,0.6-3.3-2.4-1.3-3
		c5.5-1.6,9.8-4.6,13.1-9.4c1.2-1.8,3.8,0.3,2.6,2C225.6,234.3,220.7,237.8,214.7,239.5z M228.2,242.5c1.9-2.5,4.4-4.3,7.3-5.5
		c2-0.8,3.3,2.2,1.3,3c-2.4,1-4.4,2.4-5.9,4.4C229.5,246.2,226.9,244.2,228.2,242.5z M236,233.8c-1.6,1.4-3.6-1.2-2-2.6
		c9.9-8.6,15.1-21.4,25.9-29.2c1.7-1.2,3.8,1.4,2,2.6C251.2,212.4,245.9,225.2,236,233.8z M262.1,194.4c-1.2,1.7-3.9-0.3-2.6-2
		c6.4-9,10.2-19.7,18.5-27.3c1.6-1.4,3.6,1.2,2,2.6C272,175.1,268.3,185.7,262.1,194.4z M291,172.2c-1.8,1.1-3.8-1.5-2-2.6
		c5.9-3.7,12.1-6.7,17.6-11c1.7-1.3,3.7,1.3,2,2.6C303.1,165.5,296.9,168.5,291,172.2z M304,168.7c-1.9,1.8-4.2,3.2-5.9,5.2
		c-1.4,1.6-4-0.4-2.6-2c1.9-2.2,4.4-3.8,6.5-5.8C303.5,164.6,305.5,167.2,304,168.7z M289,178.8c-2.4,1.4-4.5,3.3-5.9,5.7
		c-1.1,1.8-3.7-0.2-2.6-2c1.7-2.9,4.4-5.1,7.3-6.8c0.8-0.4,1.9,0.1,2.2,0.9C290.2,177.5,289.8,178.4,289,178.8z M288.9,164.7
		c-2.2,2.2-4,4.7-6.2,7c-1.5,1.5-4.1-0.5-2.6-2c2.2-2.2,4-4.7,6.2-7C287.8,161.2,290.4,163.2,288.9,164.7z M265.7,196.5
		c1.1-0.9,1.8-2.1,2.4-3.4c0.4-0.8,1.3-1.3,2.2-0.9c0.8,0.3,1.3,1.4,0.9,2.2c-0.9,1.8-1.8,3.5-3.4,4.7
		C266,200.5,264,197.9,265.7,196.5z M271.4,189c1.7-4,3.5-8,6.3-11.4c1.3-1.7,4,0.3,2.6,2c-2.6,3.2-4.2,6.9-5.8,10.6
		C273.6,192.2,270.6,190.9,271.4,189z M277.5,207.2c0.8-3,1.9-5.8,3.4-8.5c1-1.8,4.1-0.6,3.1,1.3c-1.4,2.4-2.5,4.9-3.2,7.6
		C280.3,209.6,277,209.2,277.5,207.2z M281.7,225.6c0-2.1,3.2-2.6,3.3-0.5c0.1,8.1,1.4,16.1-0.5,24.1c-0.5,2-3.8,1.7-3.3-0.4
		C283.1,241.1,281.9,233.4,281.7,225.6z M284.1,215.5c1.4-2.1,2.4-4.2,3.1-6.6c0.6-2,3.7-0.8,3.1,1.3c-0.8,2.6-2,5-3.5,7.3
		C285.5,219.3,282.9,217.3,284.1,215.5z M287.4,198c0.5-2.1,1.2-4.1,2.5-5.9c1.2-1.7,3.9,0.3,2.6,2c-0.9,1.3-1.5,2.8-1.9,4.3
		C290.3,200.5,287,200.1,287.4,198z M287.8,202.4c-0.5,2.2-1.2,4.2-1.9,6.3c-0.7,2-3.7,0.7-3.1-1.3c0.6-1.8,1.3-3.6,1.7-5.4
		C284.9,200,288.2,200.4,287.8,202.4z M281.5,265.1c2.5-2.5,4.4-5.5,6.6-8.3c1.3-1.7,3.9,0.3,2.6,2c-2.2,2.8-4.1,5.7-6.6,8.3
		C282.7,268.6,280,266.6,281.5,265.1z M289.4,250.5c2.2-9.8,3.7-19.9,1.1-29.8c-0.5-2.1,2.7-2.5,3.3-0.5c2.7,10.1,1.2,20.7-1.1,30.7
		C292.3,252.9,289,252.5,289.4,250.5z M294.5,185.8c0.9-1.7,2.1-3,3.4-4.3c0.6-0.6,1.8-0.4,2.3,0.3c0.6,0.8,0.3,1.7-0.3,2.3
		c-0.9,0.9-1.8,1.9-2.4,3c-0.4,0.8-1.3,1.3-2.2,0.9C294.6,187.7,294.1,186.6,294.5,185.8z M313.9,163.1c-1.3,0.7-2.5,1.8-3.7,2.7
		c-1.7,1.3-3.7-1.3-2-2.6c1.4-1.1,2.8-2.3,4.4-3.1c0.8-0.4,1.8,0.1,2.2,0.9C315.2,161.7,314.7,162.6,313.9,163.1z M314.7,157.3
		c-0.6,0.6-1.8,0.4-2.3-0.3c-0.6-0.8-0.4-1.7,0.3-2.3c1.8-1.8,3.9-3.2,5.9-4.8c1.7-1.3,3.7,1.3,2,2.6
		C318.5,154.1,316.5,155.6,314.7,157.3z M315.9,149.8l-21.5,11.6c-1.9,1-3.2-2-1.3-3l21.5-11.6C316.5,145.8,317.8,148.8,315.9,149.8
		z M299.1,150.7c1.6-1.2,3.3-2.4,5.1-3.1c2-0.8,3.3,2.2,1.3,3c-1.6,0.7-3,1.7-4.4,2.7C299.4,154.6,297.4,152,299.1,150.7z
		 M286.6,155.8c1.7-1.7,3.5-3.4,5.5-4.8c1.8-1.2,3.8,1.4,2,2.6c-2,1.4-3.8,3-5.5,4.8c-0.6,0.6-1.8,0.4-2.3-0.3
		C285.7,157.4,285.9,156.5,286.6,155.8z M281.1,156.2c2-0.7,3.3,2.3,1.3,3c-11.3,4.2-17.1,15.4-21.1,26.1c-0.7,2-3.8,0.7-3.1-1.3
		C262.5,172.6,269,160.7,281.1,156.2z M253.2,142.4c6.4,3.5,12.8,7.2,17.2,13.2c1.3,1.7-1.3,3.7-2.6,2c-4-5.5-10-8.9-15.8-12.1
		C250.1,144.4,251.3,141.4,253.2,142.4z M244.2,139c0.1-0.9,0.9-1.5,1.8-1.4c1.4,0,2.6,0.7,3.7,1.4c0.7,0.5,0.8,1.6,0.3,2.3
		c-0.6,0.7-1.6,0.8-2.3,0.3c-0.4-0.3-0.6-0.4-1.1-0.6c-0.1,0-0.2-0.1-0.2-0.1c0,0,0,0-0.1,0c-0.2,0-0.5-0.1-0.7-0.1
		C244.7,140.8,244.1,139.8,244.2,139z M242.6,144.3c8,4.6,15.2,10.3,21.2,17.4c1.4,1.6-1.2,3.6-2.6,2c-5.8-6.8-12.9-12.3-20.6-16.8
		C238.7,145.8,240.8,143.2,242.6,144.3z M232.7,130.5c2.6,1.6,5.2,3.1,7.7,5c1.7,1.3-0.3,3.9-2,2.6c-2.5-1.8-5.1-3.4-7.7-5
		C228.8,132,230.9,129.4,232.7,130.5z M222.2,123c2.1,0.7,4.2,1.2,6.2,1.8c2,0.7,0.8,3.7-1.3,3.1c-2.1-0.7-4.2-1.2-6.2-1.8
		C218.9,125.4,220.2,122.3,222.2,123z M223.5,130.3c2,0.7,0.7,3.8-1.3,3.1c-4.3-1.6-8.7-3.1-13.3-3.7c-2.1-0.3-1.7-3.6,0.4-3.3
		C214.2,127,218.9,128.6,223.5,130.3z M203.3,118.1c3.7,0,7.3,0.1,11,0.6c2.1,0.3,1.7,3.6-0.4,3.3c-3.7-0.5-7.3-0.5-11-0.6
		C200.7,121.4,201.2,118.1,203.3,118.1z M196.1,127.4c5.5,0.7,10.3,2.8,15.3,5.1c1.9,0.9,0.7,3.9-1.3,3.1c-4.7-2.1-9.3-4.2-14.4-4.8
		C193.6,130.5,194,127.2,196.1,127.4z M171.6,120.4c7.1-2.2,14.3-2.8,21.8-1.8c2.1,0.3,1.7,3.6-0.4,3.3c-6.8-0.9-13.5-0.5-20.1,1.5
		C170.9,124.1,169.6,121,171.6,120.4z M159.5,119.9l5-1.7c2-0.7,3.3,2.4,1.3,3l-5,1.7C158.8,123.6,157.5,120.5,159.5,119.9z
		 M152.9,129.3c-3.8,2.8-7.1,6.1-10.2,9.6c-1.4,1.6-4-0.4-2.6-2c3.2-3.8,6.7-7.3,10.7-10.2C152.6,125.4,154.6,128,152.9,129.3z
		 M137.4,128.1c3.6-4,8.4-5.3,13.3-7.1c2-0.7,3.3,2.3,1.3,3c-4.2,1.5-8.9,2.6-12,6.1C138.6,131.6,135.9,129.6,137.4,128.1z
		 M115.1,169.6c2.5-14.8,9-28.5,21-38c1.7-1.3,3.7,1.3,2,2.6c-11.2,8.9-17.4,21.8-19.7,35.8C118,172.1,114.7,171.7,115.1,169.6z
		 M120.5,175.3c-0.4,1.8-0.7,3.7-1.1,5.5c-0.4,2.1-3.7,1.7-3.3-0.4c0.4-1.8,0.7-3.7,1.1-5.5C117.7,172.8,120.9,173.2,120.5,175.3z
		 M110.3,169.8c0-0.9,1-1.5,1.8-1.4c0.9,0.1,1.5,0.9,1.4,1.8c0,1.1-0.3,2.2-0.4,3.3c0,0.9-1,1.5-1.8,1.4c-0.9-0.1-1.5-0.9-1.4-1.8
		C109.9,172,110.3,170.9,110.3,169.8z M109,180.6c0.4-2.1,3.7-1.7,3.3,0.4c-2,10.5-0.3,20.4,4.3,30c0.9,1.9-2.1,3.2-3,1.3
		C108.7,202.2,106.9,191.6,109,180.6z M117.7,223c-0.6,0.5-1.9,0.5-2.3-0.3c-1.1-1.8-2.2-3.7-3.3-5.5c-0.5-0.8-0.5-1.7,0.3-2.3
		c0.6-0.5,1.9-0.5,2.3,0.3c1.1,1.8,2.2,3.7,3.3,5.5C118.4,221.4,118.5,222.4,117.7,223z M135.2,242.9c-6.6-7.7-13.7-15.2-15.7-25.5
		c-0.4-2.1,2.9-2.6,3.3-0.5c1.9,9.7,8.9,16.8,15.1,24C139.2,242.5,136.6,244.5,135.2,242.9z M140.7,235.7
		c-12.7-13.1-19-30-22.9-47.5c-0.5-2.1,2.8-2.5,3.3-0.5c3.8,17,9.9,33.3,22.2,46C144.8,235.2,142.2,237.2,140.7,235.7z M174.8,263.3
		c-12-0.7-23.2-3.9-31.4-13.3c-1.4-1.6,1.2-3.6,2.6-2c7.6,8.7,18.1,11.4,29.2,12C177.3,260.1,176.9,263.4,174.8,263.3z M184.6,257
		c-1.5-0.6-3.1-1.4-4.7-1.7c-2.1-0.4-1.7-3.7,0.4-3.3c1.9,0.4,3.7,1.2,5.6,1.9C187.9,254.7,186.6,257.7,184.6,257z M208.3,262.7
		c-7.1,1.6-14.1,2.6-21.3,2.2c-2.1-0.1-1.7-3.4,0.4-3.3c7,0.4,13.7-0.7,20.5-2.2C209.9,259,210.3,262.3,208.3,262.7z M246.4,244.8
		c-8.9,6.2-17.5,12.7-27.3,17.3c-1.9,0.9-3.2-2.1-1.3-3c9.6-4.4,17.9-10.8,26.6-16.8C246.1,241,248.2,243.6,246.4,244.8z
		 M245.2,227.7c8.1-11.5,20.3-18.9,29.2-29.7c1.3-1.6,4,0.4,2.6,2c-8.9,10.8-21,18.2-29.2,29.7C246.6,231.4,244,229.4,245.2,227.7z
		 M255.5,236.8c-1.4,1.6-4-0.4-2.6-2c7-8.2,13.3-17,20.9-24.8c1.5-1.5,4.1,0.5,2.6,2C268.9,219.8,262.6,228.6,255.5,236.8z
		 M257.3,266.7c5.8-7.5,9.5-15.6,10.7-25.1c0.3-2.1,3.5-1.7,3.3,0.4c-1.3,10-5.2,18.7-11.3,26.7C258.6,270.4,256,268.4,257.3,266.7z
		 M252.5,277.2c2-0.8,3.3,2.2,1.3,3c-2.3,0.9-4.5,1.9-6.2,3.6c-1.5,1.5-3.5-1.1-2-2.6C247.5,279.4,250,278.2,252.5,277.2z
		 M247.5,293.2l-5,3.3c-1.8,1.2-3.8-1.4-2-2.6l5-3.3C247.3,289.4,249.3,292,247.5,293.2z M237.6,275.5c3.4-1.2,6.5-2.8,9.5-4.7
		c1.8-1.2,3.8,1.4,2,2.6c-3.2,2.1-6.6,3.9-10.3,5.2C236.9,279.3,235.6,276.2,237.6,275.5z M210,290.8c9.5-2.2,18.8-5.3,28.2-8.1
		c2-0.6,3.3,2.4,1.3,3c-9.7,2.9-19.2,6.1-29,8.4C208.4,294.6,207.9,291.3,210,290.8z M142.1,277.2c15.3,5.7,29.5,14.2,45.8,16.9
		c2.1,0.4,1.7,3.6-0.4,3.3c-16.6-2.8-31-11.3-46.6-17.2C138.8,279.5,140.1,276.4,142.1,277.2z M165.9,297.8
		c-1.8-1.4-3.7-2.7-5.9-3.5c-2-0.7-0.7-3.8,1.3-3.1c2.4,0.9,4.6,2.3,6.6,3.9C169.6,296.5,167.6,299.1,165.9,297.8z M139.9,283.8
		c0.6-0.8,1.6-0.8,2.3-0.3c1.7,1.1,3.4,2.2,5.1,3.3c0.8,0.5,0.8,1.7,0.3,2.3c-0.6,0.8-1.6,0.8-2.3,0.3c-1.7-1.1-3.4-2.2-5.1-3.3
		C139.5,285.6,139.5,284.4,139.9,283.8z M138.6,293.4c9,6.4,16.7,13.6,27.8,16.2c2.1,0.5,1.7,3.7-0.4,3.3
		c-11.9-2.7-19.8-10-29.4-16.8C134.9,294.7,136.9,292.1,138.6,293.4z M133.5,289.7c-7.9-1.9-14.6-6-20.6-11.3c-1.6-1.4,0.4-4,2-2.6
		c5.5,4.9,11.7,9,19,10.7C136,286.9,135.6,290.2,133.5,289.7z M108.3,275.9c5.1,10.6,15,16.3,25.5,20.6c2,0.8,0.7,3.9-1.3,3.1
		c-11.3-4.6-21.8-11-27.3-22.3C104.3,275.2,107.4,274,108.3,275.9z M106.5,264.2c0.8-0.3,1.9,0,2.2,0.9c0.1,0.1,0.1,0.3,0.2,0.4
		c0,0,0.1,0.2,0.1,0.2c0.1,0.2,0.2,0.3,0.4,0.5c0.3,0.4,0.7,0.7,1,1.1c0.6,0.6,0.4,1.8-0.3,2.3c-0.8,0.6-1.7,0.3-2.3-0.3
		c-0.9-0.9-1.6-1.8-2-2.9C105.3,265.5,105.6,264.6,106.5,264.2z M132.7,279.5c-0.5,0.6-1.7,0.9-2.3,0.3c-1.7-1.7-3.5-3.2-5.5-4.4
		c-0.8-0.5-0.8-1.7-0.3-2.3c0.6-0.8,1.5-0.8,2.3-0.3c2,1.2,3.8,2.7,5.5,4.4C133,277.8,133.3,278.8,132.7,279.5z M115.8,250.7
		c4.6,6.7,10.2,12.4,16,18.2c1.5,1.5-1.1,3.5-2.6,2c-5.7-5.7-11.4-11.5-16-18.2C112,251,114.6,249,115.8,250.7z M104.3,230.2
		c0.8,2,1.6,4.1,2,6.3c0.4,2.1-2.9,2.6-3.3,0.5c-0.3-1.9-1-3.7-1.7-5.5C100.4,229.5,103.5,228.2,104.3,230.2z M102.6,244.1
		c5,8.3,10,16.5,16,24.2c1.3,1.7-1.3,3.7-2.6,2c-5.9-7.7-11-15.9-16-24.2C98.9,244.4,101.5,242.3,102.6,244.1z M63.9,191.6
		c0.6,2-2.7,2.5-3.3,0.5c-2.3-8.1-4.2-16.2-3.9-24.6c0.1-2.1,3.4-1.7,3.3,0.4C59.7,176,61.6,183.8,63.9,191.6z M105.5,106.6
		c1.4-1.6,4,0.4,2.6,2c-7.2,8.1-14.7,16-20.7,25c-6.6,9.7-10.5,20.4-12.5,32c-0.4,2.1-3.6,1.7-3.3-0.4c1.9-11.1,5.6-21.6,11.6-31.1
		C89.4,124.1,97.7,115.4,105.5,106.6z M85.7,113.2c6-7,12.5-13.3,20.1-18.5c1.8-1.2,3.8,1.4,2,2.6c-7.4,5-13.7,11-19.5,17.9
		C86.9,116.8,84.3,114.8,85.7,113.2z M104.6,120c-1.1,2.5-2.4,5-3.9,7.3c-1.2,1.8-3.8-0.2-2.6-2c1.4-2.1,2.5-4.3,3.5-6.6
		c0.3-0.6,0.8-0.9,1.3-1c0.1,0,0.3,0,0.4,0c0.8,0,1.3,0.5,1.4,1.1C104.8,119.1,104.8,119.5,104.6,120z M96,234.8
		c1.1,1.8-1.5,3.9-2.6,2c-7.7-12.9-7.5-26.3-7.5-40.8c0-2.1,3.3-1.7,3.3,0.4C89.1,209.9,88.8,222.8,96,234.8z M90.2,238.8
		c-0.6,0.5-1.9,0.5-2.3-0.3c-0.9-1.6-1.9-3.3-3.4-4.5c-1.7-1.3,0.3-3.9,2-2.6c1.7,1.4,2.9,3.2,4,5.1C90.9,237.2,91,238.1,90.2,238.8
		z M87.5,182.2c0.3,2.1-3,2.6-3.3,0.5c-2.2-16.3-1.3-33.1,8.6-46.9c1.2-1.7,3.9,0.3,2.6,2C86.1,150.8,85.4,166.8,87.5,182.2z
		 M79.8,195.4c0.3,2.1-2.9,2.6-3.3,0.5c-1.3-8.1-4.7-15.8-3.3-24.1c0.4-2.1,3.6-1.7,3.3,0.4C75.2,180.1,78.5,187.7,79.8,195.4z
		 M79.1,203.2c0,2.3,0.4,4.6,0.7,6.9c0.3,2.1-2.9,2.6-3.3,0.5c-0.4-2.6-0.7-5.2-0.7-7.8C75.8,200.7,79.1,201.1,79.1,203.2z
		 M78,162.8c0.4-3.1,0.7-6.2,1.5-9.2c0.5-2,3.8-1.7,3.3,0.4c-0.7,3-1.1,6.1-1.5,9.2C81,165.3,77.7,164.9,78,162.8z M69.9,193.8
		c1.4,6.9,1.2,14,2.2,20.9c0.3,2.1-3,2.6-3.3,0.5c-1-7-0.8-14-2.2-20.9C66.2,192.1,69.5,191.7,69.9,193.8z M67.7,155.5
		c0.4-2.1,1.1-4.1,1.5-6.2c0.4-2.1,3.7-1.7,3.3,0.4c-0.4,2.1-1.1,4.1-1.5,6.2C70.6,158,67.4,157.6,67.7,155.5z M75.2,138.5
		c0.8-2,1.8-3.9,2.6-5.9c0.8-2,3.9-0.7,3.1,1.3c-0.8,2-1.8,3.9-2.6,5.9C77.4,141.8,74.4,140.5,75.2,138.5z M82.2,123.5
		c-7.3,8.1-12.4,17.4-15.7,27.7c-0.7,2-3.7,0.8-3.1-1.3c3.5-10.6,8.7-20.2,16.2-28.4C81,119.9,83.7,121.9,82.2,123.5z M64.6,160.9
		c0.6-2,3.6-0.8,3.1,1.3c-2,7.1-1.6,14.3-1.5,21.6c0,2.1-3.3,1.7-3.3-0.4C62.8,175.7,62.5,168.3,64.6,160.9z M67,219.2
		c3.3,8.3,6.3,16.8,10.5,24.8c1,1.9-2.1,3.2-3,1.3c-4.2-8-7.1-16.4-10.5-24.8C63.2,218.5,66.3,217.2,67,219.2z M77.1,219
		c0-0.9,0.4-1.7,1.4-1.9c0.8-0.1,1.9,0.5,1.9,1.4c0,1.9,0.4,3.8,1,5.6c0.7,2-2.4,3.3-3,1.3C77.6,223.4,77.1,221.2,77.1,219z
		 M81.9,233.5c4.5,10.7,12.1,19,20.1,27.1c1.5,1.5-1.1,3.5-2.6,2c-8.3-8.3-16-16.9-20.6-27.9C78,232.8,81.1,231.5,81.9,233.5z
		 M81.7,251.8c3.4,5.1,6.2,10.5,9.9,15.4c1.3,1.7-1.3,3.7-2.6,2c-3.7-4.9-6.5-10.3-9.9-15.4C77.9,252.1,80.5,250.1,81.7,251.8z
		 M84.6,269.8c2.8,5.9,7.6,10.3,11.9,15c1.4,1.6-1.2,3.6-2.6,2c-4.5-5-9.4-9.6-12.3-15.8C80.7,269.2,83.7,267.9,84.6,269.8z
		 M94.9,277.7c-1-1-2-2-2.9-2.9c-0.6-0.6-0.4-1.8,0.3-2.3c0.8-0.6,1.7-0.3,2.3,0.3c1,1,2,2,2.9,2.9c0.6,0.6,0.4,1.8-0.3,2.3
		C96.4,278.6,95.5,278.3,94.9,277.7z M96.7,268.7c-0.6-0.6-0.4-1.8,0.3-2.3c0.8-0.6,1.7-0.4,2.3,0.3c1.7,1.8,3.5,3.5,5,5.5
		c1.3,1.7-1.3,3.7-2.6,2C100.1,272.3,98.4,270.5,96.7,268.7z M96.7,249.8c-1.1-1.4-2.2-2.7-3.3-4c-1.3-1.7,1.3-3.7,2.6-2
		c1.1,1.4,2.2,2.7,3.3,4C100.6,249.5,98,251.5,96.7,249.8z M98.8,226.5c0.5,0.8-0.1,1.9-0.9,2.2c-0.9,0.4-1.7-0.1-2.2-0.9
		c-1.1-1.9-1.9-3.8-2.3-5.9c-0.4-2.1,2.8-2.5,3.3-0.5C97.1,223.3,97.8,224.9,98.8,226.5z M94.9,206.8c0.4,2.2,1.1,4.4,1.5,6.6
		c0.4,2.1-2.9,2.6-3.3,0.5c-0.4-2.2-1.1-4.4-1.5-6.6C91.2,205.2,94.5,204.7,94.9,206.8z M101.9,140.9c-2.1,3.1-3.9,6.4-5.3,9.9
		c-0.8,2-3.9,0.7-3.1-1.3c1.5-3.7,3.5-7.3,5.7-10.6C100.4,137.1,103,139.1,101.9,140.9z M122.5,117c-2.5,2.2-4.9,4.6-6.7,7.4
		c-1.1,1.8-3.8-0.2-2.6-2c2-3.1,4.5-5.6,7.3-8C122.1,113,124.1,115.6,122.5,117z M127.6,104c-9.5,7.2-18.8,16.4-22.6,27.9
		c-0.7,2-3.7,0.7-3.1-1.3c4-12.1,13.7-21.7,23.6-29.3C127.3,100.1,129.3,102.7,127.6,104z M111.3,101.2c1.8-1.8,3.7-3.7,5.9-5.1
		c1.8-1.2,3.8,1.4,2,2.6c-2.2,1.5-4,3.3-5.9,5.1c-0.6,0.6-1.8,0.4-2.3-0.3C110.4,102.7,110.6,101.8,111.3,101.2z M149.5,79.6
		c2-0.6,2.5,2.7,0.5,3.3c-8,2.2-15.3,6-21.8,11.2c-1.7,1.3-3.7-1.3-2-2.6C133.1,85.8,140.9,82,149.5,79.6z M139.5,78.1
		c1.7-1.2,3.5-2.1,5.5-2.5c2.1-0.4,2.5,2.8,0.5,3.3c-1.5,0.3-2.8,1-4,1.9C139.8,81.9,137.8,79.3,139.5,78.1z M151.2,83.7
		c2-0.8,3.3,2.2,1.3,3c-3.6,1.5-6.9,3.6-10.3,5.5c-1.9,1-3.1-2-1.3-3C144.4,87.3,147.6,85.2,151.2,83.7z M135.7,95.4
		c-1.3,1-2.4,2.1-3.4,3.4c-1.3,1.7-3.9-0.3-2.6-2c1.1-1.5,2.5-2.8,4-4C135.3,91.5,137.4,94.1,135.7,95.4z M134.5,109.3
		c-1.4,0.4-2.7,1.4-4,2.1c-1.9,1-3.2-2.1-1.3-3c1.6-0.8,3.1-1.8,4.8-2.3c0.9-0.2,1.8,0.6,1.9,1.4C136.1,108.3,135.4,109,134.5,109.3
		z M173.6,91.1c-13.2,0.2-24.9,4.7-36.4,10.9c-1.9,1-3.2-2-1.3-3c11.8-6.3,23.8-10.9,37.3-11.1C175.2,87.8,175.7,91.1,173.6,91.1z
		 M163.3,82.3c2.5-0.8,5.1-1.5,7.7-1.6c2.1,0,2.6,3.2,0.5,3.3c-2.4,0-4.7,0.6-6.9,1.3C162.6,86,161.3,82.9,163.3,82.3z M174.1,75.1
		c-5,0.5-10,0.6-14.4,3.2c-1.8,1.1-3.1-2-1.3-3c4.7-2.7,10-2.9,15.3-3.4C175.8,71.7,176.3,74.9,174.1,75.1z M179.6,74.8
		c0.1-1,0.9-1.4,1.8-1.4h6.2c0.9,0,1.5,1,1.4,1.8c-0.1,1-0.9,1.4-1.8,1.4H181C180.1,76.6,179.5,75.6,179.6,74.8z M182.9,79
		c11.9,0,23.6,0.7,35.1,4c2,0.6,0.8,3.6-1.3,3.1c-11.1-3.2-22.7-3.7-34.2-3.7C180.4,82.3,180.8,79,182.9,79z M206,74.8
		c2.3,0.1,4.5,0.7,6.7,1.6c2,0.8,0.7,3.8-1.3,3.1c-1.9-0.7-3.8-1.3-5.8-1.4C203.5,78,203.9,74.8,206,74.8z M225.1,89.5
		c2.1,0.3,1.7,3.6-0.4,3.3c-3-0.5-5.6-2.1-8.5-3c-2-0.6-0.8-3.7,1.3-3.1C220,87.5,222.4,89.1,225.1,89.5z M187.9,91.2
		c-1.5-0.6-3-0.9-4.6-0.6c-2.1,0.4-2.6-2.9-0.5-3.3c2.2-0.4,4.3,0,6.4,0.8C191.2,88.9,189.9,91.9,187.9,91.2z M230.1,105.1
		c-9.2-6.1-18.6-11.8-29.5-14.5c-2-0.5-1.7-3.8,0.4-3.3c11.5,2.9,21.3,8.7,31.1,15.2C233.9,103.6,231.9,106.3,230.1,105.1z
		 M234.1,92.3c6,8.5,13.8,15.4,22.8,20.6c1.8,1.1-0.2,3.7-2,2.6c-9.3-5.3-17.2-12.5-23.4-21.2C230.2,92.6,232.8,90.6,234.1,92.3z
		 M243,114.8c-1.8-1.5-3.7-2.9-5.5-4.4c-1.7-1.3,0.3-4,2-2.6c1.8,1.5,3.7,2.9,5.5,4.4C246.6,113.5,244.6,116.1,243,114.8z
		 M262,127.1c-2.3-2.2-4.9-3.7-7.9-4.7c-2-0.7-0.7-3.7,1.3-3.1c3.2,1.1,6.2,2.8,8.6,5.2C265.5,125.9,263.5,128.6,262,127.1z
		 M264,116c2.4,1,4.9,1.9,7.3,2.9c2,0.8,0.7,3.9-1.3,3.1c-2.4-1-4.9-1.9-7.3-2.9C260.8,118.2,262.1,115.2,264,116z M283.7,132.9
		c-4.9-0.7-9.7-1.8-14.2-4c-1.9-0.9-0.7-4,1.3-3.1c4.2,2,8.7,3.1,13.3,3.7C286.2,129.9,285.8,133.2,283.7,132.9z M278.4,124.6
		c-1.9-0.9-0.7-4,1.3-3.1c4.4,2.1,8.9,3.6,13.9,3.7c2.1,0,1.7,3.3-0.4,3.3C287.9,128.4,283,126.8,278.4,124.6z M317,125.1
		c-0.3,0.6-0.6,1-1.1,1.4c-0.3,0.2-0.6,0.4-0.8,0.7c-0.7,0.6-1.8,0.4-2.3-0.3c-0.6-0.7-0.4-1.7,0.3-2.3c0.2-0.2,0.4-0.3,0.6-0.5
		c0,0,0.2-0.2,0.2-0.2c0.1-0.1,0.2-0.3,0.1-0.1c0.4-0.8,1.2-1.2,2.2-0.9C316.9,123.2,317.4,124.4,317,125.1z M329.3,111.6
		c-1.8,2.2-3.5,4.6-5.5,6.6c-1.5,1.5-4.1-0.5-2.6-2c2-2,3.7-4.4,5.5-6.6C328,107.9,330.6,109.9,329.3,111.6z M334.6,103.1
		c-0.4,0.8-0.7,1.7-1.1,2.6c-0.4,0.8-1.3,1.2-2.2,0.9c-0.8-0.3-1.3-1.4-0.9-2.2c0.4-0.8,0.7-1.7,1.1-2.6c0.4-0.8,1.3-1.2,2.2-0.9
		C334.5,101.2,335,102.3,334.6,103.1z M335.4,87.4c1.2-1.8,3.8,0.2,2.6,2c-9.1,13.5-16.6,27.5-30.6,36.6c-1.8,1.2-3.8-1.4-2-2.6
		C319.2,114.4,326.5,100.6,335.4,87.4z M302,118.1c0.9-0.8,2.3-0.8,3.3-1.3c0.8-0.4,1.8,0.1,2.2,0.9c0.4,0.8-0.1,1.8-0.9,2.2
		c-0.5,0.2-1,0.4-1.5,0.5c-0.3,0.1-0.5,0.2-0.8,0.3c-0.1,0-0.2,0.1-0.3,0.1c-0.7,0.6-1.8,0.4-2.3-0.3
		C301.1,119.6,301.3,118.6,302,118.1z M308.6,127.6c1.9-0.9,3.2,2.1,1.3,3c-4.6,2.3-9.4,3.9-14.6,3.4c-2.1-0.2-1.7-3.5,0.4-3.3
		C300.3,131.1,304.5,129.6,308.6,127.6z M285.1,114.3c3.4,1.6,6.9,2.8,10.5,3.9c2,0.6,0.8,3.6-1.3,3.1c-3.6-1-7.1-2.2-10.5-3.9
		C282,116.5,283.2,113.4,285.1,114.3z M277.6,107.6c1.8,0.7,3.7,1.5,5.5,2.2c2,0.8,0.7,3.8-1.3,3.1c-1.8-0.7-3.7-1.5-5.5-2.2
		C274.4,109.8,275.6,106.8,277.6,107.6z M272.9,117.4c-16.5-6.7-27.5-20.8-41.6-31c-1.7-1.2,0.3-3.9,2-2.6
		c13.9,10,24.7,24,40.9,30.6C276.1,115.1,274.8,118.2,272.9,117.4z M259.9,95.6c3.1,4,7.4,6.4,11.3,9.6c1.6,1.4-0.4,4-2,2.6
		c-4-3.4-8.6-6-11.9-10.2C256,96,258.6,93.9,259.9,95.6z M231.7,77c3.6,0.5,5.9,3.2,8.9,5.1c1.8,1.2-0.2,3.8-2,2.6
		c-2.3-1.5-4.4-4-7.3-4.4C229.2,80,229.6,76.7,231.7,77z M227.3,85.9c-0.6,0.7-1.6,0.8-2.3,0.3c-1-0.6-2-1.2-2.9-1.8
		c-0.7-0.5-0.8-1.6-0.3-2.3c0.6-0.7,1.6-0.8,2.3-0.3c1,0.6,2,1.2,2.9,1.8C227.7,84.1,227.8,85.2,227.3,85.9z M224.6,75.8
		c1.8,1,0.6,4.1-1.3,3.1c-8.2-4.5-19.8-9.2-29-5.5c-2,0.8-3.3-2.2-1.3-3C203.2,66.3,215.6,70.9,224.6,75.8z M180.4,59.9
		c3.9,1.3,8,1.6,11.7,3.3c1.9,0.9,0.7,4-1.3,3.1c-3.7-1.7-7.9-2-11.7-3.3C177.1,62.2,178.4,59.2,180.4,59.9z M184,67.5
		c2.1,0.3,1.7,3.5-0.4,3.3c-12-1.5-23.5-0.8-34.9,3.2c-2,0.7-3.3-2.3-1.3-3C159.4,66.7,171.4,65.9,184,67.5z M133.8,67.3
		c9.7-6,20.1-8.5,31.5-8.6c2.1,0,1.7,3.3-0.4,3.3c-10.4,0.1-20.1,2.4-29,7.9C134.1,71,132,68.4,133.8,67.3z M123.1,74.1
		c1.5-0.4,2.9-1.1,4.4-1.5c0.9-0.2,1.8,0.6,1.9,1.4c0.1,1-0.5,1.6-1.4,1.9c-1.5,0.4-2.9,1.1-4.4,1.5c-0.9,0.2-1.8-0.6-1.9-1.4
		C121.5,75,122.2,74.3,123.1,74.1z M133.1,75.8c1.9-1,3.1,2,1.3,3c-5.2,2.9-10.7,6.1-14.2,11c-1.2,1.7-3.8-0.3-2.6-2
		C121.4,82.5,127.4,79,133.1,75.8z M105.8,84.3c3.1-2.6,6.5-4.9,9.9-7.2c1.8-1.2,3.8,1.4,2,2.6c-3.4,2.3-6.8,4.6-9.9,7.2
		C106.2,88.3,104.1,85.7,105.8,84.3z M89.6,93.9c3.6-2.9,6.7-6.6,11.4-7.7c2.1-0.5,2.5,2.8,0.5,3.3c-4,0.9-6.8,4.6-9.9,7
		C90,97.8,88,95.2,89.6,93.9z M70.1,121.3c4.2-7.8,8.4-15.5,14-22.4c1.3-1.6,4,0.3,2.6,2c-5.4,6.6-9.5,14.1-13.5,21.6
		C72.1,124.4,69,123.2,70.1,121.3z M56.2,160.2c1.7-10.1,3.6-20.2,7.8-29.6c0.9-1.9,3.9-0.7,3.1,1.3c-4.1,9.2-5.9,18.9-7.6,28.7
		C59.1,162.7,55.8,162.3,56.2,160.2z M49,167.9c0.4-2.8,1.1-5.6,1.1-8.4c0-2.1,3.3-1.7,3.3,0.4c0,2.9-0.7,5.6-1.1,8.4
		C52,170.4,48.8,170,49,167.9z M53.4,177.1c-0.2,10.8,4.4,20.6,8.1,30.5c0.7,2-2.3,3.3-3,1.3c-4-10.5-8.6-20.7-8.4-32.2
		C50.2,174.6,53.5,175,53.4,177.1z M56.4,217.9c-0.3-1.5-0.7-3-1.3-4.4c-0.9-1.9,2.1-3.2,3-1.3c0.8,1.6,1.2,3.4,1.6,5.2
		C60.1,219.5,56.8,220,56.4,217.9z M73.4,261.8c-4.9-11.1-9-22.7-15.2-33.2c-1.1-1.8,1.5-3.9,2.6-2c6.4,10.7,10.6,22.5,15.6,33.9
		C77.3,262.4,74.2,263.7,73.4,261.8z M100.8,298.2c-8.9-7.1-18-13.8-25.1-22.9c-1.3-1.7,1.3-3.7,2.6-2c6.9,8.8,15.8,15.3,24.5,22.3
		C104.5,296.9,102.5,299.5,100.8,298.2z M102,284.9c-1-1.9,2-3.1,3-1.3c5.4,9.8,14.4,15.6,25,18.4c2,0.5,0.8,3.6-1.3,3.1
		C117.2,301.9,107.8,295.4,102,284.9z M142.3,320c-11.4-2.7-21.5-7.9-31.8-13.3c-1.9-1-0.6-4,1.3-3.1c10,5.3,19.9,10.4,30.9,13.1
		C144.8,317.2,144.4,320.5,142.3,320z M143.6,312.7c-3.2-1.3-6.2-2.9-9.2-4.6c-1.8-1.1,0.2-3.7,2-2.6c2.7,1.6,5.5,3,8.4,4.2
		C146.8,310.4,145.5,313.5,143.6,312.7z M165.5,326.6c-5.4-1.2-10.8-1.9-15.7-4.7c-1.8-1.1,0.2-3.7,2-2.6c4.3,2.5,9.3,3.1,14.1,4.1
		C167.9,323.7,167.5,327,165.5,326.6z M182.5,327.5h-8.1c-2.1,0-1.7-3.3,0.4-3.3h8.1C185,324.2,184.6,327.5,182.5,327.5z
		 M198.9,320.5c-15.9,2.3-35.6,3.1-48.6-8c-1.6-1.4,0.4-4,2-2.6c12.3,10.5,31,9.6,46.1,7.4C200.5,316.9,201,320.2,198.9,320.5z
		 M176.3,310.3c2.1,0.4,4.1,1.1,6.2,1.5c2.1,0.4,1.7,3.7-0.4,3.3c-2.1-0.4-4.1-1.1-6.2-1.5C173.8,313.2,174.2,309.9,176.3,310.3z
		 M191.3,310.6c0.1-0.8,1-1.7,1.8-1.4c1.5,0.4,2.9,0.7,4.4,0.7c0.9,0,1.5,1,1.4,1.8c-0.1,1-0.9,1.5-1.8,1.4c-1.5,0-2.9-0.4-4.4-0.7
		C191.9,312.2,191.2,311.6,191.3,310.6z M201.7,307.3c-17.3,3.2-34.6-0.7-49.7-9.7c-1.8-1.1,0.2-3.7,2-2.6c14.2,8.5,30.8,12,47.2,9
		C203.3,303.7,203.7,306.9,201.7,307.3z M193.5,297.4c2.4-0.5,4.8-0.6,7.2-1.1c2.1-0.5,2.5,2.8,0.5,3.3c-2.4,0.5-4.8,0.6-7.2,1.1
		C191.9,301.2,191.4,297.9,193.5,297.4z M202.8,289.1c-4.3,0.6-8.7,1.1-13.1,1.1c-2.1,0-1.7-3.3,0.4-3.3c4.1,0,8.2-0.5,12.2-1.1
		C204.4,285.6,204.9,288.9,202.8,289.1z M209.3,296.3c9.9,0.3,19-2.3,27.4-7.4c1.8-1.1,3.8,1.5,2,2.6c-9.2,5.6-19,8.4-29.8,8
		C206.8,299.5,207.2,296.3,209.3,296.3z M210,307.9c9.6-0.8,18.4-4.7,27.1-8.7c1.9-0.9,3.2,2.1,1.3,3c-8.9,4.1-18,8.1-27.9,8.9
		C208.3,311.3,207.9,308.1,210,307.9z M263.7,301.7c-14,7.1-27.1,15.4-42.8,18.3c-2.1,0.4-2.6-2.9-0.5-3.3
		c15.4-2.8,28.2-11.1,41.9-18C264.3,297.7,265.6,300.7,263.7,301.7z M289.9,282.2c-4.5,3.4-8.4,7.7-13.6,10.1
		c-1.9,0.9-3.2-2.1-1.3-3c4.9-2.3,8.6-6.4,12.8-9.7C289.6,278.3,291.6,280.9,289.9,282.2z M298.4,261
		c-10.7,16.6-25.8,28.6-43.6,36.8c-1.9,0.9-3.2-2.1-1.3-3c17.3-8,31.8-19.7,42.3-35.8C297,257.2,299.6,259.2,298.4,261z
		 M300.3,245.2c-0.8,2-3.8,0.7-3.1-1.3c3.5-9,3.6-17.8,2.1-27.2c-0.3-2.1,2.9-2.6,3.3-0.5C304.2,226.2,304,235.8,300.3,245.2z
		 M312.5,183.3c-1.5,6-5.7,11.2-11.6,13.4c-0.8,0.3-3.6,0.2-3.2-1.4c1.8-6.5,4-12.4,11.1-14.4c1.7-0.5,2.7,0.2,3,1.1
		C312.4,182.2,312.7,182.7,312.5,183.3z M322.4,170.9c-2.6,1.8-5.4,3.1-8.1,4.6c-1.9,1-3.1-2-1.3-3c2.5-1.4,5-2.6,7.3-4.2
		C322.1,167.1,324.1,169.7,322.4,170.9z M331.1,162.2c-1.2,1.9-2.6,3.7-4.7,4.5c-2,0.8-3.3-2.2-1.3-3c1.6-0.7,2.5-2.1,3.4-3.5
		c0.5-0.8,1.7-0.8,2.3-0.3C331.5,160.4,331.6,161.4,331.1,162.2z M331.3,152c-3.8,1.7-7.4,3.7-10.6,6.4c-1.6,1.3-3.7-1.3-2-2.6
		c3.4-2.8,7.3-5,11.4-6.8c0.4-0.2,0.7-0.2,1-0.1c0.9,0.1,1.2,0.7,1.2,1.5C332.4,151,332.1,151.7,331.3,152z"/>
</g>
</svg>
