<?xml version="1.0" encoding="utf-8"?>
<!-- Generator: Adobe Illustrator 21.0.0, SVG Export Plug-In . SVG Version: 6.00 Build 0)  -->
<svg version="1.1" id="Lager_1" xmlns="http://www.w3.org/2000/svg" xmlns:xlink="http://www.w3.org/1999/xlink" x="0px" y="0px"
	 viewBox="0 0 200 200" style="enable-background:new 0 0 200 200;" xml:space="preserve">
<style type="text/css">
	.st0{fill:#E91E63;}
</style>
<g>
	<g>
		<path class="st0" d="M58.4,16.2c-3.7,57.3-6.9,114.7-9.8,172c-0.3,5.9,8.4,8.2,11.1,3c16.9-32.2,15.9-71.6,16.5-107.1
			c0.3-19.8,0.5-39.6,0.8-59.4c0.1-6.9,1.9-18.5-8.1-19c-8-0.4-11,7.4-10.3,14.1c0.8,7.5,12.7,7.6,11.9,0c-0.1-0.9-0.2-1.9-0.2-2.8
			c-1.7-0.8-3.4-1.5-5.1-2.3c-0.3,0.2-0.1,5.6-0.1,6c0,4-0.1,7.9-0.1,11.9c-0.1,7.6-0.2,15.2-0.3,22.8c-0.2,15.5-0.3,31-0.8,46.5
			c-0.9,27.8-1.3,58.1-14.5,83.3c3.7,1,7.4,2,11.1,3c2.8-57.4,6.1-114.7,9.8-172C70.8,8.6,58.9,8.6,58.4,16.2L58.4,16.2z"/>
	</g>
</g>
<g>
	<g>
		<path class="st0" d="M119.3,27.3c-1.1,13.5-4.3,27.1-6.6,40.5c-2.3,13.3-4.5,26.7-6.8,40c-4.4,25.8-9.3,51.9-4.4,78.1
			c1.1,5.6,8.2,5.1,10.9,1.4c11.7-15.8,16.6-35.1,19.5-54.2c3.2-21.5,5.3-43.3,7.1-65c0.9-10.6,2.6-21.9,1.6-32.6
			c-0.4-4.4-1.7-9.3-5-12.4c-3.1-2.9-8.2-3.6-11.5-0.6c-3.3,3.1-3.1,8.8-3.4,12.9c-0.3,5.9-0.2,11.8-0.5,17.8
			c-0.4,11.1-1.5,22.2-3.2,33.2c-1.9,12.5-4.7,24.7-7.9,36.9c-3.2,12.2-6.2,24.7-5.2,37.4c0.6,7.6,12.5,7.7,11.9,0
			c-0.9-11.1,1.5-21.8,4.3-32.5c2.9-11,5.5-22,7.5-33.1c1.9-10.8,3.3-21.6,4-32.6c0.4-5.3,0.6-10.7,0.7-16c0-2.8,0.1-5.6,0.2-8.4
			c0.1-2.2-0.4-6.6,0.9-8.5c-1.2,0.9-2.4,1.8-3.6,2.7c-1.8-0.6-2.4-0.4-1.8,0.7c0.3,0.7,0.5,1.5,0.6,2.2c0.2,1.3,0.1,2.7,0.1,4
			c0,3.4-0.3,6.8-0.4,10.2c-0.4,7.1-0.9,14.2-1.5,21.3c-1.2,14.2-2.8,28.4-4.4,42.6c-2.6,23.5-5.8,48.1-20.3,67.6
			c3.6,0.5,7.3,0.9,10.9,1.4c-4.9-25.8,1-52.2,5.4-77.6c2.2-13,4.4-26,6.6-39c2.2-12.8,5.1-25.8,6.2-38.8
			C131.8,19.7,119.9,19.7,119.3,27.3L119.3,27.3z"/>
	</g>
</g>
<g>
	<g>
		<path class="st0" d="M119.2,117c-4.2,6.7-6.8,14.1-8.8,21.7c-1.6,6-5.6,15.4-0.5,20.6c1.5,1.5,3.8,2.1,5.8,1.5
			c6-1.8,8-9.8,9.4-15.2c1.9-7.4-9.6-10.6-11.5-3.2c-0.8,3.2-1.7,6.7-3.8,9.4c1.2-0.9,2.4-1.8,3.6-2.7c-0.3,0.1-0.6,0.2-0.8,0.2
			c1.9,0.5,3.9,1,5.8,1.5c1.8,1.8,2.3-4.2,2.7-5.6c0.7-2.6,1.3-5.1,2.1-7.7c1.6-5.2,3.6-10,6.4-14.6
			C133.6,116.5,123.3,110.5,119.2,117L119.2,117z"/>
	</g>
</g>
<g>
	<g>
		<path class="st0" d="M68.3,11.7c6.7,2.8,6.3,10.8,6.1,16.8c-0.2,7.6-1.7,15.1-2.8,22.6c-2.3,15-4.4,30.1-6.1,45.2
			c-1.8,15.1-3.1,30.4-3.5,45.6c-0.2,7.3,0.1,14.6,0,21.9c-0.1,3-0.2,5.9-0.8,8.9c-0.3,1.6-0.7,3.1-1.3,4.6c-0.2,0.7-0.6,1.5-1,2.1
			c-1.8,2-0.7,3.3,3.3,3.8c-2.2-6.4-13.1-5.8-12.4,1.7c0.5,6.4,6.1,10.6,12.4,8.6c6.2-1.9,9.5-9.2,11.2-15
			c1.9-6.6,1.9-13.7,1.8-20.5c-0.1-8-0.1-15.9,0.3-23.9c0.7-16.5,2.5-33,4.6-49.4c2-15.9,5-31.8,6.3-47.9c0.6-7.6,0.9-16.1-2.7-23.2
			c-2.9-5.7-8.8-9.6-15.2-7.6C65.3,7,65.8,10.6,68.3,11.7L68.3,11.7z"/>
	</g>
</g>
<g>
	<g>
		<path class="st0" d="M71.5,14.8c2.7,0.9,6.3,0.6,8.2,3.1c1.5,2,1.6,5.3,1.7,7.7c0.3,7.5-0.2,15.1-0.8,22.5
			c-1.2,15.5-3.7,30.9-6.5,46.2c-2.8,15.2-5.8,30.4-8.2,45.7c-1.1,7-2,14-3.4,20.9c-0.7,3.6-1.5,7.2-2.6,10.7
			c-0.4,1.3-1.9,8.3-3.5,8.7c-7.4,2.1-4.2,12.7,3.1,11.4c7.9-1.4,10.3-11.3,12.1-17.8c2.5-8.8,3.6-18,5-27.1
			c2.8-18.8,6.5-37.4,9.7-56.1c3.2-18.5,5.8-37.2,6-56c0.1-7.3,0.6-15.7-3.8-21.9C84.4,7,76.9,6.1,70.8,9.1
			C68.2,10.3,69.1,14.1,71.5,14.8L71.5,14.8z"/>
	</g>
</g>
<g>
	<g>
		<path class="st0" d="M52,185.8c0.5,3,0.5,5.2,3,7.4c2.2,2,5.3,2.8,8.2,1.9c5.7-1.6,8.1-8.6,10.1-13.5c5.6-13.9,7.2-28.9,8.8-43.6
			c1.8-16.1,3.5-32.2,5.2-48.3c0.8-8.1,1.8-16.2,2.3-24.3c0.5-8.1,1.4-17.1-0.5-25.1c-1.4-6-11-6.2-12.3,0
			c-1.4,6.6-0.9,13.5-1.1,20.2C75.4,67.4,75.3,74.2,75,81c-0.6,13.3-2,26.6-3.4,39.9c-1.3,12.5-2.1,25.1-4.3,37.5
			c-1,5.7-2.3,11.4-4.2,16.9c-0.6,1.7-1.2,3.4-2,5.1c-0.4,0.9-1.9,3-1.7,3.7c-0.5,0.6-0.3,0.8,0.6,0.4c1.2,0,1.1-0.2-0.2-0.5
			c-0.7-0.6-1.9-0.6-2.6-1.2C54.7,180.6,51.5,182.7,52,185.8L52,185.8z"/>
	</g>
</g>
<g>
	<g>
		<path class="st0" d="M111.9,83.9c1-2.6,3.1-4.5,4.4-6.9c1.1-2.2,2-4.5,2.8-6.9c1.9-5.4,3.3-10.9,4.7-16.4
			c1.3-5.2,2.5-10.5,3.6-15.7c0.6-2.7,1.4-14,5-14.7c-1.2-0.2-2.3-0.3-3.5-0.5c3.3,1.4,0.3,15.2,0.1,17.8c-0.6,6.8-1.2,13.4-1,20.2
			c0.1,3.7,5.8,4.8,6.7,0.9c2.5-11.1,4-23.3,4.2-34.6c0.1-3.9-0.7-8.7-4-11.3c-3.4-2.6-7.4-1-10,1.9c-2.9,3.2-4.2,7.6-5,11.8
			c-1,5.8-2,11.6-3.1,17.4c-1.2,5.9-2.6,11.8-3.8,17.7c-0.6,3.1-1.3,6.3-1.7,9.4c-0.3,3.1,0.4,6.9-0.2,9.8
			C111.1,84.1,111.7,84.3,111.9,83.9L111.9,83.9z"/>
	</g>
</g>
<g>
	<g>
		<path class="st0" d="M111.2,90.1c3-3.6,6.1-7.3,7.9-11.7c2.3-5.3,3.9-11,5.3-16.5c1.4-5.3,2.5-10.7,3.4-16.1
			c0.9-5.1,2.3-10.8,1.3-15.9c-0.8-4.4-6.6-3.3-8,0c-1.9,4.6-1.7,10.3-2.6,15.2c-0.9,5.1-2,10.2-3.3,15.2c-1.2,4.7-2.6,9.4-4,14
			c-1.5,4.8-1.8,9.8-2.4,14.8C108.8,90.2,110.5,90.9,111.2,90.1L111.2,90.1z"/>
	</g>
</g>
<g>
	<g>
		<path class="st0" d="M123,31.1c1.5-1.4,2.3-2,3.3-3.8c0.9-1.6,1.2-4.2,3.3-4.9c5.1-1.7,2.8,8.2,2.3,10.6c-2,9-4.2,17.9-6.4,26.9
			c-2.2,9-4.4,17.9-6.5,26.9c-2.1,8.9-6,19.3-5.1,28.6c0.4,4.5,6,6.4,8.6,2.3c3.6-5.5,4.8-12.6,6.3-19c1.6-6.7,3.2-13.5,4.6-20.2
			c2.8-13.2,5.6-26.4,8.3-39.7c1.9-9.1,3.3-23.1-8.8-25.7c-4.3-0.9-8.6,1.2-11.2,4.6c-3.4,4.4-3.6,9-0.4,13.3
			C121.8,31.4,122.5,31.6,123,31.1L123,31.1z"/>
	</g>
</g>
</svg>
