<?xml version="1.0" encoding="utf-8"?>
<!-- Generator: Adobe Illustrator 21.0.0, SVG Export Plug-In . SVG Version: 6.00 Build 0)  -->
<svg version="1.1" id="Lager_1" xmlns="http://www.w3.org/2000/svg" xmlns:xlink="http://www.w3.org/1999/xlink" x="0px" y="0px"
	 viewBox="0 0 200 200" style="enable-background:new 0 0 200 200;" xml:space="preserve">
<style type="text/css">
	.st0{fill:#E91E63;}
</style>
<g>
	<g>
		<path class="st0" d="M-11.4-38.9C-27.5-34.8-34-10-30.5,4.2c2,7.8,13.6,5.9,13.8-1.9c0.2-5.6,0.3-11,1.8-16.4
			c1.3-4.7,3.6-11.1,8.3-13.4C0-30.6-4.7-40.6-11.4-38.9L-11.4-38.9z"/>
	</g>
</g>
<g>
	<g>
		<path class="st0" d="M39,10.3c-3.6,14.7-4.4,29.9-5.4,45c-1,15.2-0.7,30.2,0.2,45.3c1.8,30.5,3.1,61.1,1.5,91.6
			c-0.4,7.1,11.1,7.2,11.1,0c-0.3-30.3-0.3-60.5-1.9-90.7c-0.8-14.8-0.9-29.5-0.3-44.3c0.6-15.5,1.9-30.9,0-46.3
			C43.7,8.3,39.7,7.3,39,10.3L39,10.3z"/>
	</g>
</g>
<g>
	<g>
		<path class="st0" d="M45.8,197.5c11-7,20.8-16.6,30.9-24.8c10.8-8.8,21.7-17.4,32.8-25.8c10.7-8.1,21.6-15.9,32.8-23.3
			c5.6-3.7,11.2-7.4,16.9-10.9c5.4-3.3,12.9-6.2,17-11c2.8-3.3,0.1-7.8-4.1-7.1c-6.2,1.1-12.5,6.4-17.8,9.7
			c-5.7,3.5-11.3,7.1-16.9,10.9c-11.4,7.6-22.6,15.6-33.5,23.8c-10.6,7.9-21,16.1-31.3,24.4c-10.7,8.7-22.7,17.1-32,27.3
			C37.3,194.2,41.4,200.3,45.8,197.5L45.8,197.5z"/>
	</g>
</g>
<g>
	<g>
		<path class="st0" d="M42.4,12.6c18.5,17.9,41.3,30.6,62.9,44.2c11,6.9,21.8,14.2,32.6,21.5c5.5,3.8,11,7.6,16.4,11.4
			c5.6,3.9,11.3,8.6,17.4,11.5c4.3,2,8.9-3.1,5.3-6.8c-4.4-4.5-10.1-8.1-15.3-11.8c-5.4-3.9-10.9-7.7-16.4-11.5
			c-10.9-7.6-22-15.1-33.2-22.2c-21.9-14-44.6-26.7-66.5-40.5C43,6.8,40.2,10.5,42.4,12.6L42.4,12.6z"/>
	</g>
</g>
<g>
	<g>
		<path class="st0" d="M60.5,31.7c-3.9-0.8-5.6,1.8-7.4,4.9c-1.7,3-5,6.7-2.8,10.2c1,1.6,2.9,2.1,4.6,1.2c3.3-1.7,5.4-4.5,5.9-8.1
			c0.3-2.1-1.3-4.4-3.7-3.7c-3.7,1.1-6.5,2.9-8.4,6.4c-1.9,3.3,2.6,7,5.3,4.1c3.8-3.9,7.9-11,4.5-16.4c-3.3-5.4-8.6-1.7-10.4,2.7
			c-1.8,4.3,5.4,6.4,7,1.9c1.9-5.3,1.2-10.9-1.5-15.8c-0.8-1.5-3.2-2.3-4.6-1.2c-2.5,1.9-4.2,4.3-3,7.5c0.7,2.1,3.8,2.9,5,0.6
			c0.4-0.7,0.8-1.8,1.5-2.3c-1.5-0.4-3.1-0.8-4.6-1.2c1.9,3.6,1.8,6.8,0.4,10.5c2.3,0.6,4.7,1.3,7,1.9c0.3-0.5,0.6-1,0.9-1.5
			c-0.8,0.3-1.6,0.7-2.4,1c0.1,0-3.7,6.7-4.5,7.5c1.9,1.1,3.8,2.2,5.7,3.3c0.7-1.8,1.9-2.8,3.8-3.2c-1.2-1.2-2.5-2.5-3.7-3.7
			c-0.5,2.1-1.6,3.1-3.5,3.9c1.5,0.4,3.1,0.8,4.6,1.2c-0.2-0.2-0.3-0.4-0.5-0.6c0.1,0.9,0.2,1.7,0.3,2.6c0.3-1.4,2.9-9,4.5-9.5
			C62.5,35.3,62.7,32.2,60.5,31.7L60.5,31.7z"/>
	</g>
</g>
<g>
	<g>
		<path class="st0" d="M46.1,17.7c4.5,18.8,3.8,38.7,4.1,57.9c0.1,9.9,0.4,19.9,0.5,29.8c0.1,5.3,0.1,10.6,0.1,15.9
			c0,4.9-0.5,9.9,1.9,14.4c1.7,3.1,6.5,3.1,8.3,0c2.4-4.4,2-9.4,1.9-14.4c-0.1-5.3-0.3-10.6-0.5-15.9c-0.4-11-1-21.9-1.9-32.8
			C59,53.4,57.9,33.9,50.3,16C49.2,13.5,45.5,15.3,46.1,17.7L46.1,17.7z"/>
	</g>
</g>
<g>
	<g>
		<path class="st0" d="M42.9,21c-0.9,15.2-1.7,30.4-2.1,45.7c-0.2,7.3-0.3,14.6-0.4,21.8c-0.1,7.2-1.5,16.3,1.1,23.1
			c1.7,4.4,7.7,4.7,9.2,0c2.2-6.7,0.7-15.1,0.4-22.1c-0.3-7.6-0.5-15.2-0.7-22.8c-0.4-15.2-0.8-30.4-1-45.7
			C49.3,16.8,43.1,16.9,42.9,21L42.9,21z"/>
	</g>
</g>
<g>
	<g>
		<path class="st0" d="M60.7,33c0.7,12.4,0.5,24.7,0.8,37.1c0.3,12.4-0.5,24.8-0.3,37.2c0.1,6,9.4,6,9.3,0c0-8-0.1-16,1-24
			c1-7,1.3-15.5,6.4-21c-2.4-1-4.8-2-7.1-3c-1,10.4-2.1,20.8-3,31.2c-0.9,10.1-2.3,20.3-1.4,30.4c0.6,6,7.8,8.2,11.3,3.1
			c3.4-5.1,6.9-10.2,10.3-15.2c4.6-6.7-6-12.5-10.7-6.3c-9.5,12.7-18.4,26-24.3,40.8c4.7,1.3,9.5,2.6,14.2,3.9
			c2.3-5.8,4.5-11.7,6.9-17.5c2.5-6.3-7.3-12-11.5-6.7c-6.3,7.9-11.6,16.4-15.8,25.7c-3.7,8.4,8.1,15.9,12.6,7.4
			c6.2-11.8,9.2-25,9.2-38.3c0-6.4-7.8-9.4-12.4-5.1c-4.7,4.4-5.3,10.5-6.2,16.5c-0.9,6.4-2,13-2,19.4c0,5.7,2.6,11,8.5,12.3
			c6.4,1.5,12.7-2.5,17.6-6.1c7.3-5.5,0.8-17.8-7.4-12.6c-8.4,5.3-15.1,12.6-19.3,21.6c-2.7,5.7,1.7,12.3,8.3,10.7
			c3.3-0.8,6.3-2.2,9-4.2c-2.8-3.6-5.6-7.3-8.4-10.9c-2.2,2.8-4.6,5.5-6.9,8.2c3.6,2.7,7.1,5.5,10.7,8.2c2-2.8,4.1-5.1,6.7-7.3
			c-3.6-2.1-7.1-4.2-10.7-6.2c-0.2,1.6-0.2,1.5-1.4,2.6c3,3,5.9,5.9,8.9,8.9c9-10.1,17.9-20.3,26.9-30.4c7.6-8.6,16-17.6,14.2-30
			c-1.7-11-9.7-21.1-16.1-29.8C81.4,73.9,74,64.3,68.5,53.5c-3.3,3.3-6.6,6.6-9.9,9.9c11.7,5.3,21.6,13.3,33,19.2
			c8,4.1,28.5,13.4,33.4,0.6c2.7-7.1-3.5-14.7-7.7-19.8c-4.4-5.4-9.4-10.4-14.5-15.2c-10.5-9.9-22.3-19.3-34.9-26.4
			c-5.8-3.2-14.4,3.7-9.9,9.9C67.3,44.3,76.2,57.4,84.1,71c3.7,6.2,6.4,13.6,11.1,19.2c2,2.3,4.4,4.3,7.3,5.3
			c3.8,1.3,6.5,0.3,10.3,0c-1.8-3.2-3.7-6.4-5.5-9.6c-8.7,11.9-21.8,25-22.7,40.4c-0.2,2.4,1.4,4.8,3.4,6c7.6,4.6,16-1.6,22.2-6
			c6.9-4.9,13.1-10.6,18.5-17.2c4.7-5.7-1-13.7-8-10.3c-9.8,4.9-17.3,12.4-21.5,22.6c-1.4,3.6,1.6,7.4,4.8,8.5
			c8,2.7,16.5-4.6,22.4-9.3c5.7-4.6,13.4-10.8,14.5-18.5c0.4-3.3-1.4-7.4-5.4-7.1c-4.7,0.3-8.6,2-11.9,5.5
			c-3.4,3.7-0.1,11.1,5.3,9.1c6.9-2.6,11.7-8.5,11.4-16.2c-0.2-3.5-1.4-6.9-3.7-9.5c-2.2-2.6-6.2-4-8-6.9c-1.7,2.9-3.3,5.8-5,8.7
			c4.2-0.5,8.4,3.9,11.6,6.3c3.7,2.8,7.5,5.5,11.2,8.3c6,4.4,11.9-5.7,5.9-10c-4.8-3.5-9.5-6.9-14.3-10.4c-4.4-3.2-8.8-6.4-14.5-5.7
			c-3.9,0.5-7.7,4.6-5,8.7c2.4,3.5,5.5,4.9,8.7,7.4c3.5,2.7,3,7.5-1.3,8.9c1.8,3,3.5,6,5.3,9.1c1.3-1.3,2.3-1.9,4.2-2
			c-1.8-2.4-3.6-4.7-5.4-7.1c-1,4.5-6.5,8.1-10,10.7c-2.1,1.5-9.9,7.8-12.4,6.8c1.4,3.4,2.7,6.7,4.1,10.1
			c3.5-7.2,8.1-13.1,15.5-16.5c-2.7-3.4-5.3-6.9-8-10.3c-3.9,4.5-8.1,8.7-12.8,12.3c-2.2,1.6-4.4,3.2-6.7,4.6
			c-1.4,0.8-2.8,1.7-4.2,2.4c-0.5,0.3-1,0.5-1.4,0.8c-1.5,0.3-1.2,0.5,0.8,0.4c1.1,2,2.3,4,3.4,6c0.2-6.2,4.6-11.8,7.8-16.8
			c3.8-5.9,7.9-11.6,12.1-17.2c2.8-3.8-1-9.9-5.5-9.6c-2.4,0.2-5,1.5-7-0.1c-2.2-1.7-3.4-5.4-4.7-7.8c-3-5.8-6.2-11.4-9.5-17
			c-6.8-11.4-14.3-22.3-21.3-33.6c-3.3,3.3-6.6,6.6-9.9,9.9c9.7,6.5,19.2,13,27.9,20.7c4.1,3.7,8.1,7.5,12,11.5c2,2.1,4,4.3,5.9,6.5
			c1.2,1.5,4.7,5.3,4.6,7.3c0.3-1.2,0.7-2.5,1-3.7c2.2-3.5,3.8-1.1,1.1-1.8c-1.1-0.3-2.3-0.4-3.4-0.7c-2.3-0.6-4.5-1.3-6.6-2.2
			c-4.4-1.9-8.5-4.4-12.6-6.9c-8.6-5.4-16.8-11-26.2-14.9c-6.2-2.6-10.9,5.6-8.2,10.6c5,9.2,11.3,17.5,17.7,25.8
			c6.1,7.9,13.6,16.3,17.3,25.7c4.1,10.4-5.6,18.5-11.9,25.4c-8.2,9.1-16.3,18.2-24.5,27.3c-5.5,6.1,2.8,14.3,8.9,8.9
			c2.5-2.2,4-4.9,4.8-8.1c1.3-5.1-4.6-10.5-9.4-7.2c-4.2,3-7.7,6.3-10.7,10.5c-4.4,6.3,5.6,14,10.7,8.2c2.3-2.7,4.7-5.4,7.2-7.9
			c5.5-5.6-1.5-14.9-8.4-10.9c-1.9,1.1-3.7,1.6-5.9,2.1c2.8,3.6,5.5,7.2,8.3,10.7c3.2-6.8,7.7-12.3,14-16.3
			c-2.5-4.2-4.9-8.4-7.4-12.6c-1.3,1-2.7,2.1-4.1,2.9c-2,1.2-3.3,0.4-1.4,2.7c2.3,2.8,1.4,0,1.5-1.7c0.1-1.9,0.3-3.8,0.5-5.6
			c0.3-3.1,0.6-6.2,1.1-9.3c0.3-2.5,0.3-6.5,2.2-8.3c-4.1-1.7-8.2-3.4-12.4-5.1c-0.1,10.9-2.7,21.1-7.4,30.9
			c4.5,1.9,8.9,3.8,13.4,5.6c3.2-8.3,7.8-15.9,13.2-23c-4-2.3-7.9-4.6-11.9-7c-2.5,5.7-5.2,11.4-7.7,17.2c-1.6,3.6-1,7.9,2.6,10.1
			c3.1,1.9,8.4,1,10.1-2.6c6.4-14,12.6-27.6,21.6-40.2c-3.6-2.1-7.2-4.2-10.7-6.3c-3.3,5.1-6.7,10.3-10,15.4c3.7,0.5,7.4,1,11.1,1.4
			c-1.5-9.8-0.4-19.9,0-29.8c0.4-10.1,0.6-20.2,0.9-30.3c0.1-4.3-5.6-5.4-7.8-2.1c-4.3,6.5-4.9,15.8-6.2,23.3
			c-1.5,8.9-3.1,17.7-3.9,26.7c3.1,0,6.2,0,9.3,0c1.8-24.9-1.6-50.4-5.5-74.9C64.7,29.9,60.5,30.5,60.7,33L60.7,33z"/>
	</g>
</g>
<g>
	<g>
		<path class="st0" d="M58.2,35.3c-0.4,6.1-1,12.3-1.9,18.4c3.1-0.4,6.2-0.8,9.3-1.3C63.8,45,62.1,37.5,60.3,30
			c-3.2,0.9-6.4,1.8-9.7,2.7c1.2,2.8,2.4,5.4,4.1,8c1.9,2.7,6.5,3.4,8.2,0c3.1-6.2-2.2-12.8-5-18.1c-2.6,1.5-5.3,3.1-7.9,4.6
			c1.3,2,2.5,3.6,4.6,4.8c2.5,1.4,5.8-0.4,5.8-3.3c0-3-1.1-4.9-3.2-7c-4.3-4.3-10,2-6.5,6.5c1.1,1.3,1.9,2.8,2.7,4.4
			c0.5,1,0.9,3.9,2.1,2.5c2.6,0.7,5.3,1.4,7.9,2.1c-1.2-2.8-2.4-5.5-3.7-8.2c-2.4-5.3-10.5-1.5-9.2,3.9c1.9,7.4,3.9,14.8,5.8,22.2
			c1.4,5.5,8.7,3.8,9.3-1.3c0.6-6.1,1.1-12.2,1.4-18.4C67.3,29.6,58.6,29.7,58.2,35.3L58.2,35.3z"/>
	</g>
</g>
<g>
	<g>
		<path class="st0" d="M43.6,14c-0.7,6.2-1.2,12.8,0.6,18.9c0.7,2.6,4.4,1.9,4.5-0.6c0.4-6.3-1.2-12.6-2.9-18.6
			C45.5,12.4,43.8,12.8,43.6,14L43.6,14z"/>
	</g>
</g>
<g>
	<g>
		<path class="st0" d="M156.5,89.7c-11.1,5.8-21.9,12-32.5,18.5c-10.5,6.5-21.3,12.8-29.8,21.9c-4.2,4.5,1.1,10.3,6.2,8.1
			c11.2-4.8,20.9-12.3,31-19c10.1-6.7,20.4-13.3,30.6-19.9C168.2,95.5,162.9,86.4,156.5,89.7L156.5,89.7z"/>
	</g>
</g>
<g>
	<g>
		<path class="st0" d="M49,181.3c0.9-25.5,5.3-50.2,10.9-75c1.1-5-6-7-7.7-2.1c-8.4,24.5-10.3,51.5-7.5,77.1
			C45,184,48.9,184.2,49,181.3L49,181.3z"/>
	</g>
</g>
<g>
	<g>
		<path class="st0" d="M125.8,85.1c-4.8,6.2-9.5,12.4-14.1,18.7c-4.4,6.1-10.1,12.4-12.6,19.6c-1.6,4.7,4.6,7.5,7.8,4.6
			c5.4-4.9,9-12.2,13.1-18.1c4.4-6.3,9-12.5,13.7-18.6C137.3,86.7,129.3,80.5,125.8,85.1L125.8,85.1z"/>
	</g>
</g>
<g>
	<g>
		<path class="st0" d="M124,83.4c-9.2,10.8-19,21.2-28.6,31.7c-2.4,2.6,1.3,6.3,3.8,3.8c10.4-10.2,19.3-21.4,27.4-33.5
			C127.7,83.9,125.3,81.9,124,83.4L124,83.4z"/>
	</g>
</g>
<g>
	<g>
		<path class="st0" d="M70.7,147.1c0.6,0,0.6-0.9,0-0.9C70.1,146.2,70.1,147.1,70.7,147.1L70.7,147.1z"/>
	</g>
</g>
<g>
	<g>
		<path class="st0" d="M81.3,143.8c1.5-5.6,3.3-11.5,2.8-17.3c-0.5-5.3-1.8-10.9-3.2-16c-1.4-5-8.1-3.5-8.6,1.2
			c-0.5,4.8,1.4,9,2.5,13.5c1.4,5.8,1,11-0.1,16.8C73.9,146.3,80.2,148.1,81.3,143.8L81.3,143.8z"/>
	</g>
</g>
<g>
	<g>
		<path class="st0" d="M91.8,148.6c2.3-5.3,6.9-8.8,11.1-12.5c4.5-4.1,8.9-8.1,12.8-12.7c2.5-3-0.8-8.6-4.5-5.9
			c-5.7,4.1-10.7,8.8-15.3,14.1c-3.9,4.4-7.9,9-9.9,14.6C84.8,149.5,90.4,152,91.8,148.6L91.8,148.6z"/>
	</g>
</g>
<g>
	<g>
		<path class="st0" d="M131,69.7c-6.3,6.7-13.3,13.2-18.4,20.9c-3.6,5.5,4,10.1,8.5,6.5c6.8-5.5,12.2-12.8,17.9-19.4
			C143.8,72.3,136.1,64.3,131,69.7L131,69.7z"/>
	</g>
</g>
<g>
	<g>
		<path class="st0" d="M43,21.5c0.5-2.6,0.3-5.5,0.2-8.2c-0.1-2.4,0-4.9-1.2-7c-0.4,0.3-0.9,0.7-1.3,1c2,2.4,3.3,5.5,5.2,8
			c1.8,2.3,3.8,4.6,6.3,6.2c1,0.6,1.9-0.7,1.2-1.5c-3.7-4.2-9.5-7.9-11.4-13.4c-0.2-0.5-0.7-0.8-1.2-0.5c-4.5,3.2-3.2,11.7-1.1,16
			C40.4,23.2,42.7,22.9,43,21.5L43,21.5z"/>
	</g>
</g>
<g>
	<g>
		<path class="st0" d="M48.2,14.8c-0.5-0.5-0.9-1.1-1.4-1.6c-0.5-0.6-1.6,0.2-1.1,0.9c0.4,0.6,0.9,1.1,1.3,1.7
			C47.7,16.6,48.9,15.6,48.2,14.8L48.2,14.8z"/>
	</g>
</g>
<g>
	<g>
		<path class="st0" d="M40.8,6.9C41.1,8.1,42,9,42.7,9.9c0.7,1,1.4,2,2.2,3c1.7,2.1,3.9,4.3,6.7,3.8c1-0.2,1.7-1.3,1.8-2.3
			c0-2.8-2.9-4.6-5.1-5.8c-1.1-0.6-2.3-1.1-3.5-1.7c-1.1-0.5-1.9-1.1-3.1-1.1C41.1,5.7,40.7,6.3,40.8,6.9L40.8,6.9z"/>
	</g>
</g>
<g>
	<g>
		<path class="st0" d="M43.5,9.6c1.9,1.2,3,3.2,4,5.2c0.9,1.7,1.9,2.9,3.6,3.9c2.9,1.9,5.7,5.4,9.1,2.6c1.1-0.9,1.3-2.6,1-3.9
			c-0.9-3.9-5.2-4.9-8.5-6.1c-3-1.1-5.4-3.3-8.7-3.6C42.9,7.6,42.7,9.1,43.5,9.6L43.5,9.6z"/>
	</g>
</g>
<g>
	<g>
		<path class="st0" d="M42.3,7.9c22,16.3,44.9,31.6,67.4,47.3c23.8,16.5,47.7,32.8,71.7,49.1c0.5-3.9,1-7.9,1.5-11.8
			c-12.5,2.6-23.5,11.6-34.4,17.8c-12.2,6.9-24.8,13.2-36.8,20.5c-12,7.3-23,15.7-33.8,24.7c-10.8,9-22.3,16.5-34.8,23
			c-6.9,3.6-2.2,15.2,5.3,12.7c26.8-9,45.3-30.9,68.8-45.5c11.7-7.2,23.7-13.8,35.6-20.7c5.7-3.3,11.4-6.6,16.7-10.4
			c5.3-3.7,10.3-7.9,16.7-9.6c5.7-1.5,5.9-8.8,1.5-11.8c-24.3-16.9-48.7-33.8-73.1-50.5c-12-8.2-23.8-16.5-35.9-24.5
			C73.6,14.5,68.2,10.9,62.4,8c-6.2-3.1-11.8-4.7-18.8-5.2C40.7,2.7,40.3,6.5,42.3,7.9L42.3,7.9z"/>
	</g>
</g>
<g>
	<g>
		<path class="st0" d="M47,15.2c0.6-1.6,2.3-2.5,3-4.3c0.6-1.7,0.8-3.2,0-4.9c-1.6-3.6-4.8-4.7-8.3-3.2C38,4.4,37,7.5,37,11.4
			c0,5.5,0.7,11.1,2.3,16.4c0.8,2.4,5.1,3,5.5,0c0.5-3.4,0.6-6.4,0.4-9.8c-0.1-1.7-1.8-8.9,0-9.8c-1,0-2.1,0-3.1,0
			c1.3,0.7,1.1,1.8,1.6,3.2c0.5,1.5,1.7,2.4,2.1,3.9C45.9,15.9,46.8,15.7,47,15.2L47,15.2z"/>
	</g>
</g>
<g>
	<g>
		<path class="st0" d="M39.8,10.5c-1.8,6.1-2.9,12.8-3.3,19.1c2.2-0.3,4.3-0.6,6.5-0.9c-1.3-4-1-8.6-1-12.8c0-3,1.1-10.4,5.3-5.8
			c1.4,1.5,4.2,0.4,4.1-1.7C51.2,3.2,45,2,41.4,5c-7,5.7-1.2,15.8-4.5,23c-2.2,4.8,5.4,7.1,6.2,1.7c0.8-6,0.9-12.6,0.3-18.6
			C43.2,9,40.4,8.4,39.8,10.5L39.8,10.5z"/>
	</g>
</g>
<g>
	<g>
		<path class="st0" d="M43.4,6.5c-0.6,0,0.7,0.6,1,0.8c0.9,0.7,1.7,1.6,2.7,2.2c2,1.3,3.9,2.7,5.9,4.1c3.9,2.8,8.9-3.6,5.2-6.7
			c-3.1-2.5-6.9-4.8-11-4.8c-2,0-5.6,0.8-4.6,3.6C42.7,6.3,43,6.5,43.4,6.5L43.4,6.5z"/>
	</g>
</g>
</svg>
