<?xml version="1.0" encoding="utf-8"?>
<!-- Generator: Adobe Illustrator 21.0.0, SVG Export Plug-In . SVG Version: 6.00 Build 0)  -->
<svg version="1.1" xmlns="http://www.w3.org/2000/svg" xmlns:xlink="http://www.w3.org/1999/xlink" x="0px" y="0px"
	 viewBox="0 0 1366 768" style="enable-background:new 0 0 1366 768;" xml:space="preserve">
<style type="text/css">
	.st0{fill:#FFFFFF;stroke:#000000;stroke-miterlimit:10;}
	.st1{fill:#FFFFFF;}
	.st2{fill:#FFFFFF;stroke:#000000;stroke-width:0.75;stroke-miterlimit:10;}
	.st3{fill:none;stroke:#FFFFFF;stroke-miterlimit:10;}
	.st4{stroke:#FFFFFF;stroke-miterlimit:10;}
	.st5{fill:#FFFDFE;}
	.st6{fill:none;stroke:#FFFFFF;stroke-width:3;stroke-miterlimit:10;}
	.st7{fill:#FFFFFF;stroke:#000000;stroke-width:2;stroke-miterlimit:10;}
</style>
<g id="Lager_1">
	<path d="M1372,774.1H0c0-159.2,0-318.4,0-477.7C0,197.9,0,99.4,0,0.9c457.3,0,914.6,0,1372,0V774.1z"/>
	<path class="st0" d="M-230,352.1c-65.3,0-83-49.3-87.2-94c-5.8-63.3-51.9-130.8-28.8-137.1c23.2-6.3,49.5,80.5,54.8,67
		c6.8-17.5-33.4-127.2-4.8-127.2c28.6,0,31.5,104.1,44.8,102.1s-22.3-136.4,8.7-136.4s23.8,131.4,36.8,131.4s11.7-104.1,36.7-109.4
		s1.3,140.7,5.9,146.7c4.7,6,28.8-45.7,54.8-45.7c49.9,0-23.9,58.5-32.8,106C-149.9,302.9-164.7,352.1-230,352.1z"/>
</g>
<g id="_x31_">
	<path class="st1" d="M0,0c0,0-2,64.5,7.1,97.7c9.5,34.9,88.8,24.1,138,61C177.5,183,159.9,18.2,131.5,3C104.5-11.5,0,0,0,0z"/>
	<g>
		<g>
			<path d="M389.9,673.8c-3.7-3.6-10.6-6-13.8-0.3c-0.4,0.8-0.1,1.6,0.5,2.1c2,1.4,4.3,2.3,6.7,2.5c1.7,0.1,4.5,0.1,5.6-1.3
				c3.2-4-6.8-5.5-8.8-5.6c-1.2-0.1-1.8,1.3-1.3,2.3c0.8,1.6,2.2,3.4,4.3,2.8c1.7-0.5,2.4-2.2,1.6-3.8c-0.9-1.7-3.5-0.2-2.6,1.5
				c-0.3-0.5-0.4-1.4-0.7-2c-0.4,0.8-0.9,1.5-1.3,2.3c1.3,0.1,2.6,0.3,3.9,0.7c0.6,0.2,1.7,0.9,2.2,0.9c0.1-0.3,0.1-0.6,0.2-0.8
				c-0.4,0.1-0.8,0.2-1.2,0.2c-2.6,0.3-5-0.5-7.1-2c0.2,0.7,0.4,1.4,0.5,2.1c2.2-3.9,6.8-1.2,9.1,0.9
				C389.2,677.2,391.3,675.1,389.9,673.8L389.9,673.8z"/>
		</g>
	</g>
	<path class="st0" d="M-236.5-186.9c0,0,7.7,55.2,21.5,77.6s64.6,66,74.7,62.6c10.1-3.4,1-29.3,1.5-45.4s4.3-26.8-9.3-39.4
		C-161.6-144.3-236.5-186.9-236.5-186.9z"/>
	<path class="st0" d="M-210,776.4c0,0-4.2-56.7,2.1-79.9c6.2-23.2,81.6-86,75.5-59.9c-7.2,30.8-1.2,34.1-3.2,58
		C-137.5,718.6-210,776.4-210,776.4z"/>
	<path class="st0" d="M-351.1,587.4c0.2-79.1,15.6-44.3,27.2-46.4c1-0.2-7.5-30.4,8.7-34c14.8-3.3,15.4,6.7,16.7,5.5
		c6.9-6.1-15-51.4-6-61.9c3.7-4.4,12.2-2.3,16.7,3.1c7.7,9.2,2.6,26.9,7.8,29.8c3.4,1.9,10.1-3.4,13.2-11
		c8.3-20.4-14.4-44.8-6.6-61.9c4-8.7,14.5-12.6,20.3-8.6c9.5,6.5,6.4,33.9,10.8,34.5c2.5,0.3,3.7-8.4,10.8-20.4
		c4.9-8.3,10.1-17.1,16.1-16.5c6.9,0.7,14.1,13.7,12.6,23.5c-2.1,13.3-18.7,12.2-22.1,28.2c-1.5,7.1-0.1,16.1,3.6,18.8
		c3.5,2.6,6.7-2.3,14.9-3.1c5.2-0.5,14.8,0.4,16.7,6.3c2.2,6.5-4.7,19.4-13.8,25.1c-11.3,7.1-17.7-2.1-31.7,4.7
		c-2.4,1.2-15.2,7.5-15.5,18c-0.2,7.8,6.5,15.9,13.2,18c8.7,2.7,13-6,19.7-2.4c5.7,3.1,9.8,13.1,8.4,21.2
		c-2,11.3-14.1,14.6-17.9,15.7c-9.3,2.5-17.1-0.6-25.1-3.9c-17.1-7.1-22.5-16.4-27.5-12.5c-4.6,3.5-4.9,15.1-3,22.7
		c2.5,10,9.4,14.7,12,16.5c11,7.5,17.2,0.2,25.7,7.8c4.7,4.3,9.5,12.6,8.4,20.4c-1.5,10.9-13.7,15.4-16.7,16.5
		c-14,5.1-27.3-2.3-32.9-5.5c-14.1-8.1-17.6-17.5-23.9-14.9c-3.6,1.5-4.2,5.3-12.6,23.5c-6.7,14.7-29.5,39.8-29.5,37.9
		C-352.4,642.3-351.2,624.3-351.1,587.4z"/>
	<path class="st2" d="M0.8,147.7c0-33,9.9,37.2,16.7,38.6s8-18.1,20.7-19.3c12.7-1.2,18.7,0,18.7,19.3S16,260.6,24,269.4
		s34-40.3,53-21.5S7.1,344.4,24,362s50.7-56.7,67.2-26.2C107.8,366.3,2.8,443.4,17.4,457c14.6,13.6,45.7-43.5,68.8-22.6
		S-8.5,534.1-8,565.4S0.8,180.7,0.8,147.7z"/>
	<path class="st2" d="M98.9,0.7c0,0,30.6,61.9,59.7,70c29.5,8.2,35.4,19,76.9,16.9c32.3-1.6,77.1,25.3,64.2-19.9
		C288.9,29.7,317.3,0,273.3,0C218.6,0,98.9,0.7,98.9,0.7z"/>
	<g>
		<path class="st1" d="M476.7-11.4c0,0-43.2,30.1-63.6,56.7c-20.4,26.5-34.5,77.5-51.4,101.6c-16.9,24.1-77,59.5-104,61.4
			c-27,1.9-40,1.6-87.3-19.6c-38.4-17.1,30.7,39.5,88,37.6c57.3-1.9,78-15.5,118.3-56.4S405.1,95.1,443,63.4
			c47.4-39.6,127.2-76.4,96.7-74.8C535.7-11.2,476.7-11.4,476.7-11.4z"/>
		<path class="st0" d="M483.4-3.3c0,0-27.2,39-49.8,56.5c-22.5,17.5-63.7,27.4-84.1,41.8c-20.3,14.4-53.1,69-56.8,94.5
			s-4.5,37.8,8.2,84.2c10.3,37.6-28.5-31.8-22.2-86.1c6.3-54.3,18.6-73,54.1-108.5s61.1-21.9,89.1-55.7
			c35-42.3,70.5-115.6,66.7-86.6C488.1-59.3,483.4-3.3,483.4-3.3z"/>
		<path class="st0" d="M161.8,239.8c0,0-5.6,12.9-6.6,17.3c-1,4.4-0.1,10.8,7.2,10.8c7.3,0,9-6.2,6.4-13.2
			C167.5,251,161.8,239.8,161.8,239.8z"/>
		<path class="st0" d="M164.7,214.6c0,0-7,16-8.2,21.5c-1.2,5.5-0.1,13.4,9,13.4c9,0,11.2-7.7,7.9-16.4
			C171.8,228.6,164.7,214.6,164.7,214.6z"/>
		<path class="st0" d="M160.5,185.5c-2.6-1-10.5,7-10.7,16.3c0,1.2-0.2,10.3,5.7,12.3c5.2,1.9,10.1-1.6,10.6-5.9
			c0.4-3.1-1-5.4-3.3-11.1C160.1,190.4,162.2,186.1,160.5,185.5z"/>
	</g>
	<g>
		<path class="st3" d="M-440.3,45.9c0,0,48.2-47.3,90.9-47.3s90.9,47.3,90.9,47.3s-40.7,43.3-90.9,43.3S-440.3,45.9-440.3,45.9z"/>
		
			<ellipse transform="matrix(0.9743 -0.2251 0.2251 0.9743 -19.2993 -77.4787)" class="st1" cx="-349.4" cy="45.9" rx="36.6" ry="36.6"/>
		<path class="st0" d="M-445.6,50.9c0,0,56.3-31,96.4-29.3c40.1,1.6,96.4,29.3,96.4,29.3S-306.6-10.2-349.2-7
			S-437.9,38.6-445.6,50.9z"/>
		
			<ellipse transform="matrix(0.9743 -0.2251 0.2251 0.9743 -19.2993 -77.4787)" class="st4" cx="-349.4" cy="45.9" rx="20.7" ry="20.7"/>
	</g>
	<path class="st1" d="M1384.6-234.7c-7.5,0-53.4,18.8-75,44.9c-21.6,26.1-10.6,43.1-22.6,72.1s-42.9,38.3-31.4,44.1
		c11.4,5.9,81.1-3.6,102.4-13.1c29-13,39.3-8.5,64.4-43.2s25.1-104.8,25.1-104.8H1384.6z"/>
	<path class="st0" d="M1458.2-202.8c0-27-46-44.1-86-44.1s-34,23.1-87,49.2c-16.7,8.2-49,8.5-56,17.2c-7,8.7,28.3,29.6,56,42.7
		c27.7,13.1,65,18,108,9S1458.2-175.8,1458.2-202.8z"/>
	<path class="st0" d="M1471.3-243.5c-17-10-52.7-24-92,26s-33,139-50,177.3c-7.5,16.9,141-40.3,165-89.3S1488.3-233.5,1471.3-243.5z
		"/>
	<path class="st0" d="M1472.1-237.3c-3.6-20.9-61.7-22.2-93.9,1.8c-32.2,24-46.7,70.4-56.1,87c-9.4,16.7-33.4,50.9-20.9,42.7
		c15.6-10.3,29.5-11.9,55.9-12.7s84.5-11.4,109.4-35.1S1475.7-216.4,1472.1-237.3z"/>
	<path class="st0" d="M1424,733.8c0.3-105.1-20.3-59-35.6-61.9c-1.3-0.2,10.1-40.3-11.2-45.3c-19.5-4.5-20.4,8.8-22.1,7.2
		c-9.1-8.2,20.1-68.1,8.4-82.3c-4.9-5.8-16.1-3.1-22.1,4c-10.2,12.2-3.7,35.8-10.5,39.5c-4.5,2.5-13.3-4.6-17.3-14.7
		c-10.8-27.1,19.3-59.5,9.1-82.3c-5.2-11.6-19-16.8-26.8-11.6c-12.6,8.5-8.7,45-14.5,45.8c-3.3,0.4-4.8-11.2-14-27.2
		c-6.4-11.1-13.2-22.8-21.2-22c-9.1,0.9-18.7,18.1-16.7,31.2c2.7,17.7,24.6,16.3,29,37.7c1.9,9.5,0,21.4-4.9,25
		c-4.7,3.4-8.8-3.2-19.7-4.3c-6.8-0.7-19.5,0.4-22.1,8.2c-2.9,8.6,6.1,25.8,18,33.4c14.8,9.5,23.4-2.7,41.8,6.5
		c3.1,1.6,20,10,20.4,24.1c0.2,10.4-8.7,21.1-17.5,23.9c-11.5,3.6-17-8.1-26-3.3c-7.5,4-13,17.3-11.2,28.1
		c2.5,15.1,18.5,19.6,23.5,21c12.2,3.4,22.6-0.7,33.2-5c22.6-9.3,29.8-21.6,36.4-16.5c6,4.7,6.4,20.1,3.8,30.2
		c-3.4,13.3-12.6,19.5-15.9,21.8c-14.5,9.8-22.8,0.1-34,10.2c-6.3,5.6-12.6,16.6-11.2,27c1.9,14.5,18,20.5,22,22
		c18.4,6.9,36.1-2.9,43.4-7c18.7-10.7,23.4-23.2,31.7-19.6c4.7,2,5.6,7,16.4,31.3c8.7,19.6,38.6,53.1,38.6,50.6
		C1425.3,806.8,1423.8,782.8,1424,733.8z"/>
	<path class="st1" d="M666.4,17.4c0,0,12.3,31.2,13.7,52.7s-9,54.4-8.5,73.4c0.5,19,19.8,58.8,33.5,69
		c13.6,10.2,20.6,14.4,53.1,18.8c26.3,3.5-30.2,11.4-59.8-9.1c-29.7-20.5-35.9-34.9-42.8-71.1c-7-36.2,11.3-50.8,2.3-81.1
		C646.7,32.1,617.4-15.2,633-4C635.1-2.5,666.4,17.4,666.4,17.4z"/>
	<path class="st0" d="M654.9,30.9c0,0,0.5,23.5,5,36.7c4.4,13.2,18.4,28,22.8,39.4s2.9,42.8-2.4,54.5c-5.3,11.7-8.3,17.1-26,33.4
		c-14.3,13.2,20.1-6,32.2-30.5c12.1-24.5,12.1-35.6,7.3-59.7s-18.9-25-21.1-46.5c-2.8-26.9,2.6-66.9-3.7-53.8
		C668,6,654.9,30.9,654.9,30.9z"/>
	<path class="st0" d="M657.9,49.1c0,0-9,21.8-10.5,35.3s5,31.5,4.3,43.3s-14.8,40.3-24.3,49.4c-9.5,9.1-14.4,13.2-36.7,22.7
		c-18.1,7.7,20.4,0.7,41-18.1c20.7-18.8,25.2-29,30.7-52.7c5.5-23.7-6.6-28.9,0.1-49.3c8.4-25.6,29.4-60.8,18.5-50.6
		C679.7,30.4,657.9,49.1,657.9,49.1z"/>
	<path class="st0" d="M647.3,28.5c-2.2,3.3-24.1,17.9-42.1,19.6c-18,1.7-22.3-8.2-38.8-11.6c-16.5-3.4-29.7,7.4-28.9,0.7
		s25.4-34.6,36-41.2c14.3-8.9,15.3-14.7,38.2-15.4c22.9-0.7,54.1,20.2,54.1,20.2L647.3,28.5z"/>
	<path class="st0" d="M704.7-3.5c11.9-1.6,22.2,17.3,24.6,34.7s-8.1,16.2-16.5,40.9c-2.6,7.8-0.8,21.8-4.2,25.4
		c-3.4,3.6-14.8-10.5-22.2-21.8C679,64.5,674.6,48.6,676,29.3S692.8-1.8,704.7-3.5z"/>
	<path class="st0" d="M663.1,2.9c9.6,7.2,3.6,28-6.9,42c-10.5,14.1-17.2,5.8-40.5,17.4c-7.4,3.7-15.9,15-20.9,15.1
		c-4.9,0.1-3.1-17.8-0.5-31.1C597,33,605.1,18.7,619.6,6S653.5-4.3,663.1,2.9z"/>
	<path class="st0" d="M692-3.4c4.8-7.3,16.2-19.7,41.4-7.1c25.2,12.6,40,49.5,54.1,61.6c6.2,5.3-63.6,10.7-82.6-4.4
		C686,31.7,687.2,3.9,692-3.4z"/>
	<path class="st0" d="M702.4-7.9c12,2.6,11.2,35.9-3.5,53.6s-42,24.8-51.9,29.7s-30.4,17.7-25.3,10.8c6.4-8.6,7.7-16.5,8.8-31.6
		s8.8-48,23.2-61.6C668.2-20.5,690.4-10.5,702.4-7.9z"/>
	<path class="st5" d="M-294.4-48.6c0,0,44-46.9,67-46.9s30,16.9,42,17.9s23-17.9,41-17.9s58,46.9,58,46.9s-27,48.6-97,48.6
		S-294.4-48.6-294.4-48.6z"/>
	<path class="st5" d="M1560-161c0,0-38.7-9.8-59.4,15.5c-21.2,25.8-3.6,58.6-4.2,66.5c-0.7,7.9-7.8,18.2-18.6,31.3
		c-8.4,10,19.4,11.5,19.9,14.5c0.4,2.4-4.1,5.6-6.2,8.8c-2,3,7.8,7.2,7.8,7.2s-5.8,5.4-4.5,7.7c2.5,4.6,8.5,1.3,7.5,7.8
		s-3.8,19,1,24.6c12.4,14.6,56.6,5.9,56.6,5.9L1560-161z"/>
	<path d="M-221.7-42.6c2.7-0.8,24.3-9.5,35.7-9.5s35.7,9.5,35.7,9.5s-20,3-35.7,3S-221.7-42.6-221.7-42.6z"/>
	<path class="st6" d="M-135,353"/>
	<path class="st1" d="M-64.8,74c0,0-10.3,49.2-25,75.8s-51.2,53.9-65.1,76.5c-13.9,22.7-23,89.2-15.8,115.3
		c7.2,26.1,11.6,38.3,44,77.3c26.2,31.6-41.7-18.2-58.6-73c-17-54.8-12.7-78.1,7.1-127.5s51-47.5,64.2-92
		c16.5-55.7,20.3-141.4,29-112C-84,18.2-64.8,74-64.8,74z"/>
	<path class="st0" d="M391.2-325.1c0,0-80.4,23.6-85.2,25.7s-68.3,34.7-44.8,57.8s65.7-22.1,74.6,0c8.9,22.1-112.9,39.2-90,71.2
		s60-28.6,74.9,0s-80.9,62.5-59.5,88.8s56.8-19.9,73.2-7c16.4,12.9,5.2,55.3,41.2,55.3s18.6-47.1,35-63
		c16.4-15.8,65.2,33.5,75.1,14.6s-78.2-63.5-71.8-84.2s38.9,21.2,64.3-4.6s-82-55.4-65.6-69.2c16.4-13.8,52.7,36.3,73.3,2.5
		C506.6-271,391.2-325.1,391.2-325.1z"/>
	<g>
		<path class="st0" d="M1379.1,151.9c0,7.4-37.8,45.2-56.6,51.7s-65.2,4.9-63.5,1.8c1.7-3.1,47.9-2.5,63.7-9.1
			C1352.2,184,1379,144.5,1379.1,151.9z"/>
		<g>
			<path class="st0" d="M1260.7,38.6c1.5,5.9-30.8,28.3-49.3,29.8c-18.5,1.5-67.8-9.2-66.6-11.3s50,7.6,65.3,5.5
				C1238.8,58.8,1259.2,32.8,1260.7,38.6z"/>
			<path class="st0" d="M1325.6,73.9c0,7.4-37.8,45.2-56.6,51.7c-18.8,6.6-65.2,4.9-63.5,1.8c1.7-3.1,47.9-2.5,63.7-9.1
				C1298.7,106.1,1325.6,66.6,1325.6,73.9z"/>
			<path class="st0" d="M1260.4,30.4c5.4,0.5,15.5-31.8,11.6-48.7s-26.8-59.9-28.3-58.6c-1.5,1.3,20.5,44.1,23,58.2
				C1271.4,7.9,1255,29.9,1260.4,30.4z"/>
			<path class="st0" d="M1319,82.7c6.3-1,27.9-40.4,28.3-58.3s-14.1-59.6-16.3-57.6c-2.2,2,11.3,43.6,10.1,58.8
				C1338.9,53.9,1312.7,83.7,1319,82.7z"/>
			<path class="st0" d="M1380.4,155c6.3-1,27.9-40.4,28.3-58.3c0.4-17.9-14.1-59.6-16.3-57.6c-2.2,2,11.3,43.6,10.1,58.8
				C1400.3,126.3,1374.1,156,1380.4,155z"/>
			<path class="st0" d="M1404,246.4c16.1-1.7-6.6-89.2-44.3-129.7c-37.7-40.5-170-136.2-172-132c-2.1,4.2,127.2,99.8,156.6,134
				C1399.4,182.9,1388,248.2,1404,246.4z"/>
			<path class="st0" d="M1209.1-2.6c-1,12.4-26.4,25.9-44.1,14.8s-35-45.2-43.3-48.4c-17.8-7,35.9-14.6,58.7-7.5
				S1210.1-15,1209.1-2.6z"/>
			<path class="st0" d="M1222.7,54.5c5.7,11.1-8.8,36-29.8,35.8c-20.9-0.1-53.7-20-62.4-18.4c-18.9,3.5,22.9-31.4,46.1-37.4
				C1199.8,28.6,1217,43.4,1222.7,54.5z"/>
			<path class="st0" d="M1278.5,120.9c-1.1-17.2-31.7-38.4-53.3-25.1c-21.6,13.3-42.9,58.1-52.9,61.6c-21.7,7.6,43.4,23.9,71,16.8
				C1271.1,167,1279.6,138,1278.5,120.9z"/>
			<path class="st0" d="M1350.1,186.7c0.8-11.7-30.4-23-55.4-11.3c-25.1,11.6-53.4,44.9-64.8,48.5c-24.6,7.7,44.7,11.7,75.8,3.6
				C1336.8,219.3,1349.4,198.4,1350.1,186.7z"/>
			<path class="st0" d="M1261-0.9c12.6,0.7,27.3-27.9,16.8-50.9s-44.3-49-47.2-59.5c-6.3-22.5-16.2,41.1-10,69.7
				S1248.4-1.6,1261-0.9z"/>
			<path class="st0" d="M1340.6,51.6c-15.5,7.7-49.6-13-49-42c0.6-29,28.8-73.9,26.8-86.1c-4.4-26.2,43,32.4,50.8,64.6
				S1356.1,44,1340.6,51.6z"/>
			<path class="st0" d="M1408.2,106.5c-10.3,5.1-33-11.3-32.6-32.6s19.2-53.4,17.8-62.4c-2.9-19.4,28.5,25.3,33.7,49.3
				S1418.5,101.4,1408.2,106.5z"/>
		</g>
	</g>
	<g>
		<path class="st7" d="M799.2-232.7c0.8-0.5-13.9-46.8-30.3-51.1S718-239.3,721.7-229c3.8,10.3,25.3,51.8,29.8,51.4
			C756.1-178,799.2-232.7,799.2-232.7z"/>
		<path class="st7" d="M788.3-245.5c13.9-22.4,22.6-40.3,34.3-45.2c11.7-4.9,15.2-5.1,15.9,9.4s0.8,46.5-6.2,60.6
			c-7,14.1-6.2,16-23.3,25.7c-17.1,9.7-32.6,7.5-32.7,6.1C776.2-190.4,774.4-223.1,788.3-245.5z"/>
		<path class="st7" d="M735.3-239.3c-0.2-3.6,0.4-10.9-4.6-22.3c-4.9-11.4-9.3-18.4-20.3-13.6c-11,4.9-25.2,31-17.6,43
			c7.6,12,38.7,47,38.7,47L735.3-239.3z"/>
		<path class="st7" d="M683.1-215.7c0,0-5.4-9.2-9.3-4.6c-4,4.6-13.4,13-5.7,26.4c7.7,13.4,10.4,27.1,32.6,36.2s54.2,25,54.2,25
			L683.1-215.7z"/>
		<path class="st7" d="M754.8-132.7c3.3-0.2,43.4-9.2,60.2-38.5c15.5-26.9,68.6-77.8,59.7-72.7c-11.3,6.5-52.2,33.8-52.2,33.8
			L766-155L754.8-132.7z"/>
		<path class="st7" d="M813.8-225.7c1.8-2.8,4.6-4.8,7.7-5.5c9.6-2.2,14.3-16.1,39.1-17.1c8-0.3,21.5,0.6,9.4,10.6
			s-34,23.3-46.9,39.2c-12.9,15.9-25.9,33.2-35.5,46c-9.7,12.8-36.1,16.3-34.2,13.7C755.2-141.2,802.6-208.2,813.8-225.7z"/>
		<path class="st7" d="M762-136c0.4-5.8-25.3-30.8-5.7-59.3s55.9-44.8,62.2-48c6.3-3.2,7.2,3.3-1.7,23.3s-21.3,52.6-32.6,66.2
			C773-140.1,762-136,762-136z"/>
		<path class="st7" d="M752.1-187.8c0,0-45.1-56-61.5-61.7c-16.4-5.8-13.1,48.6-8.4,59.3c4.7,10.7,28.7,28.4,40.2,34.4
			s27.7,21.9,32.3,23.2s10.1,2.6,4.7-9.2C754.1-153.7,760.7-177.5,752.1-187.8z"/>
	</g>
	<g>
		<g>
			<path class="st0" d="M1015.9,780.6c-9.4-17.7-33-26.3-67.2-32c-34.2-5.6-63.7-4.7-81-4.4c-34,0.7-69.5-16.2-69.5-16.2
				s44.5,44.1,68.5,52.6c24,8.4,47.6,10.3,83,8.2C985,786.7,1025.3,798.4,1015.9,780.6z"/>
			<path class="st0" d="M1028.9,780.6c9.2-17.7,32.6-26.3,66.3-32c33.7-5.6,62.8-4.7,79.9-4.4c33.5,0.7,68.6-16.2,68.6-16.2
				s-43.9,44.1-67.6,52.6c-23.7,8.4-47,10.3-81.9,8.2S1019.6,798.4,1028.9,780.6z"/>
			<path class="st0" d="M976.3,768.5c-2.4-14.3-16.6-25.7-38.8-37.4c-22.2-11.7-42.7-17.9-54.6-21.7c-23.5-7.4-44-27.2-44-27.2
				s20.4,40.6,34.9,51.9c14.5,11.3,30.3,18,55.1,24.7S978.7,782.8,976.3,768.5z"/>
			<path class="st0" d="M1059.8,778c-0.2-14.4,11.4-27.6,30.6-42.4c19.2-14.8,37.6-23.8,48.4-29.3c21.2-10.7,37.3-33.1,37.3-33.1
				s-12.4,42.8-24.4,56c-11.9,13.2-25.9,22.1-48.4,32.3S1060.1,792.4,1059.8,778z"/>
			<path class="st0" d="M981.8,758.1c-8.8-7.8-42.6-48.4-39.6-76.4s9-22.8,14.1-44.3c3.3-13.7,3.6-36,10.9-37.3s26.3,22.8,34,37.5
				c15.3,29.2,24.5,45.4,20.7,74.7S990.5,765.9,981.8,758.1z"/>
			<path class="st0" d="M1012.2,739.5c-2.7-11.4-7.3-64.1,11.2-85.3c18.5-21.2,20.4-13.6,36.9-28.3c10.5-9.3,23.5-27.5,30.3-24.4
				c6.8,3.1,8.6,33.8,6.5,50.2c-4.1,32.7-5.8,51.2-25.7,73.1C1051.5,746.7,1015,750.9,1012.2,739.5z"/>
			<path class="st0" d="M1040.1,780.4c0.9-15.1-6.1-82.7-36.5-105c-30.4-22.3-31.2-12.2-57.2-26.8c-16.6-9.3-38.9-29-47.3-23.4
				c-8.4,5.6-3.2,44.7,3.7,65c13.8,40.3,20.8,63.2,53.2,86.1C988.6,799.1,1039.3,795.4,1040.1,780.4z"/>
			<path class="st0" d="M1015.9,780c-2.5-14.9-3.6-82.9,22.1-108.4s27.4-15.6,49.9-32.9c14.3-11,32.7-33.1,41.1-28.5
				c8.4,4.6,7.9,44.1,3.7,65c-8.3,41.6-12.2,65.1-39.6,91.4C1065.6,792.9,1018.4,794.9,1015.9,780z"/>
			<path class="st0" d="M1031.8,798.7c-24,0-60-43.7-60-77c0-33.3,38.8-103.7,55-103.7c16.2,0,51.5,57.1,56,98.3
				C1087.3,757.5,1055.8,798.7,1031.8,798.7z"/>
		</g>
		<path class="st0" d="M1037.8,806c0,0,30.8-65.7,56.5-88.3c25.6-22.5,105.7-57.3,116.9-49.1s-10,36.9-15.5,57.1s-5,35-26.7,45.5
			C1147.3,781.7,1037.8,806,1037.8,806z"/>
	</g>
	<g>
		<path class="st0" d="M40.1,671.6c-0.1-1,45.3-18.4,59.3-8s-1.1,69.1-11.6,72.6c-10.4,3.5-56.6,12.5-59.3,8.6
			S40.1,671.6,40.1,671.6z"/>
		<path class="st0" d="M57.1,672.3c8.3-25.4,16.4-43.7,12.6-56.2c-3.8-12.5-6-15.4-17.7-6.8c-11.7,8.6-36.5,28.8-42.8,43.4
			c-6.3,14.6-8.3,15.2-4.6,35c3.7,19.9,15.5,31,16.7,30.1C22.4,716.9,48.8,697.6,57.1,672.3z"/>
		<path class="st0" d="M86.9,718.8c2.9-2.2,8.2-7.2,20.3-10.5s20.4-4.2,23.8,7.7s-7.5,39.9-21.8,41.4s-61.7-1.3-61.7-1.3L86.9,718.8
			z"/>
		<path class="st0" d="M102.8,775.6c0,0,10.6-1.5,9.7,4.6c-0.9,6.1-1.3,19-16.7,21.4s-27.8,8.8-49.3-3.3s-54.8-27.7-54.8-27.7
			L102.8,775.6z"/>
		<path class="st0" d="M-8.3,770.6c-2.1-2.8-21.2-40.7-9.6-72.8c10.7-29.5,15.4-104.4,17.2-94.1c2.4,13.2,7.9,63.4,7.9,63.4
			l-5.6,80.4L-8.3,770.6z"/>
		<path class="st0" d="M25.1,664.3c1-3.2,0.7-6.7-0.8-9.7c-4.5-9.1,3.1-21.7-12.4-42.2c-5-6.6-14.6-16.9-14.3-0.8s4.2,42.1,0.3,62.5
			c-3.9,20.4-8.8,41.8-12.4,57.7c-3.6,15.9,11,39.4,11.8,36.1C-2,765,18.9,684.4,25.1,664.3z"/>
		<path class="st0" d="M-10.5,762.8c4.2-4,40.3,0.9,49.6-33c9.2-33.9-1.8-73.3-3.5-80.4c-1.7-7.1-7.2-3.7-17,16.1
			s-26.8,50.5-29.9,68.2C-14.5,751.3-10.5,762.8-10.5,762.8z"/>
		<path class="st0" d="M36.1,737.9c0,0,72.8,0.8,88,10.4s-29,41.3-40.4,44.3s-40.8-5.1-52.9-10.5c-12.2-5.5-35.1-8.4-39-11.3
			s-8.6-6.5,4.1-9.6C8.4,757.9,22.5,737.5,36.1,737.9z"/>
	</g>
</g>
</svg>
