<?xml version="1.0" encoding="utf-8"?>
<!-- Generator: Adobe Illustrator 21.0.0, SVG Export Plug-In . SVG Version: 6.00 Build 0)  -->
<svg version="1.1" id="Lager_1" xmlns="http://www.w3.org/2000/svg" xmlns:xlink="http://www.w3.org/1999/xlink" x="0px" y="0px"
	 viewBox="0 0 200 200" style="enable-background:new 0 0 200 200;" xml:space="preserve">
<style type="text/css">
	.st0{fill:#980BFF;}
</style>
<g>
	<g>
		<path class="st0" d="M116.5,40.8c-12.7-1.1-25.4-2.2-38.1-1c-10.9,1-22.5,3-31.3,10c-16.6,13.3-17.2,36.8-9.2,55
			c8.3,18.7,25.2,36.9,46,40.7c20.9,3.8,44.4-8.5,53.1-28.1c5-11.3,4.2-24.1,0.8-35.8c-3.3-11.3-8.4-23.2-18.6-29.8
			c-6.4-4.2-12.4,6.1-6,10.3c7,4.5,10.2,13.5,12.6,21c2.6,8.2,4.1,17.2,1.7,25.7c-4.5,15.8-23.5,27.8-39.6,25.4
			c-17.1-2.5-30.3-16.9-37.9-31.5c-6.9-13.3-8.5-31.5,3.4-42.6c7.6-7.1,19.9-8.2,29.7-8.7c11.1-0.5,22.3,0.4,33.4,1.4
			C124.2,53.4,124.1,41.5,116.5,40.8L116.5,40.8z"/>
	</g>
</g>
<g>
	<g>
		<path class="st0" d="M36.7,48.5c7.2,8.6,15.9,15.7,24.4,23.1c8.9,7.7,17.7,15.5,26.4,23.5c17.4,15.9,34.3,32.3,51.3,48.7
			c5.5,5.3,13.9-3.1,8.4-8.4c-17-16.4-33.9-32.7-51.3-48.7c-8.5-7.7-17-15.4-25.7-22.9C61.6,56.2,52.6,48.9,45.1,40
			C40.2,34.2,31.8,42.6,36.7,48.5L36.7,48.5z"/>
	</g>
</g>
</svg>
