<?xml version="1.0" encoding="utf-8"?>
<!-- Generator: Adobe Illustrator 21.0.0, SVG Export Plug-In . SVG Version: 6.00 Build 0)  -->
<svg version="1.1" id="Lager_1" xmlns="http://www.w3.org/2000/svg" xmlns:xlink="http://www.w3.org/1999/xlink" x="0px" y="0px"
	 viewBox="0 0 200 200" style="enable-background:new 0 0 200 200;" xml:space="preserve">
<style type="text/css">
	.st0{fill:#FF4DC9;}
</style>
<g>
	<g>
		<path class="st0" d="M39.7,58.3c-6.1,17.8-11.2,36.5-8.8,55.5c1.8,13.6,10.8,39.7,29.3,27.9c7.4-4.7,10.2-14,11.9-22.1
			c2-9,2.9-18.5,2.9-27.7c0.1-16.3-6.2-34.4-23.6-39c-7.4-1.9-10.6,9.5-3.2,11.5c12.4,3.2,15,17.3,14.9,28.4
			c-0.1,6.7-0.6,13.5-1.8,20.1c-1,5.6-2.2,15-7.2,18.5c-9.4,6.6-12.1-24-12-28.8c0.2-14.2,4.5-27.9,9-41.2
			C53.7,54.2,42.2,51,39.7,58.3L39.7,58.3z"/>
	</g>
</g>
<g>
	<g>
		<path class="st0" d="M51.1,63.5c4,1.9,8,3.8,12,5.6c3.3,1.5,6.3,3,10,1.9c7.1-2,14.4-6.9,20.8-10.5c14.5-8.2,28.3-17.4,42-26.6
			c-2.9-1.2-5.8-2.4-8.7-3.6c3.8,14,3,29.2,3.2,43.6c0.3,15.4,0.4,30.8,0.5,46.2c0,7.7,12,7.7,11.9,0c-0.1-16.1-0.2-32.1-0.5-48.2
			c-0.3-14.9,0.3-30.3-3.6-44.8c-1-3.5-5.5-5.7-8.7-3.6c-12,8-24,16.1-36.4,23.4c-6.1,3.6-12.3,7-18.6,10.1
			c-1.2,0.6-3.6,2.2-4.9,2.4c2.2-0.3-1.8-1.2-2.6-1.5c-3.4-1.6-6.8-3.2-10.2-4.8C50.2,50,44.1,60.3,51.1,63.5L51.1,63.5z"/>
	</g>
</g>
<g>
	<g>
		<path class="st0" d="M49.5,147.5c10.4,5,20.2,11.5,31,15.7c11.4,4.5,23.3,4.4,35.3,4.6c4.8,0.1,9.9,0.9,13.7-2.7
			c4-3.8,5.8-9.4,7.3-14.5c3.6-12.4,6.8-25.2,5.7-38.2c-0.7-7.6-12.6-7.6-11.9,0c0.9,10.5-1.2,20.5-4,30.6c-1,3.6-1.9,11-5.2,13.4
			c1.2-0.8-0.1-0.3-1.1-0.3c-1.2-0.1-2.4,0-3.6,0c-2.7,0-5.4-0.1-8.2-0.1c-9.9-0.2-18.9-1.2-28-5.4c-8.6-4-16.5-9.1-25-13.2
			C48.6,133.9,42.6,144.2,49.5,147.5L49.5,147.5z"/>
	</g>
</g>
</svg>
